<svg width="246" height="246" xmlns="http://www.w3.org/2000/svg" xmlns:xlink="http://www.w3.org/1999/xlink" overflow="hidden"><defs><clipPath id="clip0"><path d="M0 0 246 0 246 246 0 246Z" fill-rule="evenodd" clip-rule="evenodd"/></clipPath></defs><g clip-path="url(#clip0)"><rect x="0" y="0" width="246" height="246" fill="#FFFFFF"/><path d="M4439.76 1580.34C4443.94 1582.43 4442.56 1587.3 4439.24 1586.04 4440.1 1585.27 4439.88 1584.43 4439.52 1583.76 4439.18 1583.08 4438.69 1582.57 4437.91 1582.33 4437.96 1580.87 4438.66 1580.43 4439.76 1580.34L4439.76 1580.34Z" stroke="#000000" stroke-width="0.659666" fill="none" fill-rule="evenodd" transform="matrix(0.997205 -0.0872442 0.0871559 0.996195 -4367.62 -1010.81)"/><path d="M4424.61 1586.33C4424.78 1586.46 4425.07 1586.53 4425.3 1586.63 4425.67 1586.79 4426.01 1586.95 4426.34 1587.1 4427.07 1587.39 4427.58 1587.7 4428.05 1587.95 4432.53 1590.33 4433.33 1588.48 4433.33 1588.48 4433.63 1588.19 4433.9 1587.96 4434.11 1587.86 4434.6 1587.63 4434.89 1587.65 4435.14 1587.7 4435.99 1587.85 4435.56 1589.47 4435.56 1589.47 4434.73 1591.78 4437.02 1592.49 4437.02 1592.49 4441.92 1594.2 4441.95 1590.42 4441.95 1590.42 4441.95 1588.81 4440.68 1586.5 4438.87 1585.06 4437.42 1583.91 4435.56 1583.82 4435.56 1583.82 4434.7 1583.75 4432.5 1584.52 4432.5 1584.52 4430.14 1585.61 4425.56 1584.27 4425.56 1584.27 4427.71 1584.51 4429.5 1582.53 4429.5 1582.53 4432.73 1583.43 4434.38 1580.53 4434.38 1580.53 4439.24 1584.26 4440.78 1581.38 4440.78 1581.38 4440.97 1577.3 4435.1 1576.93 4435.1 1576.93 4432.37 1576.7 4430.46 1577.91 4430.46 1577.91 4424.83 1581.35 4421.2 1580.27 4421.2 1580.27 4416.67 1579.88 4406.34 1554.27 4406.34 1554.27 4406.34 1554.27 4395.92 1548.63 4399.2 1557.61 4400.73 1560.15 4404.13 1566.81 4407.82 1572.54 4412.4 1579.63 4416.87 1585.6 4413.68 1585.42 4413.68 1585.42 4407.13 1583.66 4406.96 1587.55 4406.96 1587.55 4406.99 1595.21 4411.3 1592.23 4411.3 1592.23 4412.01 1591.64 4412.22 1589.24 4412.22 1589.24 4415.44 1591.34 4418.42 1589.56 4418.42 1589.56 4418.67 1590.32 4422.75 1590.5 4422.75 1590.5 4423.35 1594.52 4429.55 1594.8 4429.55 1594.8 4428.91 1595.54 4429.24 1597.7 4429.24 1597.7 4434.86 1604.5 4436.05 1599.69 4436.05 1599.69 4437.56 1591.23 4424.61 1586.33Z" stroke="#000000" stroke-width="0.659666" fill="none" fill-rule="evenodd" transform="matrix(0.997205 -0.0872442 0.0871559 0.996195 -4367.62 -1010.81)"/><path d="M4408.24 1592.07C4408.36 1593.44 4409.28 1594.09 4409.97 1594.57 4410.95 1595.24 4411.95 1595.48 4413.17 1595.61 4414.6 1595.76 4415.82 1594.96 4415.83 1593.24 4413.51 1594.58 4411.95 1591.52 4412.1 1589.59 4410.54 1589.09 4408.78 1590.87 4408.24 1592.07L4408.24 1592.07Z" stroke="#000000" stroke-width="0.659666" fill="none" fill-rule="evenodd" transform="matrix(0.997205 -0.0872442 0.0871559 0.996195 -4367.62 -1010.81)"/><path d="M4434.43 1600.93C4433.34 1604.97 4424.07 1602.86 4424.7 1598.98 4427.79 1600.51 4429.28 1598.85 4429.64 1597.37 4432.09 1597.2 4433.89 1599.57 4434.43 1600.93L4434.43 1600.93Z" stroke="#000000" stroke-width="0.659666" fill="none" fill-rule="evenodd" transform="matrix(0.997205 -0.0872442 0.0871559 0.996195 -4367.62 -1010.81)"/><path d="M4440.11 1590.26C4444.21 1594.33 4440.06 1599.96 4436.61 1597.22 4438.09 1596.47 4438.12 1594.96 4437.84 1593.81 4437.67 1593.06 4437.25 1592.37 4436.77 1591.93 4437.63 1590.17 4438.69 1589.96 4440.11 1590.26L4440.11 1590.26Z" stroke="#000000" stroke-width="0.659666" fill="none" fill-rule="evenodd" transform="matrix(0.997205 -0.0872442 0.0871559 0.996195 -4367.62 -1010.81)"/><path d="M4391.6 1550.57C4398.49 1558.89 4397.31 1565.2 4397.31 1565.2 4397.31 1565.2 4402.31 1564.99 4400.82 1557.85 4400.82 1557.85 4401.03 1561.49 4405.67 1562.6 4406.08 1562.06 4406.23 1559.03 4405.53 1556.28 4405.53 1556.28 4409.09 1563.2 4414.8 1561.53 4414.8 1561.53 4407.8 1554.71 4404.26 1547.62 4391.68 1538.71 4391.6 1550.57 4391.6 1550.57Z" stroke="#000000" stroke-width="0.659666" fill="none" fill-rule="evenodd" transform="matrix(0.997205 -0.0872442 0.0871559 0.996195 -4367.62 -1010.81)"/><path d="M4291.62 1567.62C4287.12 1568.95 4287.66 1573.98 4291.14 1573.33 4290.43 1572.41 4290.78 1571.62 4291.25 1571.02 4291.72 1570.41 4292.28 1569.99 4293.09 1569.9 4293.29 1568.45 4292.69 1567.9 4291.62 1567.62L4291.62 1567.62Z" stroke="#000000" stroke-width="0.659666" fill="none" fill-rule="evenodd" transform="matrix(0.997205 -0.0872442 0.0871559 0.996195 -4367.62 -1010.81)"/><path d="M4305.5 1576.14C4305.3 1576.24 4305.02 1576.27 4304.76 1576.33 4304.38 1576.41 4304.01 1576.52 4303.65 1576.6 4302.89 1576.77 4302.33 1576.98 4301.84 1577.14 4297 1578.71 4296.54 1576.75 4296.54 1576.75 4296.3 1576.41 4296.06 1576.14 4295.88 1576.01 4295.44 1575.69 4295.14 1575.66 4294.9 1575.66 4294.04 1575.66 4294.17 1577.33 4294.17 1577.33 4294.58 1579.74 4292.21 1580.06 4292.21 1580.06 4287.09 1580.88 4287.71 1577.15 4287.71 1577.15 4287.99 1575.57 4289.64 1573.52 4291.67 1572.42 4293.3 1571.53 4295.16 1571.78 4295.16 1571.78 4296.01 1571.86 4298.04 1573 4298.04 1573 4300.18 1574.49 4304.92 1573.96 4304.92 1573.96 4302.76 1573.81 4301.35 1571.56 4301.35 1571.56 4298 1571.88 4296.89 1568.74 4296.89 1568.74 4291.45 1571.56 4290.44 1568.45 4290.44 1568.45 4290.95 1564.41 4296.8 1565.06 4296.8 1565.06 4299.53 1565.31 4301.2 1566.85 4301.2 1566.85 4306.15 1571.21 4309.91 1570.78 4309.91 1570.78 4314.44 1571.17 4329.05 1547.76 4329.05 1547.76 4329.05 1547.76 4340.29 1544.01 4335.5 1552.28 4333.55 1554.51 4329.05 1560.48 4324.42 1565.49 4318.69 1571.67 4313.23 1576.77 4316.43 1577.15 4316.43 1577.15 4323.17 1576.56 4322.67 1580.42 4322.67 1580.42 4321.3 1587.95 4317.58 1584.27 4317.58 1584.27 4316.98 1583.57 4317.2 1581.15 4317.2 1581.15 4313.67 1582.68 4311.04 1580.41 4311.04 1580.41 4310.67 1581.11 4306.61 1580.58 4306.61 1580.58 4305.33 1584.43 4299.16 1583.64 4299.16 1583.64 4299.67 1584.47 4298.96 1586.53 4298.96 1586.53 4292.26 1592.26 4291.91 1587.32 4291.91 1587.32 4291.89 1578.71 4305.5 1576.14Z" stroke="#000000" stroke-width="0.659666" fill="none" fill-rule="evenodd" transform="matrix(0.997205 -0.0872442 0.0871559 0.996195 -4367.62 -1010.81)"/><path d="M4320.63 1584.64C4320.27 1585.97 4319.25 1586.45 4318.49 1586.8 4317.41 1587.3 4316.38 1587.36 4315.16 1587.27 4313.73 1587.16 4312.66 1586.17 4312.95 1584.47 4315 1586.19 4317.08 1583.46 4317.26 1581.54 4318.88 1581.3 4320.31 1583.37 4320.63 1584.64L4320.63 1584.64Z" stroke="#000000" stroke-width="0.659666" fill="none" fill-rule="evenodd" transform="matrix(0.997205 -0.0872442 0.0871559 0.996195 -4367.62 -1010.81)"/><path d="M4293.3 1588.82C4293.66 1592.99 4303.16 1592.52 4303.22 1588.6 4299.91 1589.57 4298.73 1587.66 4298.64 1586.15 4296.25 1585.55 4294.07 1587.57 4293.3 1588.82L4293.3 1588.82Z" stroke="#000000" stroke-width="0.659666" fill="none" fill-rule="evenodd" transform="matrix(0.997205 -0.0872442 0.0871559 0.996195 -4367.62 -1010.81)"/><path d="M4289.54 1577.32C4284.8 1580.63 4287.91 1586.88 4291.78 1584.79 4290.46 1583.8 4290.68 1582.31 4291.16 1581.2 4291.47 1580.5 4291.99 1579.9 4292.54 1579.55 4292 1577.67 4290.99 1577.29 4289.54 1577.32L4289.54 1577.32Z" stroke="#000000" stroke-width="0.659666" fill="none" fill-rule="evenodd" transform="matrix(0.997205 -0.0872442 0.0871559 0.996195 -4367.62 -1010.81)"/><path d="M4342.11 1549.16C4333.88 1556.15 4336.06 1560.08 4336.06 1560.08 4336.06 1560.08 4331.17 1559.01 4333.87 1552.23 4333.87 1552.23 4333.03 1555.78 4328.27 1556.06 4327.96 1555.46 4328.34 1552.45 4329.51 1549.87 4329.51 1549.87 4323.75 1555.4 4318.42 1552.77 4319.77 1552.98 4326.79 1547.38 4330.43 1540.84 4344.37 1534.25 4342.11 1549.16 4342.11 1549.16Z" stroke="#000000" stroke-width="0.659666" fill="none" fill-rule="evenodd" transform="matrix(0.997205 -0.0872442 0.0871559 0.996195 -4367.62 -1010.81)"/><path d="M4357.87 1552.38C4357.87 1552.38 4349.87 1570.84 4339.68 1570.86 4339.68 1570.86 4331.5 1569.65 4331.58 1578.16 4331.58 1578.16 4328.77 1579.9 4328.44 1574.25 4328.44 1574.25 4322.69 1580.27 4331.65 1583.12 4331.65 1583.12 4354.41 1574.95 4360.08 1553.57Z" stroke="#000000" stroke-width="0.659666" fill="none" fill-rule="evenodd" transform="matrix(0.997205 -0.0872442 0.0871559 0.996195 -4367.62 -1010.81)"/><path d="M4357.97 1552.45C4348.36 1573.28 4335.02 1576.76 4334.84 1576.57 4335.34 1577.09 4352.29 1571.18 4358.7 1552.91Z" stroke="#000000" stroke-width="0.659666" fill="none" fill-rule="evenodd" transform="matrix(0.997205 -0.0872442 0.0871559 0.996195 -4367.62 -1010.81)"/><path d="M4355.82 1561.33C4355.54 1561.65 4345.44 1577.56 4333.13 1582.35 4333.13 1582.35 4322.03 1585.63 4321.55 1588.32 4321.55 1588.32 4318.52 1596.97 4329.01 1594.96 4329.15 1594.8 4320.79 1591.35 4327.57 1587.69 4327.57 1587.69 4328.22 1595.01 4340.04 1584.52 4340.04 1584.52 4353.79 1572.23 4357.38 1562.5Z" stroke="#000000" stroke-width="0.659666" fill="none" fill-rule="evenodd" transform="matrix(0.997205 -0.0872442 0.0871559 0.996195 -4367.62 -1010.81)"/><path d="M4356.37 1561.75C4350.29 1573.9 4337.15 1582.49 4337.15 1582.49 4337.15 1582.49 4351.41 1574.31 4356.67 1562.01Z" stroke="#000000" stroke-width="0.659666" fill="none" fill-rule="evenodd" transform="matrix(0.997205 -0.0872442 0.0871559 0.996195 -4367.62 -1010.81)"/><path d="M4376.1 1553.97C4376.1 1553.97 4380.76 1573.55 4390.81 1575.33 4390.81 1575.33 4399.08 1575.57 4397.52 1583.93 4397.52 1583.93 4399.97 1586.13 4401.29 1580.63 4401.29 1580.63 4405.89 1587.55 4396.6 1588.81 4396.6 1588.81 4375.59 1576.81 4373.71 1554.76Z" stroke="#000000" stroke-width="0.659666" fill="none" fill-rule="evenodd" transform="matrix(0.997205 -0.0872442 0.0871559 0.996195 -4367.62 -1010.81)"/><path d="M4375.99 1554.04C4381.83 1576.22 4394.36 1581.97 4394.57 1581.82 4393.99 1582.24 4378.33 1573.47 4375.18 1554.34Z" stroke="#000000" stroke-width="0.659666" fill="none" fill-rule="evenodd" transform="matrix(0.997205 -0.0872442 0.0871559 0.996195 -4367.62 -1010.81)"/><path d="M4376.55 1563.15C4376.77 1563.5 4383.96 1580.93 4395.24 1587.79 4395.24 1587.79 4405.61 1592.95 4405.61 1595.67 4405.61 1595.67 4407.11 1604.72 4397.12 1600.92 4397.01 1600.75 4405.84 1598.79 4399.79 1594.01 4399.79 1594.01 4397.89 1601.11 4388.07 1588.73 4388.07 1588.73 4376.66 1574.23 4374.82 1564.03Z" stroke="#000000" stroke-width="0.659666" fill="none" fill-rule="evenodd" transform="matrix(0.997205 -0.0872442 0.0871559 0.996195 -4367.62 -1010.81)"/><path d="M4375.95 1563.47C4379.83 1576.49 4391.28 1587.23 4391.28 1587.23 4391.28 1587.23 4378.65 1576.71 4375.6 1563.68Z" stroke="#000000" stroke-width="0.659666" fill="none" fill-rule="evenodd" transform="matrix(0.997205 -0.0872442 0.0871559 0.996195 -4367.62 -1010.81)"/><path d="M4407.85 1611.3C4414.8 1603.5 4405.81 1603.18 4405.81 1603.18 4383.58 1601.99 4375.79 1570.35 4375.79 1570.35L4371.5 1571.89C4371.5 1571.89 4381.99 1599.39 4388.93 1605.08 4388.93 1605.08 4394.14 1611.26 4404.52 1609.77 4404.52 1609.77 4409.1 1608.37 4407.85 1611.3Z" stroke="#000000" stroke-width="0.659666" fill="none" fill-rule="evenodd" transform="matrix(0.997205 -0.0872442 0.0871559 0.996195 -4367.62 -1010.81)"/><path d="M4373.9 1572.69C4377.37 1581.7 4382.54 1593.13 4386.76 1597.65 4391.78 1603.03 4397.33 1604.95 4397.33 1604.95 4397.28 1604.91 4393.01 1602.85 4388.92 1598.87 4384.17 1594.25 4376.75 1580.29 4374.52 1572.27Z" stroke="#000000" stroke-width="0.659666" fill="none" fill-rule="evenodd" transform="matrix(0.997205 -0.0872442 0.0871559 0.996195 -4367.62 -1010.81)"/><path d="M4371.9 1576.48C4371.9 1576.48 4382 1631.39 4403.61 1613.72 4403.61 1613.72 4410.09 1620.13 4398.34 1620 4398.34 1620 4405.82 1627.35 4410.06 1617.82 4410.06 1617.82 4412.69 1610.52 4401.83 1609.58 4401.68 1609.64 4390.43 1608.51 4386.45 1602.38 4386.45 1602.38 4380.96 1592.99 4377.18 1584.77 4375.72 1581.6 4373.96 1577.73 4373.84 1575.86Z" stroke="#000000" stroke-width="0.659666" fill="none" fill-rule="evenodd" transform="matrix(0.997205 -0.0872442 0.0871559 0.996195 -4367.62 -1010.81)"/><path d="M4372.66 1576.62C4373.04 1581.78 4380.3 1598.44 4380.3 1598.44 4385.69 1610.8 4395.08 1612.78 4395.08 1612.78 4395.17 1612.79 4387.54 1610.93 4381.32 1598.64 4381.32 1598.64 4373.5 1580.82 4373 1576.7" stroke="#000000" stroke-width="0.659666" fill="none" fill-rule="evenodd" transform="matrix(0.997205 -0.0872442 0.0871559 0.996195 -4367.62 -1010.81)"/><path d="M4315.02 1603.16C4309.53 1594.27 4318.44 1595.53 4318.44 1595.53 4340.53 1598.21 4354.26 1566.54 4354.26 1566.54L4357.78 1570.52C4357.78 1570.52 4342.55 1595.94 4334.72 1600.34 4334.72 1600.34 4328.53 1605.51 4318.55 1602.24 4318.55 1602.24 4314.29 1600.07 4315.02 1603.16Z" stroke="#000000" stroke-width="0.659666" fill="none" fill-rule="evenodd" transform="matrix(0.997205 -0.0872442 0.0871559 0.996195 -4367.62 -1010.81)"/><path d="M4354.95 1570.09C4349.96 1578.35 4342.82 1589.52 4337.87 1593.24 4332 1597.67 4326.48 1598.73 4326.48 1598.73 4326.54 1598.71 4331.11 1597.42 4335.82 1594.21 4341.31 1590.48 4350.97 1576.75 4354.55 1569.24Z" stroke="#000000" stroke-width="0.659666" fill="none" fill-rule="evenodd" transform="matrix(0.997205 -0.0872442 0.0871559 0.996195 -4367.62 -1010.81)"/><path d="M4356.46 1575.12C4356.46 1575.12 4336.98 1627.45 4318.77 1606.28 4318.77 1606.28 4311.26 1611.48 4322.86 1613.4 4322.86 1613.4 4314.22 1619.33 4311.71 1609.2 4311.71 1609.2 4310.39 1601.57 4321.24 1602.51 4321.38 1602.6 4332.65 1603.45 4337.63 1598.1 4337.63 1598.1 4344.65 1589.81 4349.82 1582.37 4351.81 1579.51 4354.65 1575.69 4355.09 1573.87Z" stroke="#000000" stroke-width="0.659666" fill="none" fill-rule="evenodd" transform="matrix(0.997205 -0.0872442 0.0871559 0.996195 -4367.62 -1010.81)"/><path d="M4355.7 1575.14C4354.43 1580.15 4344.38 1595.29 4344.38 1595.29 4336.94 1606.53 4327.33 1606.85 4327.33 1606.85 4327.25 1606.85 4335.09 1606.33 4343.34 1595.33 4343.34 1595.33 4354.12 1579.13 4355.34 1575.15" stroke="#000000" stroke-width="0.659666" fill="none" fill-rule="evenodd" transform="matrix(0.997205 -0.0872442 0.0871559 0.996195 -4367.62 -1010.81)"/><path d="M4374.07 1584.73C4373.71 1592.27 4374.45 1601.83 4377.39 1607.53 4379.24 1611.11 4382.91 1612.73 4382.91 1612.73 4394.75 1618.86 4385.15 1629.78 4382.34 1627.99 4382.34 1627.99 4387.15 1625.64 4380.89 1621.92 4380.89 1621.92 4366.15 1609.9 4367.49 1596.58L4370 1568.18 4372.92 1567.15C4372.92 1567.15 4374.05 1576.88 4374.07 1584.73Z" stroke="#000000" stroke-width="0.659666" fill="none" fill-rule="evenodd" transform="matrix(0.997205 -0.0872442 0.0871559 0.996195 -4367.62 -1010.81)"/><path d="M4370.95 1569C4369.66 1579.02 4370.52 1589.79 4371.83 1597.67 4373.06 1605.01 4373.69 1606.03 4374.39 1605.93 4374.39 1605.93 4373.65 1604.57 4372.52 1597.49 4371.13 1588.87 4370.43 1577.45 4372.35 1569.44Z" stroke="#000000" stroke-width="0.659666" fill="none" fill-rule="evenodd" transform="matrix(0.997205 -0.0872442 0.0871559 0.996195 -4367.62 -1010.81)"/><path d="M4353.1 1582.9C4352.15 1590.39 4349.76 1599.68 4345.88 1604.77 4343.44 1607.98 4339.54 1608.94 4339.54 1608.94 4326.81 1612.93 4334.37 1625.33 4337.46 1624.06 4337.46 1624.06 4333.12 1620.93 4339.94 1618.33 4339.94 1618.33 4356.53 1609.05 4357.54 1595.72L4359.98 1567.31 4357.29 1565.79C4357.29 1565.79 4354.48 1575.17 4353.1 1582.9Z" stroke="#000000" stroke-width="0.659666" fill="none" fill-rule="evenodd" transform="matrix(0.997205 -0.0872442 0.0871559 0.996195 -4367.62 -1010.81)"/><path d="M4358.91 1567.95C4358.45 1578.05 4355.73 1588.5 4353.07 1596.04 4350.59 1603.04 4349.62 1604.01 4348.95 1603.8 4348.95 1603.8 4350.08 1602.51 4352.42 1595.75 4355.28 1587.49 4357.96 1576.36 4357.45 1568.14Z" stroke="#000000" stroke-width="0.659666" fill="none" fill-rule="evenodd" transform="matrix(0.997205 -0.0872442 0.0871559 0.996195 -4367.62 -1010.81)"/><path d="M4352.87 1618.4C4356.41 1649.58 4363.47 1634.03 4367.62 1620.7 4362.35 1595.17 4354.64 1614.51 4352.87 1618.4Z" stroke="#000000" stroke-width="0.659666" fill="none" fill-rule="evenodd" transform="matrix(0.997205 -0.0872442 0.0871559 0.996195 -4367.62 -1010.81)"/><path d="M4360.22 1608.07C4360.22 1618.17 4359.13 1630.55 4359.13 1630.55 4359.13 1630.55 4360.38 1620.42 4362.03 1608.2L4361.1 1606.08Z" stroke="#000000" stroke-width="0.659666" fill="none" fill-rule="evenodd" transform="matrix(0.997205 -0.0872442 0.0871559 0.996195 -4367.62 -1010.81)"/><path d="M4370.77 1563.07 4367.72 1590.64C4364.8 1625 4374.02 1619.33 4374.02 1619.33 4364.42 1630.35 4361.31 1606.84 4361.31 1606.84L4361.19 1605.92 4360.93 1606.69C4360.93 1606.69 4353.79 1629.31 4346.24 1616.79 4346.24 1616.79 4354.34 1623.98 4357.41 1589.63L4359.21 1561.96Z" stroke="#000000" stroke-width="0.659666" fill="none" fill-rule="evenodd" transform="matrix(0.997205 -0.0872442 0.0871559 0.996195 -4367.62 -1010.81)"/><path d="M4361.89 1598.93C4363.42 1584.48 4363.84 1575.77 4360.52 1562.29L4370.61 1562.5C4363.85 1574.07 4363.86 1585.83 4361.89 1598.93Z" stroke="#000000" stroke-width="0.659666" fill="none" fill-rule="evenodd" transform="matrix(0.997205 -0.0872442 0.0871559 0.996195 -4367.62 -1010.81)"/><path d="M4361.31 1561.99C4363.03 1582.14 4367.67 1570.19 4369.84 1561.15 4364.69 1553.41 4361.31 1561.99 4361.31 1561.99Z" stroke="#000000" stroke-width="0.659666" fill="none" fill-rule="evenodd" transform="matrix(0.997205 -0.0872442 0.0871559 0.996195 -4367.62 -1010.81)"/><path d="M4365.42 1558.42C4365.41 1563.78 4365.13 1568.18 4365.13 1568.18 4365.13 1568.18 4365.64 1564.99 4366.5 1558.52Z" stroke="#000000" stroke-width="0.659666" fill="none" fill-rule="evenodd" transform="matrix(0.997205 -0.0872442 0.0871559 0.996195 -4367.62 -1010.81)"/><path d="M4369.01 1560.77C4373.46 1583.7 4377.21 1568.63 4378.14 1557.58 4371.97 1549.91 4369.01 1560.77 4369.01 1560.77Z" stroke="#000000" stroke-width="0.659666" fill="none" fill-rule="evenodd" transform="matrix(0.997205 -0.0872442 0.0871559 0.996195 -4367.62 -1010.81)"/><path d="M4373.64 1556.88C4374.33 1563.17 4373.89 1568.55 4373.89 1568.55 4373.89 1568.55 4374.71 1564.54 4374.73 1556.71Z" stroke="#000000" stroke-width="0.659666" fill="none" fill-rule="evenodd" transform="matrix(0.997205 -0.0872442 0.0871559 0.996195 -4367.62 -1010.81)"/><path d="M4362.65 1560.08C4353.78 1580.6 4353.2 1566.1 4354.16 1555.68 4362.19 1549.64 4362.65 1560.08 4362.65 1560.08Z" stroke="#000000" stroke-width="0.659666" fill="none" fill-rule="evenodd" transform="matrix(0.997205 -0.0872442 0.0871559 0.996195 -4367.62 -1010.81)"/><path d="M4359.49 1555.21C4357.34 1560.81 4355.89 1565.54 4355.89 1565.54 4355.89 1565.54 4356.54 1561.99 4358.08 1554.85Z" stroke="#000000" stroke-width="0.659666" fill="none" fill-rule="evenodd" transform="matrix(0.997205 -0.0872442 0.0871559 0.996195 -4367.62 -1010.81)"/><path d="M4271.17 1499.35C4271.17 1499.35 4268.69 1560.2 4265.05 1562.24 4265.05 1562.24 4279.86 1556.34 4281.9 1534.48 4281.9 1534.48 4286.25 1490.92 4286.51 1474.91 4271.68 1469.4 4271.16 1499.33 4271.17 1499.35Z" stroke="#000000" stroke-width="0.659666" fill="none" fill-rule="evenodd" transform="matrix(0.997205 -0.0872442 0.0871559 0.996195 -4367.62 -1010.81)"/><path d="M4277.17 1487.1C4280.12 1501.36 4274.66 1538.42 4274.66 1538.42 4274.66 1538.42 4281.41 1499.64 4278.57 1485.51Z" stroke="#000000" stroke-width="0.659666" fill="none" fill-rule="evenodd" transform="matrix(0.997205 -0.0872442 0.0871559 0.996195 -4367.62 -1010.81)"/><path d="M4285.19 1496.43C4285.19 1496.43 4284.46 1505.85 4283.5 1517.61 4282.69 1527.6 4281.85 1539.22 4279.7 1548.91 4276.46 1563.53 4269.46 1569.89 4267.96 1570.87 4267.96 1570.87 4292.17 1568.16 4294.49 1543.05 4294.49 1543.05 4295.68 1532.42 4297.01 1519.18 4298.04 1508.88 4299.16 1497.03 4299.85 1487.39 4300.19 1482.74 4300.42 1478.61 4300.5 1475.4 4294.36 1477.36 4290.3 1470.51 4287.98 1475.39 4285.81 1480 4285.19 1496.42 4285.19 1496.42Z" stroke="#000000" stroke-width="0.659666" fill="none" fill-rule="evenodd" transform="matrix(0.997205 -0.0872442 0.0871559 0.996195 -4367.62 -1010.81)"/><path d="M4291.53 1482.32C4294.3 1498.63 4288.35 1541.21 4288.35 1541.21 4288.35 1541.21 4295.61 1496.65 4292.96 1480.49Z" stroke="#000000" stroke-width="0.659666" fill="none" fill-rule="evenodd" transform="matrix(0.997205 -0.0872442 0.0871559 0.996195 -4367.62 -1010.81)"/><path d="M4299.9 1486.3C4299.9 1486.3 4298.08 1510.36 4296.05 1527.97 4295.29 1534.48 4295.09 1541.13 4294.23 1546.4 4292.94 1554.35 4290.98 1559.62 4289.92 1560.21 4289.92 1560.21 4305.75 1554.72 4307.78 1532.86 4307.78 1532.86 4311.66 1495.56 4311.93 1479.55 4300.07 1482.71 4299.9 1486.3 4299.9 1486.3Z" stroke="#000000" stroke-width="0.659666" fill="none" fill-rule="evenodd" transform="matrix(0.997205 -0.0872442 0.0871559 0.996195 -4367.62 -1010.81)"/><path d="M4303.14 1484.76C4306.09 1499.02 4300.55 1536.8 4300.55 1536.8 4300.55 1536.8 4307.35 1497.35 4304.51 1483.23Z" stroke="#000000" stroke-width="0.659666" fill="none" fill-rule="evenodd" transform="matrix(0.997205 -0.0872442 0.0871559 0.996195 -4367.62 -1010.81)"/><path d="M4311.64 1488.02C4311.64 1488.02 4310.79 1499.59 4309.81 1511.02 4308.48 1526.31 4307.02 1544.45 4304.94 1545.62 4304.94 1545.62 4318.14 1541.32 4320.17 1519.46 4320.17 1519.46 4322.83 1493.77 4323.1 1477.75 4311.23 1480.92 4311.64 1488.02 4311.64 1488.02Z" stroke="#000000" stroke-width="0.659666" fill="none" fill-rule="evenodd" transform="matrix(0.997205 -0.0872442 0.0871559 0.996195 -4367.62 -1010.81)"/><path d="M4315.31 1482.2C4318.26 1496.45 4314.68 1530.24 4314.68 1530.24 4314.68 1530.24 4319.04 1494.58 4316.21 1480.45Z" stroke="#000000" stroke-width="0.659666" fill="none" fill-rule="evenodd" transform="matrix(0.997205 -0.0872442 0.0871559 0.996195 -4367.62 -1010.81)"/><path d="M4322.67 1485.78C4322.67 1485.78 4322.05 1496.58 4321.3 1505.34 4320.3 1517.06 4320.36 1530.49 4318.31 1531.35 4318.31 1531.35 4330.25 1528.81 4331.83 1512.04 4331.83 1512.04 4334.27 1492.33 4334.21 1480.03 4322.43 1482.22 4322.67 1485.78 4322.67 1485.78Z" stroke="#000000" stroke-width="0.659666" fill="none" fill-rule="evenodd" transform="matrix(0.997205 -0.0872442 0.0871559 0.996195 -4367.62 -1010.81)"/><path d="M4326.78 1486.84C4330.01 1497.86 4326.55 1520.21 4326.55 1520.21 4326.55 1520.21 4331.17 1497.36 4328.06 1486.44Z" stroke="#000000" stroke-width="0.659666" fill="none" fill-rule="evenodd" transform="matrix(0.997205 -0.0872442 0.0871559 0.996195 -4367.62 -1010.81)"/><path d="M4334.43 1482.56C4334.43 1482.56 4334.03 1487.97 4333.49 1494.31 4332.76 1502.79 4333.65 1512.7 4331.78 1513.29 4331.78 1513.29 4342.06 1511.48 4343.24 1499.34 4343.24 1499.34 4344.62 1488.82 4344.36 1479.9 4333.6 1481.3 4334.43 1482.56 4334.43 1482.56Z" stroke="#000000" stroke-width="0.659666" fill="none" fill-rule="evenodd" transform="matrix(0.997205 -0.0872442 0.0871559 0.996195 -4367.62 -1010.81)"/><path d="M4338.19 1480.99C4341.34 1489.04 4338.55 1505.19 4338.55 1505.19 4338.55 1505.19 4342.39 1488.69 4339.35 1480.73Z" stroke="#000000" stroke-width="0.659666" fill="none" fill-rule="evenodd" transform="matrix(0.997205 -0.0872442 0.0871559 0.996195 -4367.62 -1010.81)"/><path d="M4348.38 1484.17 4357.45 1461.23C4345.89 1468.61 4340.94 1467.14 4340.94 1467.14 4336.45 1466.88 4333.03 1460.92 4333.03 1460.92 4330.07 1456.67 4326.27 1456.67 4326.27 1456.67 4319.3 1456.11 4318 1452.62 4318 1452.62 4314.16 1446.83 4322.56 1440.93 4322.56 1440.93 4329.28 1435.4 4330.53 1431.85 4330.53 1431.85 4316.82 1421.03 4302.54 1414.63 4285.7 1427.24L4276.65 1452.5 4278.05 1467.03C4278.05 1467.03 4282 1496.11 4288.65 1473.83 4288.65 1473.83 4291.16 1500.74 4299.53 1480.77 4299.53 1480.77 4300.66 1497.04 4306.87 1483.77 4306.87 1483.77 4307.43 1501.22 4317.1 1481.56 4317.1 1481.56 4314.56 1501.96 4326.24 1483.77 4326.24 1483.77 4324.82 1499.45 4335.12 1483.72 4334.26 1484.26 4334.48 1502.18 4341.23 1484.64 4341.23 1484.64 4342.47 1501.93 4348.38 1484.17Z" stroke="#000000" stroke-width="0.659666" fill="none" fill-rule="evenodd" transform="matrix(0.997205 -0.0872442 0.0871559 0.996195 -4367.62 -1010.81)"/><path d="M4278.92 1462.57C4279.3 1469.83 4280.07 1478.08 4279.4 1482.71 4277.38 1496.43 4268.78 1499.67 4268.78 1499.67 4268.78 1499.67 4271.29 1494.22 4271.06 1487.01 4270.98 1484.92 4270.26 1481.42 4270.2 1479.04 4270.09 1473.87 4271.29 1467.1 4270.66 1463.24L4273.05 1461.94 4276.79 1462.75Z" stroke="#000000" stroke-width="0.659666" fill="none" fill-rule="evenodd" transform="matrix(0.997205 -0.0872442 0.0871559 0.996195 -4367.62 -1010.81)"/><path d="M4274.1 1462.17C4273.86 1472.68 4274.1 1483.69 4274.1 1483.69 4274.1 1483.69 4274.57 1472.61 4275.53 1462.46Z" stroke="#000000" stroke-width="0.659666" fill="none" fill-rule="evenodd" transform="matrix(0.997205 -0.0872442 0.0871559 0.996195 -4367.62 -1010.81)"/><path d="M4284.48 1429.86C4284.86 1437.12 4283 1446.42 4283 1451.1 4282.97 1468.48 4268.08 1466.36 4267.8 1465.45 4267.8 1465.45 4274.56 1457.95 4274.31 1450.73 4275.17 1443.26 4275.61 1432.17 4275.2 1429.54L4277.58 1428.24 4281.33 1429.05Z" stroke="#000000" stroke-width="0.659666" fill="none" fill-rule="evenodd" transform="matrix(0.997205 -0.0872442 0.0871559 0.996195 -4367.62 -1010.81)"/><path d="M4278.65 1428.47C4278.4 1438.97 4278.34 1452.82 4278.34 1452.82 4278.34 1452.82 4279.13 1438.91 4280.07 1428.75Z" stroke="#000000" stroke-width="0.659666" fill="none" fill-rule="evenodd" transform="matrix(0.997205 -0.0872442 0.0871559 0.996195 -4367.62 -1010.81)"/><path d="M4322.45 1411.96C4319.57 1410.5 4318.64 1408.55 4316.07 1407.89 4296.91 1402.97 4283.78 1417.82 4283.78 1417.82 4283.43 1418.49 4282.6 1419.4 4282.15 1419.94 4281.34 1420.88 4280.85 1421.36 4280.23 1422.13 4273.92 1430.02 4268.5 1426.9 4268.5 1426.9 4268.5 1426.9 4272.79 1443.31 4306.18 1419.73 4306.84 1419.27 4307.5 1418.79 4308.17 1418.3 4308.17 1418.3 4310.16 1415.03 4322.45 1411.96Z" stroke="#000000" stroke-width="0.659666" fill="none" fill-rule="evenodd" transform="matrix(0.997205 -0.0872442 0.0871559 0.996195 -4367.62 -1010.81)"/><path d="M4321.26 1411.95C4321.32 1411.2 4303.72 1406.66 4288.14 1419.08 4288.14 1419.08 4302.08 1404.88 4320.96 1411.04 4322.85 1412.17 4321.61 1411.42 4322.09 1411.73Z" stroke="#000000" stroke-width="0.659666" fill="none" fill-rule="evenodd" transform="matrix(0.997205 -0.0872442 0.0871559 0.996195 -4367.62 -1010.81)"/><path d="M4333.54 1417.06C4332.44 1415.05 4328.83 1413.46 4327.78 1413.23 4314.25 1408.76 4303.22 1423.46 4294.05 1425.49 4293.93 1425.16 4291.84 1427.65 4295.94 1428.52 4298.68 1429.11 4303.62 1429.87 4315.95 1425.2 4321.67 1423.01 4336.92 1424.05 4333.54 1417.06Z" stroke="#000000" stroke-width="0.659666" fill="none" fill-rule="evenodd" transform="matrix(0.997205 -0.0872442 0.0871559 0.996195 -4367.62 -1010.81)"/><path d="M4328.7 1413.81C4329.9 1414.22 4330.27 1414.21 4330.3 1414.31 4330.34 1414.51 4328.87 1414.47 4328.87 1414.47 4328.87 1414.47 4317.88 1414.1 4307.39 1422.04 4318.81 1412.86 4329.09 1414.24 4328.7 1413.81Z" stroke="#000000" stroke-width="0.659666" fill="none" fill-rule="evenodd" transform="matrix(0.997205 -0.0872442 0.0871559 0.996195 -4367.62 -1010.81)"/><path d="M4303.88 1442.47C4301.7 1452.72 4319.35 1440.05 4320.79 1439.23 4329.52 1433.86 4335.04 1430.94 4334.1 1419.63 4333.96 1405.66 4307.17 1431.12 4303.88 1442.47Z" stroke="#000000" stroke-width="0.659666" fill="none" fill-rule="evenodd" transform="matrix(0.997205 -0.0872442 0.0871559 0.996195 -4367.62 -1010.81)"/><path d="M4331.57 1415.34C4330.43 1421.48 4308.38 1441.17 4308.38 1441.17 4308.38 1441.17 4329.93 1423.08 4332.49 1415.86Z" stroke="#000000" stroke-width="0.659666" fill="none" fill-rule="evenodd" transform="matrix(0.997205 -0.0872442 0.0871559 0.996195 -4367.62 -1010.81)"/><path d="M4347.12 1474.67C4338.34 1485.07 4338.98 1473.49 4338.72 1473.36 4338.72 1473.36 4331.31 1491.15 4329.32 1468.19 4329.32 1468.19 4320.17 1493.36 4316.98 1466.33 4317.14 1466.76 4308.81 1485.33 4310.52 1463.44 4308.38 1469.72 4308.4 1473.07 4305.2 1473.3 4303.59 1473.23 4302.03 1470.2 4301.19 1460.96 4300.98 1461.22 4289.65 1478.68 4290.38 1453.09 4290.38 1453.09 4282.74 1472.93 4282.54 1456.11" stroke="#000000" stroke-width="0.659666" fill="none" fill-rule="evenodd" transform="matrix(0.997205 -0.0872442 0.0871559 0.996195 -4367.62 -1010.81)"/><path d="M4305.48 1446.44C4308.42 1470.81 4313.95 1452.1 4313.54 1451.1 4314.3 1467.55 4320.71 1459.09 4321.22 1457.05 4322.77 1471.91 4329.15 1463.93 4330.14 1459.96 4332.25 1478.65 4336.76 1466.69 4336.42 1466.54 4336.42 1466.54 4337.41 1475.16 4341.17 1468.88 4341.17 1468.88 4341.3 1477.93 4348.02 1469.58 4348.02 1469.58 4349.23 1476.72 4354.79 1470.28" stroke="#000000" stroke-width="0.659666" fill="none" fill-rule="evenodd" transform="matrix(0.997205 -0.0872442 0.0871559 0.996195 -4367.62 -1010.81)"/><path d="M4297.28 1428.72C4297.28 1428.72 4294.87 1456.87 4304.64 1440.46" stroke="#000000" stroke-width="0.659666" fill="none" fill-rule="evenodd" transform="matrix(0.997205 -0.0872442 0.0871559 0.996195 -4367.62 -1010.81)"/><path d="M4283.61 1444.06C4283.61 1444.06 4293.37 1443.63 4295.73 1428.4" stroke="#000000" stroke-width="0.659666" fill="none" fill-rule="evenodd" transform="matrix(0.997205 -0.0872442 0.0871559 0.996195 -4367.62 -1010.81)"/><path d="M4285.89 1461.78C4285.67 1466.78 4284.9 1473.22 4284.9 1473.22 4285.22 1472.46 4286.66 1468.73 4286.89 1460.61Z" stroke="#000000" stroke-width="0.659666" fill="none" fill-rule="evenodd" transform="matrix(0.997205 -0.0872442 0.0871559 0.996195 -4367.62 -1010.81)"/><path d="M4298.2 1464.72C4298.2 1464.72 4296.36 1475.6 4295.01 1481.15 4295.3 1481.22 4297.61 1473.16 4300.23 1462.33 4298.43 1464.78 4298.2 1464.72 4298.2 1464.72Z" stroke="#000000" stroke-width="0.659666" fill="none" fill-rule="evenodd" transform="matrix(0.997205 -0.0872442 0.0871559 0.996195 -4367.62 -1010.81)"/><path d="M4304.38 1473.19C4304.13 1477.42 4303.09 1481.65 4303.09 1481.65 4303.09 1481.65 4303.89 1481.77 4305.47 1473.33Z" stroke="#000000" stroke-width="0.659666" fill="none" fill-rule="evenodd" transform="matrix(0.997205 -0.0872442 0.0871559 0.996195 -4367.62 -1010.81)"/><path d="M4311.61 1474.13C4309.76 1483.1 4310.02 1486.03 4310.02 1486.03 4310.13 1485.73 4309.22 1486.81 4313.04 1473.47 4311.96 1474.54 4311.61 1474.13 4311.61 1474.13Z" stroke="#000000" stroke-width="0.659666" fill="none" fill-rule="evenodd" transform="matrix(0.997205 -0.0872442 0.0871559 0.996195 -4367.62 -1010.81)"/><path d="M4320.96 1478.62C4319.74 1487.08 4318.92 1488.27 4318.82 1488.43 4318.82 1488.43 4320.3 1487.61 4321.84 1478.78Z" stroke="#000000" stroke-width="0.659666" fill="none" fill-rule="evenodd" transform="matrix(0.997205 -0.0872442 0.0871559 0.996195 -4367.62 -1010.81)"/><path d="M4330.88 1477.06C4329.5 1485.08 4328.15 1487.91 4328.15 1487.91 4328.28 1487.75 4330.47 1484.3 4331.56 1478.6Z" stroke="#000000" stroke-width="0.659666" fill="none" fill-rule="evenodd" transform="matrix(0.997205 -0.0872442 0.0871559 0.996195 -4367.62 -1010.81)"/><path d="M4339 1477.66C4338.01 1485.63 4336.65 1487.96 4336.65 1487.96 4336.83 1487.76 4338.99 1484.01 4339.57 1478.87Z" stroke="#000000" stroke-width="0.659666" fill="none" fill-rule="evenodd" transform="matrix(0.997205 -0.0872442 0.0871559 0.996195 -4367.62 -1010.81)"/><path d="M4346.81 1474.65C4347 1478.18 4345.33 1484.32 4343.54 1488.15 4344.46 1488.32 4347.96 1477.77 4347.77 1474.25Z" stroke="#000000" stroke-width="0.659666" fill="none" fill-rule="evenodd" transform="matrix(0.997205 -0.0872442 0.0871559 0.996195 -4367.62 -1010.81)"/><path d="M4288.6 1473.87C4288.89 1473.41 4289.44 1470.08 4291.04 1463.08" stroke="#000000" stroke-width="0.659666" fill="none" fill-rule="evenodd" transform="matrix(0.997205 -0.0872442 0.0871559 0.996195 -4367.62 -1010.81)"/><path d="M4299.37 1481.13C4299.66 1480.67 4300.9 1476.47 4302.5 1469.47" stroke="#000000" stroke-width="0.659666" fill="none" fill-rule="evenodd" transform="matrix(0.997205 -0.0872442 0.0871559 0.996195 -4367.62 -1010.81)"/><path d="M4306.81 1483.88C4307.11 1483.42 4308.94 1479.17 4310.53 1472.16" stroke="#000000" stroke-width="0.659666" fill="none" fill-rule="evenodd" transform="matrix(0.997205 -0.0872442 0.0871559 0.996195 -4367.62 -1010.81)"/><path d="M4316.21 1483.84C4316.39 1483.37 4316.93 1482.56 4318.95 1475.59" stroke="#000000" stroke-width="0.659666" fill="none" fill-rule="evenodd" transform="matrix(0.997205 -0.0872442 0.0871559 0.996195 -4367.62 -1010.81)"/><path d="M4325.92 1484.46C4326.11 1483.99 4327.97 1480.4 4329.99 1473.44" stroke="#000000" stroke-width="0.659666" fill="none" fill-rule="evenodd" transform="matrix(0.997205 -0.0872442 0.0871559 0.996195 -4367.62 -1010.81)"/><path d="M4334.62 1484.82C4334.8 1484.37 4336.57 1480.92 4338.59 1473.94" stroke="#000000" stroke-width="0.659666" fill="none" fill-rule="evenodd" transform="matrix(0.997205 -0.0872442 0.0871559 0.996195 -4367.62 -1010.81)"/><path d="M4341.03 1485.62C4341.21 1485.17 4340.85 1485.41 4342.86 1478.44" stroke="#000000" stroke-width="0.659666" fill="none" fill-rule="evenodd" transform="matrix(0.997205 -0.0872442 0.0871559 0.996195 -4367.62 -1010.81)"/><path d="M4299.17 1445.72C4296.87 1452.88 4295.25 1460.75 4295.25 1460.75 4295.25 1460.75 4298.47 1452.75 4300.57 1445.32Z" stroke="#000000" stroke-width="0.659666" fill="none" fill-rule="evenodd" transform="matrix(0.997205 -0.0872442 0.0871559 0.996195 -4367.62 -1010.81)"/><path d="M4286.12 1443.53C4285.91 1449.88 4284.85 1456.11 4284.85 1456.11 4284.85 1456.11 4286.79 1448 4287.23 1442.98Z" stroke="#000000" stroke-width="0.659666" fill="none" fill-rule="evenodd" transform="matrix(0.997205 -0.0872442 0.0871559 0.996195 -4367.62 -1010.81)"/><path d="M4307.99 1457.26C4306.03 1464.53 4305.08 1469.61 4305.08 1469.61 4305.08 1469.61 4306.7 1463.17 4308.27 1457.94Z" stroke="#000000" stroke-width="0.659666" fill="none" fill-rule="evenodd" transform="matrix(0.997205 -0.0872442 0.0871559 0.996195 -4367.62 -1010.81)"/><path d="M4315.89 1460.38C4314.6 1465.81 4312.66 1468.45 4312.66 1468.45 4312.66 1468.45 4314.77 1463.35 4314.88 1459.25Z" stroke="#000000" stroke-width="0.659666" fill="none" fill-rule="evenodd" transform="matrix(0.997205 -0.0872442 0.0871559 0.996195 -4367.62 -1010.81)"/><path d="M4323.43 1464.55C4323.5 1469.62 4321.98 1475.24 4321.98 1475.24 4321.98 1475.24 4324.02 1470.96 4324.36 1465.54Z" stroke="#000000" stroke-width="0.659666" fill="none" fill-rule="evenodd" transform="matrix(0.997205 -0.0872442 0.0871559 0.996195 -4367.62 -1010.81)"/><path d="M4335.09 1470.04C4334.47 1475.77 4333.45 1477.86 4333.5 1477.86 4333.48 1477.85 4335.5 1474.91 4335.66 1468.87Z" stroke="#000000" stroke-width="0.659666" fill="none" fill-rule="evenodd" transform="matrix(0.997205 -0.0872442 0.0871559 0.996195 -4367.62 -1010.81)"/><path d="M4342.85 1472.8C4341.14 1475.77 4340.96 1477.72 4340.99 1477.72 4342.05 1475.53 4342.65 1473.24 4342.85 1472.8Z" stroke="#000000" stroke-width="0.659666" fill="none" fill-rule="evenodd" transform="matrix(0.997205 -0.0872442 0.0871559 0.996195 -4367.62 -1010.81)"/><path d="M4290.23 1453.54C4290.52 1453.09 4294.68 1435.82 4296.27 1428.82" stroke="#000000" stroke-width="0.659666" fill="none" fill-rule="evenodd" transform="matrix(0.997205 -0.0872442 0.0871559 0.996195 -4367.62 -1010.81)"/><path d="M4301.03 1461.25C4301.57 1460.86 4304.94 1454.25 4305.47 1446.64" stroke="#000000" stroke-width="0.659666" fill="none" fill-rule="evenodd" transform="matrix(0.997205 -0.0872442 0.0871559 0.996195 -4367.62 -1010.81)"/><path d="M4310.39 1463.77C4310.56 1463.21 4311.79 1460.17 4313.36 1453.05" stroke="#000000" stroke-width="0.659666" fill="none" fill-rule="evenodd" transform="matrix(0.997205 -0.0872442 0.0871559 0.996195 -4367.62 -1010.81)"/><path d="M4316.85 1466.76C4317.1 1465.9 4317.46 1464.47 4317.66 1461.08" stroke="#000000" stroke-width="0.659666" fill="none" fill-rule="evenodd" transform="matrix(0.997205 -0.0872442 0.0871559 0.996195 -4367.62 -1010.81)"/><path d="M4329.24 1468.54C4329.6 1467.3 4329.89 1464.04 4329.93 1461.27" stroke="#000000" stroke-width="0.659666" fill="none" fill-rule="evenodd" transform="matrix(0.997205 -0.0872442 0.0871559 0.996195 -4367.62 -1010.81)"/><path d="M4338.49 1474.7C4338.67 1473.45 4338.68 1473.38 4339.05 1471.02" stroke="#000000" stroke-width="0.659666" fill="none" fill-rule="evenodd" transform="matrix(0.997205 -0.0872442 0.0871559 0.996195 -4367.62 -1010.81)"/><path d="M4288.81 1429.86C4287.09 1438.29 4285.77 1440.55 4285.67 1440.8 4285.67 1440.8 4288.25 1437.65 4289.78 1429.55Z" stroke="#000000" stroke-width="0.659666" fill="none" fill-rule="evenodd" transform="matrix(0.997205 -0.0872442 0.0871559 0.996195 -4367.62 -1010.81)"/><path d="M4304.27 1428.59C4301.46 1434.48 4299.96 1442.33 4299.96 1442.33 4299.96 1442.33 4303.57 1431.1 4305.34 1428.51Z" stroke="#000000" stroke-width="0.659666" fill="none" fill-rule="evenodd" transform="matrix(0.997205 -0.0872442 0.0871559 0.996195 -4367.62 -1010.81)"/><path d="M4309.46 1445.64C4309.81 1452.04 4309.64 1455.46 4309.64 1455.46 4309.64 1455.46 4310.46 1448.79 4310.41 1445.18Z" stroke="#000000" stroke-width="0.659666" fill="none" fill-rule="evenodd" transform="matrix(0.997205 -0.0872442 0.0871559 0.996195 -4367.62 -1010.81)"/><path d="M4317.52 1452.2C4317.91 1454.68 4317.28 1459.37 4317.28 1459.37 4317.28 1459.37 4318.73 1457.08 4318.07 1452.74 4318.07 1452.74 4318.28 1452.51 4317.52 1452.2Z" stroke="#000000" stroke-width="0.659666" fill="none" fill-rule="evenodd" transform="matrix(0.997205 -0.0872442 0.0871559 0.996195 -4367.62 -1010.81)"/><path d="M4325.41 1456.62C4325.75 1460.5 4324.98 1463.51 4324.98 1463.51 4324.98 1463.51 4326.62 1460.28 4326.89 1456.79Z" stroke="#000000" stroke-width="0.659666" fill="none" fill-rule="evenodd" transform="matrix(0.997205 -0.0872442 0.0871559 0.996195 -4367.62 -1010.81)"/><path d="M4333.4 1461.68C4333.75 1465.56 4333.46 1468.61 4333.46 1468.61 4333.46 1468.61 4334.2 1466.71 4334.47 1463.23Z" stroke="#000000" stroke-width="0.659666" fill="none" fill-rule="evenodd" transform="matrix(0.997205 -0.0872442 0.0871559 0.996195 -4367.62 -1010.81)"/><path d="M4338.01 1466.19C4338.75 1468.4 4338.7 1469.48 4338.76 1469.91 4339.04 1469.69 4339.11 1468 4338.72 1466.67Z" stroke="#000000" stroke-width="0.659666" fill="none" fill-rule="evenodd" transform="matrix(0.997205 -0.0872442 0.0871559 0.996195 -4367.62 -1010.81)"/><path d="M4345 1466.99C4345.55 1467.39 4344.26 1471.73 4344.25 1471.83 4344.21 1471.77 4345.06 1469.74 4345.77 1466.9Z" stroke="#000000" stroke-width="0.659666" fill="none" fill-rule="evenodd" transform="matrix(0.997205 -0.0872442 0.0871559 0.996195 -4367.62 -1010.81)"/><path d="M4471.53 1517.63C4471.53 1517.63 4463.42 1577.99 4466.64 1580.61 4466.64 1580.61 4453.07 1572.25 4454.86 1550.35 4454.86 1550.35 4458.14 1506.7 4460.66 1490.89 4476.22 1488.04 4471.54 1517.61 4471.53 1517.63Z" stroke="#000000" stroke-width="0.659666" fill="none" fill-rule="evenodd" transform="matrix(0.997205 -0.0872442 0.0871559 0.996195 -4367.62 -1010.81)"/><path d="M4467.75 1504.52C4462.38 1518.05 4461.32 1555.51 4461.32 1555.51 4461.32 1555.51 4461.4 1516.14 4466.64 1502.73Z" stroke="#000000" stroke-width="0.659666" fill="none" fill-rule="evenodd" transform="matrix(0.997205 -0.0872442 0.0871559 0.996195 -4367.62 -1010.81)"/><path d="M4458.23 1512.31C4458.23 1512.31 4457.32 1521.72 4456.23 1533.45 4455.29 1543.45 4454.09 1555.04 4454.53 1564.95 4455.2 1579.9 4460.98 1587.39 4462.28 1588.62 4462.28 1588.62 4438.91 1581.74 4440.98 1556.61 4440.98 1556.61 4441.66 1545.93 4442.64 1532.66 4443.42 1522.35 4444.37 1510.48 4445.36 1500.86 4445.84 1496.22 4446.33 1492.11 4446.79 1488.95 4452.51 1491.93 4457.7 1485.89 4459.13 1491.11 4460.48 1496.03 4458.23 1512.31 4458.23 1512.31Z" stroke="#000000" stroke-width="0.659666" fill="none" fill-rule="evenodd" transform="matrix(0.997205 -0.0872442 0.0871559 0.996195 -4367.62 -1010.81)"/><path d="M4454.43 1497.31C4448.88 1512.9 4447.35 1555.87 4447.35 1555.87 4447.35 1555.87 4447.94 1510.71 4453.35 1495.26Z" stroke="#000000" stroke-width="0.659666" fill="none" fill-rule="evenodd" transform="matrix(0.997205 -0.0872442 0.0871559 0.996195 -4367.62 -1010.81)"/><path d="M4445.5 1499.78C4445.5 1499.78 4443.11 1523.8 4442.07 1541.49 4441.67 1548.03 4440.73 1554.61 4440.65 1559.94 4440.54 1568.01 4441.57 1573.54 4442.51 1574.31 4442.51 1574.31 4427.87 1566.16 4429.66 1544.26 4429.66 1544.26 4432.3 1506.86 4434.82 1491.05 4445.96 1496.22 4445.5 1499.78 4445.5 1499.78Z" stroke="#000000" stroke-width="0.659666" fill="none" fill-rule="evenodd" transform="matrix(0.997205 -0.0872442 0.0871559 0.996195 -4367.62 -1010.81)"/><path d="M4442.58 1497.7C4437.21 1511.22 4436.11 1549.4 4436.11 1549.4 4436.11 1549.4 4436.26 1509.36 4441.49 1495.95Z" stroke="#000000" stroke-width="0.659666" fill="none" fill-rule="evenodd" transform="matrix(0.997205 -0.0872442 0.0871559 0.996195 -4367.62 -1010.81)"/><path d="M4433.64 1499.43C4433.64 1499.43 4432.47 1510.97 4431.45 1522.4 4430.1 1537.69 4428.4 1555.82 4430.24 1557.31 4430.24 1557.31 4417.99 1550.79 4419.79 1528.91 4419.79 1528.91 4421.62 1503.14 4424.13 1487.33 4435.27 1492.51 4433.64 1499.43 4433.64 1499.43Z" stroke="#000000" stroke-width="0.659666" fill="none" fill-rule="evenodd" transform="matrix(0.997205 -0.0872442 0.0871559 0.996195 -4367.62 -1010.81)"/><path d="M4431.05 1493.07C4425.68 1506.59 4423.33 1540.49 4423.33 1540.49 4423.33 1540.49 4425.23 1504.61 4430.46 1491.2Z" stroke="#000000" stroke-width="0.659666" fill="none" fill-rule="evenodd" transform="matrix(0.997205 -0.0872442 0.0871559 0.996195 -4367.62 -1010.81)"/><path d="M4423.17 1495.31C4423.17 1495.31 4421.9 1506.05 4421.12 1514.81 4420.08 1526.53 4417.7 1539.75 4419.56 1540.94 4419.56 1540.94 4408.25 1536.36 4409.59 1519.57 4409.59 1519.57 4410.61 1499.75 4412.8 1487.65 4424.02 1491.85 4423.17 1495.31 4423.17 1495.31Z" stroke="#000000" stroke-width="0.659666" fill="none" fill-rule="evenodd" transform="matrix(0.997205 -0.0872442 0.0871559 0.996195 -4367.62 -1010.81)"/><path d="M4418.94 1495.64C4413.85 1505.92 4413.37 1528.55 4413.37 1528.55 4413.37 1528.55 4412.8 1505.24 4417.75 1495.04Z" stroke="#000000" stroke-width="0.659666" fill="none" fill-rule="evenodd" transform="matrix(0.997205 -0.0872442 0.0871559 0.996195 -4367.62 -1010.81)"/><path d="M4412.15 1490.1C4412.15 1490.1 4411.6 1495.5 4411.04 1501.83 4410.28 1510.32 4407.7 1519.93 4409.43 1520.82 4409.43 1520.82 4399.62 1517.25 4400.56 1505.1 4400.56 1505.1 4401.03 1494.49 4402.83 1485.76 4413.19 1489 4412.15 1490.1 4412.15 1490.1Z" stroke="#000000" stroke-width="0.659666" fill="none" fill-rule="evenodd" transform="matrix(0.997205 -0.0872442 0.0871559 0.996195 -4367.62 -1010.81)"/><path d="M4408.72 1487.89C4404.22 1495.26 4404.17 1511.66 4404.17 1511.66 4404.17 1511.66 4403.25 1494.75 4407.63 1487.44Z" stroke="#000000" stroke-width="0.659666" fill="none" fill-rule="evenodd" transform="matrix(0.997205 -0.0872442 0.0871559 0.996195 -4367.62 -1010.81)"/><path d="M4398.13 1489.26 4393.17 1465.09C4403.27 1474.37 4408.41 1473.78 4408.41 1473.78 4412.88 1474.3 4417.28 1469.03 4417.28 1469.03 4420.92 1465.36 4424.67 1466.02 4424.67 1466.02 4431.64 1466.67 4433.52 1463.46 4433.52 1463.46 4438.31 1458.44 4431.06 1451.16 4431.06 1451.16 4425.41 1444.55 4424.78 1440.84 4424.78 1440.84 4440.16 1432.55 4455.34 1428.74 4469.73 1444.09L4474.27 1470.53 4470.36 1484.59C4470.36 1484.59 4461.42 1512.56 4458.74 1489.45 4458.74 1489.45 4451.6 1515.52 4446.83 1494.4 4446.83 1494.4 4442.89 1510.22 4439.08 1496.07 4439.08 1496.07 4435.49 1513.16 4429.39 1492.11 4429.39 1492.11 4428.35 1512.66 4419.99 1492.7 4419.99 1492.7 4418.68 1508.39 4411.26 1491.11 4412.02 1491.79 4408.68 1509.4 4405.1 1490.95 4405.1 1490.95 4400.86 1507.78 4398.13 1489.26Z" stroke="#000000" stroke-width="0.659666" fill="none" fill-rule="evenodd" transform="matrix(0.997205 -0.0872442 0.0871559 0.996195 -4367.62 -1010.81)"/><path d="M4470.28 1480.06C4468.64 1487.15 4466.45 1495.13 4466.31 1499.81 4465.91 1513.68 4473.82 1518.35 4473.82 1518.35 4473.82 1518.35 4472.29 1512.56 4473.79 1505.49 4474.22 1503.46 4475.54 1500.13 4476 1497.79 4477.01 1492.72 4477.01 1485.84 4478.3 1482.16L4476.16 1480.46 4472.34 1480.61Z" stroke="#000000" stroke-width="0.659666" fill="none" fill-rule="evenodd" transform="matrix(0.997205 -0.0872442 0.0871559 0.996195 -4367.62 -1010.81)"/><path d="M4475.08 1480.51C4473.5 1490.9 4471.35 1501.7 4471.35 1501.7 4471.35 1501.7 4472.8 1490.72 4473.63 1480.54Z" stroke="#000000" stroke-width="0.659666" fill="none" fill-rule="evenodd" transform="matrix(0.997205 -0.0872442 0.0871559 0.996195 -4367.62 -1010.81)"/><path d="M4470.47 1446.87C4468.84 1453.96 4469.06 1463.43 4468.26 1468.05 4465.27 1485.16 4480.29 1485.67 4480.73 1484.82 4480.73 1484.82 4475.39 1476.25 4476.87 1469.19 4477.32 1461.68 4478.8 1450.69 4479.67 1448.17L4477.55 1446.48 4473.72 1446.63Z" stroke="#000000" stroke-width="0.659666" fill="none" fill-rule="evenodd" transform="matrix(0.997205 -0.0872442 0.0871559 0.996195 -4367.62 -1010.81)"/><path d="M4476.47 1446.53C4474.88 1456.92 4472.55 1470.55 4472.55 1470.55 4472.55 1470.55 4474.18 1456.73 4475.02 1446.55Z" stroke="#000000" stroke-width="0.659666" fill="none" fill-rule="evenodd" transform="matrix(0.997205 -0.0872442 0.0871559 0.996195 -4367.62 -1010.81)"/><path d="M4436.19 1422.65C4439.28 1421.7 4440.53 1419.95 4443.18 1419.75 4462.9 1418.24 4473.25 1435.14 4473.25 1435.14 4473.48 1435.85 4474.13 1436.9 4474.5 1437.51 4475.13 1438.58 4475.54 1439.13 4476 1440.01 4480.85 1448.87 4486.72 1446.74 4486.72 1446.74 4486.72 1446.74 4479.66 1462.15 4450.86 1433.13 4450.29 1432.56 4449.73 1431.97 4449.15 1431.37 4449.15 1431.37 4447.76 1427.81 4436.19 1422.65Z" stroke="#000000" stroke-width="0.659666" fill="none" fill-rule="evenodd" transform="matrix(0.997205 -0.0872442 0.0871559 0.996195 -4367.62 -1010.81)"/><path d="M4437.37 1422.85C4437.44 1422.1 4455.56 1420.68 4468.74 1435.62 4468.74 1435.62 4457.48 1419.21 4437.82 1422 4435.76 1422.78 4437.12 1422.26 4436.59 1422.48Z" stroke="#000000" stroke-width="0.659666" fill="none" fill-rule="evenodd" transform="matrix(0.997205 -0.0872442 0.0871559 0.996195 -4367.62 -1010.81)"/><path d="M4424.39 1425.75C4425.82 1423.95 4429.65 1423.02 4430.73 1422.97 4444.83 1420.92 4453.13 1437.32 4461.82 1440.9 4461.99 1440.59 4463.62 1443.42 4459.43 1443.57 4456.62 1443.67 4451.63 1443.57 4440.3 1436.82 4435.04 1433.67 4419.86 1432.05 4424.39 1425.75Z" stroke="#000000" stroke-width="0.659666" fill="none" fill-rule="evenodd" transform="matrix(0.997205 -0.0872442 0.0871559 0.996195 -4367.62 -1010.81)"/><path d="M4429.72 1423.37C4428.47 1423.57 4428.1 1423.51 4428.06 1423.6 4427.98 1423.78 4429.44 1424 4429.44 1424 4429.44 1424 4440.32 1425.54 4449.29 1435.18 4439.62 1424.16 4429.25 1423.73 4429.72 1423.37Z" stroke="#000000" stroke-width="0.659666" fill="none" fill-rule="evenodd" transform="matrix(0.997205 -0.0872442 0.0871559 0.996195 -4367.62 -1010.81)"/><path d="M4449.19 1455.92C4449.56 1466.39 4434.38 1450.85 4433.1 1449.78 4425.44 1442.98 4420.5 1439.15 4423.38 1428.18 4425.96 1414.45 4447.91 1444.17 4449.19 1455.92Z" stroke="#000000" stroke-width="0.659666" fill="none" fill-rule="evenodd" transform="matrix(0.997205 -0.0872442 0.0871559 0.996195 -4367.62 -1010.81)"/><path d="M4426.61 1424.39C4426.68 1430.63 4444.98 1453.86 4444.98 1453.86 4444.98 1453.86 4426.88 1432.3 4425.62 1424.74Z" stroke="#000000" stroke-width="0.659666" fill="none" fill-rule="evenodd" transform="matrix(0.997205 -0.0872442 0.0871559 0.996195 -4367.62 -1010.81)"/><path d="M4398.54 1474.44C4408.28 1495.77 4409.2 1480.38 4409.5 1480.3 4409.5 1480.3 4413.73 1499.11 4419.66 1476.85 4419.66 1476.85 4424.3 1503.22 4432.14 1477.15 4431.91 1477.55 4436.88 1497.29 4439.01 1475.43 4440.03 1481.99 4439.42 1485.28 4442.53 1486.08 4444.13 1486.27 4446.19 1483.56 4448.62 1474.62 4448.8 1474.9 4456.91 1494.07 4460.64 1468.73 4460.64 1468.73 4464.71 1489.6 4467.83 1473.08" stroke="#000000" stroke-width="0.659666" fill="none" fill-rule="evenodd" transform="matrix(0.997205 -0.0872442 0.0871559 0.996195 -4367.62 -1010.81)"/><path d="M4446.92 1459.56C4439.81 1483.04 4437.61 1463.66 4438.17 1462.75 4434.56 1478.82 4429.72 1469.37 4429.57 1467.27 4425.48 1481.64 4420.57 1472.66 4420.29 1468.59 4414.97 1486.62 4412.61 1474.08 4412.97 1473.97 4412.97 1473.97 4410.5 1482.29 4407.9 1475.45 4407.9 1475.45 4405.21 1482.61 4400.05 1473.22 4400.05 1473.22 4394.75 1479.37 4393.99 1468.92" stroke="#000000" stroke-width="0.659666" fill="none" fill-rule="evenodd" transform="matrix(0.997205 -0.0872442 0.0871559 0.996195 -4367.62 -1010.81)"/><path d="M4458.07 1443.53C4458.07 1443.53 4455.56 1471.67 4448.78 1453.81" stroke="#000000" stroke-width="0.659666" fill="none" fill-rule="evenodd" transform="matrix(0.997205 -0.0872442 0.0871559 0.996195 -4367.62 -1010.81)"/><path d="M4468.87 1461.01C4468.87 1461.01 4459.32 1458.88 4459.64 1443.48" stroke="#000000" stroke-width="0.659666" fill="none" fill-rule="evenodd" transform="matrix(0.997205 -0.0872442 0.0871559 0.996195 -4367.62 -1010.81)"/><path d="M4463.55 1478.07C4462.9 1483.03 4462.55 1489.5 4462.55 1489.5 4462.36 1488.7 4461.59 1484.79 4462.76 1476.74Z" stroke="#000000" stroke-width="0.659666" fill="none" fill-rule="evenodd" transform="matrix(0.997205 -0.0872442 0.0871559 0.996195 -4367.62 -1010.81)"/><path d="M4450.92 1478.83C4450.92 1478.83 4450.86 1489.86 4451.22 1495.57 4450.91 1495.58 4450.04 1487.24 4449.34 1476.14 4450.69 1478.85 4450.92 1478.83 4450.92 1478.83Z" stroke="#000000" stroke-width="0.659666" fill="none" fill-rule="evenodd" transform="matrix(0.997205 -0.0872442 0.0871559 0.996195 -4367.62 -1010.81)"/><path d="M4443.37 1486.09C4442.88 1490.29 4443.17 1494.65 4443.17 1494.65 4443.17 1494.65 4442.36 1494.61 4442.26 1486.04Z" stroke="#000000" stroke-width="0.659666" fill="none" fill-rule="evenodd" transform="matrix(0.997205 -0.0872442 0.0871559 0.996195 -4367.62 -1010.81)"/><path d="M4436.08 1485.76C4436.35 1494.92 4435.59 1497.76 4435.59 1497.76 4435.53 1497.44 4436.23 1498.68 4434.79 1484.86 4435.67 1486.11 4436.08 1485.76 4436.08 1485.76Z" stroke="#000000" stroke-width="0.659666" fill="none" fill-rule="evenodd" transform="matrix(0.997205 -0.0872442 0.0871559 0.996195 -4367.62 -1010.81)"/><path d="M4426.1 1488.56C4425.82 1497.11 4426.43 1498.42 4426.5 1498.59 4426.5 1498.59 4425.19 1497.52 4425.2 1488.57Z" stroke="#000000" stroke-width="0.659666" fill="none" fill-rule="evenodd" transform="matrix(0.997205 -0.0872442 0.0871559 0.996195 -4367.62 -1010.81)"/><path d="M4416.59 1485.3C4416.57 1493.45 4417.41 1496.45 4417.41 1496.45 4417.3 1496.27 4415.74 1492.5 4415.66 1486.69Z" stroke="#000000" stroke-width="0.659666" fill="none" fill-rule="evenodd" transform="matrix(0.997205 -0.0872442 0.0871559 0.996195 -4367.62 -1010.81)"/><path d="M4408.49 1484.48C4408.08 1492.5 4409.03 1495.03 4409.03 1495.03 4408.88 1494.8 4407.39 1490.73 4407.71 1485.56Z" stroke="#000000" stroke-width="0.659666" fill="none" fill-rule="evenodd" transform="matrix(0.997205 -0.0872442 0.0871559 0.996195 -4367.62 -1010.81)"/><path d="M4401.31 1480.16C4401.34 1483.98 4401.1 1488.7 4401.93 1492.66 4401.28 1492.82 4400.45 1482.51 4400.58 1478.71Z" stroke="#000000" stroke-width="0.659666" fill="none" fill-rule="evenodd" transform="matrix(0.997205 -0.0872442 0.0871559 0.996195 -4367.62 -1010.81)"/><path d="M4458.79 1489.5C4458.59 1489.01 4458.62 1485.63 4458.27 1478.46" stroke="#000000" stroke-width="0.659666" fill="none" fill-rule="evenodd" transform="matrix(0.997205 -0.0872442 0.0871559 0.996195 -4367.62 -1010.81)"/><path d="M4446.92 1494.77C4446.71 1494.28 4446.2 1489.92 4445.85 1482.75" stroke="#000000" stroke-width="0.659666" fill="none" fill-rule="evenodd" transform="matrix(0.997205 -0.0872442 0.0871559 0.996195 -4367.62 -1010.81)"/><path d="M4439.12 1496.2C4438.91 1495.71 4437.84 1491.19 4437.48 1484.01" stroke="#000000" stroke-width="0.659666" fill="none" fill-rule="evenodd" transform="matrix(0.997205 -0.0872442 0.0871559 0.996195 -4367.62 -1010.81)"/><path d="M4429.87 1494.51C4429.77 1494.04 4429.38 1493.13 4428.6 1485.92" stroke="#000000" stroke-width="0.659666" fill="none" fill-rule="evenodd" transform="matrix(0.997205 -0.0872442 0.0871559 0.996195 -4367.62 -1010.81)"/><path d="M4420.19 1493.45C4420.09 1492.97 4418.88 1489.1 4418.1 1481.89" stroke="#000000" stroke-width="0.659666" fill="none" fill-rule="evenodd" transform="matrix(0.997205 -0.0872442 0.0871559 0.996195 -4367.62 -1010.81)"/><path d="M4411.57 1492.29C4411.47 1491.81 4410.32 1488.1 4409.55 1480.89" stroke="#000000" stroke-width="0.659666" fill="none" fill-rule="evenodd" transform="matrix(0.997205 -0.0872442 0.0871559 0.996195 -4367.62 -1010.81)"/><path d="M4405.12 1491.97C4405.02 1491.49 4405.34 1491.79 4404.57 1484.58" stroke="#000000" stroke-width="0.659666" fill="none" fill-rule="evenodd" transform="matrix(0.997205 -0.0872442 0.0871559 0.996195 -4367.62 -1010.81)"/><path d="M4453.25 1459.94C4454.27 1467.39 4454.51 1475.42 4454.51 1475.42 4454.51 1475.42 4452.73 1466.99 4451.94 1459.3Z" stroke="#000000" stroke-width="0.659666" fill="none" fill-rule="evenodd" transform="matrix(0.997205 -0.0872442 0.0871559 0.996195 -4367.62 -1010.81)"/><path d="M4466.5 1460.05C4465.6 1466.34 4465.56 1472.65 4465.56 1472.65 4465.56 1472.65 4465.05 1464.34 4465.49 1459.31Z" stroke="#000000" stroke-width="0.659666" fill="none" fill-rule="evenodd" transform="matrix(0.997205 -0.0872442 0.0871559 0.996195 -4367.62 -1010.81)"/><path d="M4442.57 1469.78C4443.23 1477.28 4443.29 1482.44 4443.29 1482.44 4443.29 1482.44 4442.81 1475.82 4442.18 1470.39Z" stroke="#000000" stroke-width="0.659666" fill="none" fill-rule="evenodd" transform="matrix(0.997205 -0.0872442 0.0871559 0.996195 -4367.62 -1010.81)"/><path d="M4434.25 1471.47C4434.57 1477.05 4436.03 1479.98 4436.03 1479.98 4436.03 1479.98 4434.83 1474.59 4435.44 1470.54Z" stroke="#000000" stroke-width="0.659666" fill="none" fill-rule="evenodd" transform="matrix(0.997205 -0.0872442 0.0871559 0.996195 -4367.62 -1010.81)"/><path d="M4426.1 1474.27C4425.15 1479.26 4425.67 1485.06 4425.67 1485.06 4425.67 1485.06 4424.4 1480.49 4425 1475.08Z" stroke="#000000" stroke-width="0.659666" fill="none" fill-rule="evenodd" transform="matrix(0.997205 -0.0872442 0.0871559 0.996195 -4367.62 -1010.81)"/><path d="M4413.67 1477.64C4413.28 1483.4 4413.93 1485.62 4413.86 1485.62 4413.9 1485.61 4412.4 1482.37 4413.31 1476.4Z" stroke="#000000" stroke-width="0.659666" fill="none" fill-rule="evenodd" transform="matrix(0.997205 -0.0872442 0.0871559 0.996195 -4367.62 -1010.81)"/><path d="M4405.87 1478.45C4406.24 1481.59 4406.52 1484.18 4406.52 1484.18 4406.52 1484.18 4405.59 1481.56 4404.97 1478.34 4406.18 1478.56 4405.56 1478.68 4405.87 1478.45Z" stroke="#000000" stroke-width="0.659666" fill="none" fill-rule="evenodd" transform="matrix(0.997205 -0.0872442 0.0871559 0.996195 -4367.62 -1010.81)"/><path d="M4460.7 1469.2C4460.49 1468.71 4459.4 1450.97 4459.04 1443.8" stroke="#000000" stroke-width="0.659666" fill="none" fill-rule="evenodd" transform="matrix(0.997205 -0.0872442 0.0871559 0.996195 -4367.62 -1010.81)"/><path d="M4448.73 1474.91C4448.27 1474.43 4446.09 1467.33 4446.89 1459.74" stroke="#000000" stroke-width="0.659666" fill="none" fill-rule="evenodd" transform="matrix(0.997205 -0.0872442 0.0871559 0.996195 -4367.62 -1010.81)"/><path d="M4439.08 1475.77C4439.01 1475.18 4438.32 1471.98 4438.01 1464.69" stroke="#000000" stroke-width="0.659666" fill="none" fill-rule="evenodd" transform="matrix(0.997205 -0.0872442 0.0871559 0.996195 -4367.62 -1010.81)"/><path d="M4432.2 1477.59C4432.09 1476.7 4431.99 1475.23 4432.4 1471.87" stroke="#000000" stroke-width="0.659666" fill="none" fill-rule="evenodd" transform="matrix(0.997205 -0.0872442 0.0871559 0.996195 -4367.62 -1010.81)"/><path d="M4419.69 1477.18C4419.55 1475.89 4419.82 1472.65 4420.26 1469.91" stroke="#000000" stroke-width="0.659666" fill="none" fill-rule="evenodd" transform="matrix(0.997205 -0.0872442 0.0871559 0.996195 -4367.62 -1010.81)"/><path d="M4409.5 1481.65C4409.54 1480.38 4409.54 1480.32 4409.59 1477.93" stroke="#000000" stroke-width="0.659666" fill="none" fill-rule="evenodd" transform="matrix(0.997205 -0.0872442 0.0871559 0.996195 -4367.62 -1010.81)"/><path d="M4466.21 1446.13C4466.45 1454.73 4467.34 1457.19 4467.4 1457.46 4467.4 1457.46 4465.4 1453.9 4465.32 1445.67Z" stroke="#000000" stroke-width="0.659666" fill="none" fill-rule="evenodd" transform="matrix(0.997205 -0.0872442 0.0871559 0.996195 -4367.62 -1010.81)"/><path d="M4451.2 1442.19C4452.95 1448.47 4453.07 1456.46 4453.07 1456.46 4453.07 1456.46 4451.46 1444.78 4450.17 1441.92Z" stroke="#000000" stroke-width="0.659666" fill="none" fill-rule="evenodd" transform="matrix(0.997205 -0.0872442 0.0871559 0.996195 -4367.62 -1010.81)"/><path d="M4443.13 1458.08C4441.68 1464.32 4441.27 1467.71 4441.27 1467.71 4441.27 1467.71 4441.61 1461.01 4442.29 1457.46Z" stroke="#000000" stroke-width="0.659666" fill="none" fill-rule="evenodd" transform="matrix(0.997205 -0.0872442 0.0871559 0.996195 -4367.62 -1010.81)"/><path d="M4434.07 1463.13C4433.26 1465.52 4433.07 1470.24 4433.07 1470.24 4433.07 1470.24 4432.03 1467.73 4433.43 1463.56 4433.43 1463.56 4433.27 1463.3 4434.07 1463.13Z" stroke="#000000" stroke-width="0.659666" fill="none" fill-rule="evenodd" transform="matrix(0.997205 -0.0872442 0.0871559 0.996195 -4367.62 -1010.81)"/><path d="M4425.53 1466.12C4424.53 1469.89 4424.76 1472.98 4424.76 1472.98 4424.76 1472.98 4423.7 1469.51 4424.05 1466.03Z" stroke="#000000" stroke-width="0.659666" fill="none" fill-rule="evenodd" transform="matrix(0.997205 -0.0872442 0.0871559 0.996195 -4367.62 -1010.81)"/><path d="M4416.78 1469.7C4415.77 1473.47 4415.52 1476.52 4415.52 1476.52 4415.52 1476.52 4415.12 1474.52 4415.46 1471.04Z" stroke="#000000" stroke-width="0.659666" fill="none" fill-rule="evenodd" transform="matrix(0.997205 -0.0872442 0.0871559 0.996195 -4367.62 -1010.81)"/><path d="M4411.46 1473.35C4410.34 1475.39 4410.2 1476.47 4410.08 1476.89 4409.84 1476.62 4410.06 1474.94 4410.68 1473.7Z" stroke="#000000" stroke-width="0.659666" fill="none" fill-rule="evenodd" transform="matrix(0.997205 -0.0872442 0.0871559 0.996195 -4367.62 -1010.81)"/><path d="M4404.83 1473C4404.21 1473.3 4405.06 1477.23 4405.05 1477.32 4405.1 1477.27 4404.33 1475.66 4404.13 1472.74Z" stroke="#000000" stroke-width="0.659666" fill="none" fill-rule="evenodd" transform="matrix(0.997205 -0.0872442 0.0871559 0.996195 -4367.62 -1010.81)"/><path d="M4382.95 1533.9C4387.76 1541.14 4384.89 1545.35 4384.89 1545.35 4387.03 1546.31 4387.99 1544.33 4387.99 1544.33 4390.85 1546.43 4390.66 1554.94 4390.66 1554.94 4395.81 1552.61 4393.57 1547.67 4393.57 1547.67 4398.14 1551.25 4400.44 1549.2 4400.98 1545.97 4402.74 1549.77 4408.92 1555.09 4412.88 1552.51 4409.21 1553.21 4404.6 1540.44 4404.6 1540.44 4409.54 1542.45 4409.44 1540 4409.44 1540 4402.65 1541.3 4399.47 1522.95 4399.47 1522.95 4401.19 1525.23 4402.04 1524.04 4402.36 1524.07 4400.83 1524.41 4397.23 1513.36 4397.23 1513.36 4398.93 1511.06 4396.2 1506.33 4396.2 1506.33 4399.51 1502.74 4398.49 1500.84 4398.49 1500.84 4402.28 1497 4399.11 1488.27 4399.11 1488.27 4400.18 1485.92 4397.2 1479.87 4397.2 1479.87 4398.51 1480.07 4399.43 1479.58 4399.47 1479.7 4397.11 1479.03 4393.57 1468.23 4395.07 1468.37 4397.92 1470.66 4398.89 1468.56 4399.35 1468.54 4394.63 1468.62 4395.96 1451.98 4395.96 1451.98 4398.08 1453.33 4399.56 1452.37 4399.45 1452.46 4395.81 1451.99 4395.05 1432.91 4395.12 1432.81 4388.92 1413.81 4367.84 1428.53 4367.84 1428.53 4367.84 1428.53 4367.17 1435.39 4362.29 1437.25 4362.29 1437.25 4363.45 1438.58 4365.19 1437.67 4365.19 1437.67 4366.09 1442.72 4359.7 1445.9 4359.7 1445.9 4361.32 1448.04 4362.76 1446.87 4362.76 1446.87 4359.02 1455.49 4353.45 1456.51 4353.23 1456.29 4354.7 1458.64 4358.13 1457.75 4358.13 1457.75 4355.22 1464.07 4349.74 1464.77 4349.74 1464.77 4350.12 1468.08 4353.69 1466.66 4353.69 1466.66 4350.76 1473.7 4346.41 1474.11 4347.61 1475.61 4349.2 1476.42 4350.7 1476 4350.7 1476 4346.27 1481.78 4346.91 1484.28 4346.91 1484.28 4342.28 1492.32 4345.35 1496.77 4345.35 1496.77 4344.03 1498.47 4346.66 1502.56 4346.66 1502.56 4343.14 1506.76 4344.41 1509.31 4344.41 1509.31 4338.4 1519.63 4336.96 1519.03 4337.27 1519.05 4337.98 1520.77 4340.07 1518.82 4340.07 1518.82 4334.24 1535.88 4327.78 1533.43 4327.78 1533.43 4327.25 1535.82 4332.46 1534.7 4332.46 1534.7 4325.71 1546.48 4322.21 1545.15 4325.68 1548.37 4332.05 1545.04 4334.43 1541.61 4334.42 1544.9 4336.31 1547.29 4341.44 1544.58 4341.44 1544.58 4339.62 1548.26 4344.28 1551.47 4344.28 1551.47 4344.64 1542.23 4347.83 1540.67 4347.83 1540.67 4348.53 1542.8 4350.81 1542.22 4350.81 1542.22 4348.72 1537.56 4354.71 1531.29 4354.71 1531.29 4356.68 1540.36 4353.24 1542.24 4353.24 1542.24 4354.87 1543.78 4355.95 1542.98 4355.95 1542.98 4355.07 1556.85 4350.72 1558.37 4350.72 1558.37 4355.22 1562.1 4359.15 1556.54 4359.75 1556.65 4361.76 1567.26 4366.95 1557.56 4367.22 1557.63 4369.05 1566.56 4373.54 1558.3 4373.54 1558.3 4376.94 1565.08 4381.05 1560.8 4381.27 1560.7 4377.51 1561.83 4379.63 1546.4 4379.63 1546.4 4382.07 1547.17 4383.18 1545.14 4383.18 1545.14 4377.25 1540.66 4382.95 1533.9Z" stroke="#000000" stroke-width="0.659666" fill="none" fill-rule="evenodd" transform="matrix(0.997205 -0.0872442 0.0871559 0.996195 -4367.62 -1010.81)"/><path d="M4352.31 1425.65 4361.96 1419.89 4365.79 1425.95Z" stroke="#000000" stroke-width="0.659666" fill="none" fill-rule="evenodd" transform="matrix(0.997205 -0.0872442 0.0871559 0.996195 -4367.62 -1010.81)"/><path d="M4391.39 1431.96C4395.97 1439.49 4399.81 1434.7 4399.81 1434.7 4395.65 1435.44 4396.29 1430.94 4396.29 1430.94 4396.85 1422.27 4390.38 1421.62 4390.38 1421.62 4393.98 1422.02 4395.15 1419.33 4395.15 1419.33 4393.39 1420.01 4392.25 1418.24 4392.25 1418.24 4401.53 1419.15 4400.08 1410.33 4400.08 1410.33 4397.25 1416.07 4394.16 1412.91 4394.16 1412.91 4392.36 1411.37 4386.24 1411.82 4386.24 1411.82 4390.56 1412.07 4391.03 1407.47 4391.03 1407.47 4389.17 1410.72 4384.36 1407.87 4379.71 1406.03 4373.74 1403.75 4365.58 1402.56 4362.54 1411.14L4361.59 1416.82 4371.18 1427.61C4371.18 1427.61 4372.71 1436.65 4374.36 1436.7 4374.36 1436.7 4377.44 1436.76 4378.91 1429.09 4378.91 1429.09 4380.55 1431.1 4379.62 1431.95 4379.62 1431.95 4383.4 1429.91 4383.37 1428.52 4383.37 1428.52 4384.76 1434.45 4382.91 1435.89 4382.91 1435.89 4386.7 1434.83 4386.43 1431.68 4386.43 1431.68 4390.29 1437.49 4390.32 1439.67 4390.32 1439.67 4391.68 1436.28 4391.39 1431.96Z" stroke="#000000" stroke-width="0.659666" fill="none" fill-rule="evenodd" transform="matrix(0.997205 -0.0872442 0.0871559 0.996195 -4367.62 -1010.81)"/><path d="M4375.08 1413.04C4375.08 1413.04 4373.38 1409 4368.68 1409.86 4366.36 1410.4 4364.7 1411.12 4366.04 1413.3 4367.28 1414.99 4370.1 1413.59 4371.98 1413.01 4373.59 1412.6 4375.08 1413.04 4375.08 1413.04Z" stroke="#000000" stroke-width="0.659666" fill="none" fill-rule="evenodd" transform="matrix(0.997205 -0.0872442 0.0871559 0.996195 -4367.62 -1010.81)"/><path d="M4368.97 1409.95C4366.64 1410.49 4364.99 1410.94 4366.33 1413.13 4367.58 1414.81 4369.98 1413.33 4371.86 1412.75 4373.44 1410.83 4371.04 1409.62 4368.97 1409.95Z" stroke="#000000" stroke-width="0.659666" fill="none" fill-rule="evenodd" transform="matrix(0.997205 -0.0872442 0.0871559 0.996195 -4367.62 -1010.81)"/><path d="M335.308 93.5356C335.308 94.14 334.757 94.6301 334.078 94.6301 333.398 94.6301 332.847 94.14 332.847 93.5356 332.847 92.9311 333.398 92.4411 334.078 92.4411 334.757 92.4411 335.308 92.9311 335.308 93.5356Z" stroke="#000000" stroke-width="0.623873" stroke-linejoin="round" fill="none" fill-rule="evenodd" transform="matrix(1 -4.94216e-08 5.53113e-08 1.11917 -222.052 -90.5971)"/><path d="M4364.49 1425.02 4360.04 1419.84C4357.4 1417.06 4355.2 1419.22 4355.23 1419.14 4353.69 1420.51 4352.49 1419.46 4352.49 1419.46 4351.45 1417.64 4350.02 1417.82 4350.02 1417.82 4348.09 1417.63 4346.19 1419.3 4346.05 1419.31 4346.05 1419.31 4344.95 1408.95 4361.76 1410.08 4361.76 1410.08 4363.99 1409.58 4363.58 1414.24 4363.58 1414.24 4362.83 1416.78 4367.57 1420.4 4367.57 1420.4 4377.37 1430.23 4367.18 1428.12 4367.18 1428.12 4365.42 1427.86 4363.92 1428.13 4361.43 1428.58 4359.23 1429.42 4357.92 1429.29 4357.92 1429.29 4350.39 1429.47 4348.56 1424.64 4348.56 1424.64 4351.68 1426.26 4355.84 1425.18 4355.84 1425.18 4359.05 1424.46 4364.49 1425.02Z" stroke="#000000" stroke-width="0.659666" fill="none" fill-rule="evenodd" transform="matrix(0.997205 -0.0872442 0.0871559 0.996195 -4367.62 -1010.81)"/><path d="M4359.42 1419.31C4357.64 1420 4357.37 1420.43 4356.37 1420.81 4353.74 1421.8 4352.56 1421.89 4352.56 1421.89 4340.76 1423.31 4338.77 1416.93 4338.77 1416.93 4338.77 1416.93 4336.58 1424.91 4346.18 1425.62 4346.18 1425.62 4348.25 1425.93 4351.38 1425.67 4354.33 1425.43 4358.14 1424.76 4361.91 1422.05Z" stroke="#000000" stroke-width="0.659666" fill="none" fill-rule="evenodd" transform="matrix(0.997205 -0.0872442 0.0871559 0.996195 -4367.62 -1010.81)"/><path d="M4395.85 1451.86C4395.85 1451.86 4389.14 1449.78 4386.39 1440.78 4386.39 1440.78 4381.88 1448.37 4381.6 1439.03 4381.6 1439.03 4375.68 1450.15 4374.07 1438.45 4373.64 1438.92 4368.74 1447.42 4368.8 1436.05 4368.74 1435.91 4366.97 1436.5 4365.29 1437.68" stroke="#000000" stroke-width="0.659666" fill="none" fill-rule="evenodd" transform="matrix(0.997205 -0.0872442 0.0871559 0.996195 -4367.62 -1010.81)"/><path d="M4395.77 1456.28C4392.38 1465.81 4391.7 1454.69 4391.7 1454.69 4387.88 1462.84 4386.63 1450.92 4386.63 1450.92 4381.22 1458.65 4379.79 1446.65 4379.79 1446.65 4374.36 1456.02 4373.58 1446.63 4373.58 1446.63 4364.72 1462.32 4365.44 1444.12 4366.73 1443.43 4366.73 1443.43 4362.02 1449.25 4359.74 1445.73" stroke="#000000" stroke-width="0.659666" fill="none" fill-rule="evenodd" transform="matrix(0.997205 -0.0872442 0.0871559 0.996195 -4367.62 -1010.81)"/><path d="M4354.76 1457.54C4358.08 1459.53 4363.36 1454.81 4363.36 1454.81 4363.36 1454.81 4359.42 1471.35 4373.25 1454.82 4373.25 1454.82 4376.8 1468.19 4382.46 1456.02 4383.01 1456.12 4383.16 1469.08 4387.79 1459.28 4387.79 1459.28 4395.37 1472.26 4399.02 1468.66" stroke="#000000" stroke-width="0.659666" fill="none" fill-rule="evenodd" transform="matrix(0.997205 -0.0872442 0.0871559 0.996195 -4367.62 -1010.81)"/><path d="M4397.27 1479.9C4386.9 1478.99 4384.12 1465.85 4384.12 1465.85 4375.32 1483.53 4370.3 1464.58 4370.42 1463.7 4360.42 1482.42 4360.04 1464.74 4360.15 1463.43 4359.94 1463.33 4350.39 1470.29 4349.75 1464.59" stroke="#000000" stroke-width="0.659666" fill="none" fill-rule="evenodd" transform="matrix(0.997205 -0.0872442 0.0871559 0.996195 -4367.62 -1010.81)"/><path d="M4399.35 1487.8C4394.69 1494.08 4389.79 1480.21 4389.79 1480.21 4382.62 1499.32 4376.07 1477.32 4376.12 1477.17 4365.98 1496.96 4361.49 1476.48 4361.66 1475.51 4361.66 1475.51 4350.55 1487.65 4355.79 1474.1 4355.79 1474.1 4352.62 1476 4349.12 1475.98" stroke="#000000" stroke-width="0.659666" fill="none" fill-rule="evenodd" transform="matrix(0.997205 -0.0872442 0.0871559 0.996195 -4367.62 -1010.81)"/><path d="M4392.58 1485.81C4392.58 1485.81 4390.5 1501.25 4384.57 1487.89" stroke="#000000" stroke-width="0.659666" fill="none" fill-rule="evenodd" transform="matrix(0.997205 -0.0872442 0.0871559 0.996195 -4367.62 -1010.81)"/><path d="M4381.94 1487.39C4381.94 1487.39 4378.04 1502.89 4371.16 1484.32" stroke="#000000" stroke-width="0.659666" fill="none" fill-rule="evenodd" transform="matrix(0.997205 -0.0872442 0.0871559 0.996195 -4367.62 -1010.81)"/><path d="M4398.49 1500.73C4398.49 1500.73 4394.45 1504.39 4389.64 1493.92 4389.64 1493.92 4386.29 1514.51 4378.07 1493.47 4377.59 1493.32 4367.95 1510.22 4366.73 1486.17 4366.64 1486.04 4354.49 1500.57 4358.84 1482.24 4359.02 1482.08 4348.02 1495.98 4354.49 1479.91 4354.49 1479.91 4347.47 1488.31 4346.88 1484.18" stroke="#000000" stroke-width="0.659666" fill="none" fill-rule="evenodd" transform="matrix(0.997205 -0.0872442 0.0871559 0.996195 -4367.62 -1010.81)"/><path d="M4387.16 1501.2C4387.16 1501.2 4389.48 1515.28 4396.17 1506.33" stroke="#000000" stroke-width="0.659666" fill="none" fill-rule="evenodd" transform="matrix(0.997205 -0.0872442 0.0871559 0.996195 -4367.62 -1010.81)"/><path d="M4391.19 1509.04C4391.19 1509.04 4388.83 1523.44 4382.8 1505.31 4382.8 1505.31 4374.65 1524.96 4370.73 1502.36 4370.73 1502.36 4360.31 1530.72 4358.84 1501.87 4358.84 1501.87 4350.6 1518.82 4349.05 1504.17 4349.05 1504.17 4346.32 1513.8 4344.22 1509.12" stroke="#000000" stroke-width="0.659666" fill="none" fill-rule="evenodd" transform="matrix(0.997205 -0.0872442 0.0871559 0.996195 -4367.62 -1010.81)"/><path d="M4366.91 1485.84C4366.91 1485.84 4358.3 1515 4357.96 1490.98 4357.96 1490.98 4348.88 1508.66 4346 1501.37" stroke="#000000" stroke-width="0.659666" fill="none" fill-rule="evenodd" transform="matrix(0.997205 -0.0872442 0.0871559 0.996195 -4367.62 -1010.81)"/><path d="M4344.96 1496.04C4344.96 1496.04 4347.83 1499.82 4353.28 1487.82" stroke="#000000" stroke-width="0.659666" fill="none" fill-rule="evenodd" transform="matrix(0.997205 -0.0872442 0.0871559 0.996195 -4367.62 -1010.81)"/><path d="M4397.17 1513.43C4397.17 1513.43 4394.4 1517.37 4390.48 1511.82" stroke="#000000" stroke-width="0.659666" fill="none" fill-rule="evenodd" transform="matrix(0.997205 -0.0872442 0.0871559 0.996195 -4367.62 -1010.81)"/><path d="M4362.5 1514.78C4362.5 1514.78 4368.85 1541.65 4376.77 1513.86 4376.77 1513.86 4386.98 1536.62 4388.34 1514.65 4388.34 1514.65 4396.9 1534.48 4395.33 1514.69 4395.33 1514.69 4398.29 1524.83 4402.27 1524.3" stroke="#000000" stroke-width="0.659666" fill="none" fill-rule="evenodd" transform="matrix(0.997205 -0.0872442 0.0871559 0.996195 -4367.62 -1010.81)"/><path d="M4339.8 1519.08C4340.17 1518.66 4345.66 1514.9 4349.71 1508" stroke="#000000" stroke-width="0.659666" fill="none" fill-rule="evenodd" transform="matrix(0.997205 -0.0872442 0.0871559 0.996195 -4367.62 -1010.81)"/><path d="M4361.11 1514.25C4361.11 1514.25 4345.86 1536.24 4351.37 1510.05" stroke="#000000" stroke-width="0.659666" fill="none" fill-rule="evenodd" transform="matrix(0.997205 -0.0872442 0.0871559 0.996195 -4367.62 -1010.81)"/><path d="M4341.84 1517.47C4341.84 1517.47 4337.96 1533.87 4350.05 1520.2" stroke="#000000" stroke-width="0.659666" fill="none" fill-rule="evenodd" transform="matrix(0.997205 -0.0872442 0.0871559 0.996195 -4367.62 -1010.81)"/><path d="M4332.1 1534.81C4332.1 1534.81 4344.78 1530.78 4349.91 1520.42" stroke="#000000" stroke-width="0.659666" fill="none" fill-rule="evenodd" transform="matrix(0.997205 -0.0872442 0.0871559 0.996195 -4367.62 -1010.81)"/><path d="M4334.07 1542.18C4333.62 1542.15 4337.43 1539.49 4338.71 1531.68" stroke="#000000" stroke-width="0.659666" fill="none" fill-rule="evenodd" transform="matrix(0.997205 -0.0872442 0.0871559 0.996195 -4367.62 -1010.81)"/><path d="M4374.23 1521.03C4374.23 1521.03 4383.1 1543.52 4385.04 1525.05 4385.04 1525.05 4390.72 1538.83 4393.97 1523.27" stroke="#000000" stroke-width="0.659666" fill="none" fill-rule="evenodd" transform="matrix(0.997205 -0.0872442 0.0871559 0.996195 -4367.62 -1010.81)"/><path d="M4392.13 1529.13C4392.13 1529.13 4401.67 1541.85 4408.51 1541.22" stroke="#000000" stroke-width="0.659666" fill="none" fill-rule="evenodd" transform="matrix(0.997205 -0.0872442 0.0871559 0.996195 -4367.62 -1010.81)"/><path d="M4356.44 1519.91C4356.44 1519.91 4359.88 1547.28 4368.51 1526.17" stroke="#000000" stroke-width="0.659666" fill="none" fill-rule="evenodd" transform="matrix(0.997205 -0.0872442 0.0871559 0.996195 -4367.62 -1010.81)"/><path d="M4353.02 1542C4353.02 1542 4356 1547.17 4362.46 1534.35" stroke="#000000" stroke-width="0.659666" fill="none" fill-rule="evenodd" transform="matrix(0.997205 -0.0872442 0.0871559 0.996195 -4367.62 -1010.81)"/><path d="M4367.27 1528.95C4367.27 1528.95 4372.9 1548.93 4377.71 1528.36" stroke="#000000" stroke-width="0.659666" fill="none" fill-rule="evenodd" transform="matrix(0.997205 -0.0872442 0.0871559 0.996195 -4367.62 -1010.81)"/><path d="M4382.94 1531.95C4382.94 1531.95 4385.74 1545.08 4390.12 1530.4" stroke="#000000" stroke-width="0.659666" fill="none" fill-rule="evenodd" transform="matrix(0.997205 -0.0872442 0.0871559 0.996195 -4367.62 -1010.81)"/><path d="M4400.94 1546.42C4400.94 1546.42 4400.51 1545.04 4400.26 1537.76" stroke="#000000" stroke-width="0.659666" fill="none" fill-rule="evenodd" transform="matrix(0.997205 -0.0872442 0.0871559 0.996195 -4367.62 -1010.81)"/><path d="M4388 1544.5C4388 1544.5 4390.8 1539.17 4387.89 1535.56" stroke="#000000" stroke-width="0.659666" fill="none" fill-rule="evenodd" transform="matrix(0.997205 -0.0872442 0.0871559 0.996195 -4367.62 -1010.81)"/><path d="M4393.7 1547.91C4393.33 1548.04 4392.17 1542.51 4389.21 1539.15" stroke="#000000" stroke-width="0.659666" fill="none" fill-rule="evenodd" transform="matrix(0.997205 -0.0872442 0.0871559 0.996195 -4367.62 -1010.81)"/><path d="M4391.28 1542.06C4391.28 1542.06 4397.91 1546.16 4394.93 1538.41 4394.93 1538.41 4398.41 1546.76 4400.32 1540.23" stroke="#000000" stroke-width="0.659666" fill="none" fill-rule="evenodd" transform="matrix(0.997205 -0.0872442 0.0871559 0.996195 -4367.62 -1010.81)"/><path d="M4359.17 1556.65C4359.17 1556.65 4362.66 1550.99 4359.43 1539.76" stroke="#000000" stroke-width="0.659666" fill="none" fill-rule="evenodd" transform="matrix(0.997205 -0.0872442 0.0871559 0.996195 -4367.62 -1010.81)"/><path d="M4379.89 1546.42C4379.89 1546.42 4376.23 1546.94 4374.82 1536.43" stroke="#000000" stroke-width="0.659666" fill="none" fill-rule="evenodd" transform="matrix(0.997205 -0.0872442 0.0871559 0.996195 -4367.62 -1010.81)"/><path d="M4373.66 1558.65C4373.66 1558.65 4372.03 1553.15 4376.31 1542.37" stroke="#000000" stroke-width="0.659666" fill="none" fill-rule="evenodd" transform="matrix(0.997205 -0.0872442 0.0871559 0.996195 -4367.62 -1010.81)"/><path d="M4361.26 1536.58C4361.26 1536.58 4365.3 1553.9 4371.04 1536.54" stroke="#000000" stroke-width="0.659666" fill="none" fill-rule="evenodd" transform="matrix(0.997205 -0.0872442 0.0871559 0.996195 -4367.62 -1010.81)"/><path d="M4373.68 1551.5C4365.21 1566.94 4366.11 1549.72 4366.11 1549.72 4366.11 1549.72 4362.09 1560.14 4360.73 1550.31" stroke="#000000" stroke-width="0.659666" fill="none" fill-rule="evenodd" transform="matrix(0.997205 -0.0872442 0.0871559 0.996195 -4367.62 -1010.81)"/><path d="M4367.19 1543.68C4367.19 1543.68 4369.7 1557.51 4375.05 1545.82" stroke="#000000" stroke-width="0.659666" fill="none" fill-rule="evenodd" transform="matrix(0.997205 -0.0872442 0.0871559 0.996195 -4367.62 -1010.81)"/><path d="M4354.64 1531.32C4354.64 1531.32 4354.64 1527.19 4353.13 1522.81" stroke="#000000" stroke-width="0.659666" fill="none" fill-rule="evenodd" transform="matrix(0.997205 -0.0872442 0.0871559 0.996195 -4367.62 -1010.81)"/><path d="M4345.38 1526.49C4345.38 1526.49 4342.38 1541.74 4354.21 1527.15" stroke="#000000" stroke-width="0.659666" fill="none" fill-rule="evenodd" transform="matrix(0.997205 -0.0872442 0.0871559 0.996195 -4367.62 -1010.81)"/><path d="M4346.02 1533.13C4346.02 1533.13 4338.95 1545.97 4337.73 1535.81" stroke="#000000" stroke-width="0.659666" fill="none" fill-rule="evenodd" transform="matrix(0.997205 -0.0872442 0.0871559 0.996195 -4367.62 -1010.81)"/><path d="M4347.91 1540.77C4347.91 1540.77 4346.05 1538.19 4348.63 1532.73" stroke="#000000" stroke-width="0.659666" fill="none" fill-rule="evenodd" transform="matrix(0.997205 -0.0872442 0.0871559 0.996195 -4367.62 -1010.81)"/><path d="M4341.14 1545.7C4341.62 1546.03 4342.76 1537.74 4346.46 1533.51" stroke="#000000" stroke-width="0.659666" fill="none" fill-rule="evenodd" transform="matrix(0.997205 -0.0872442 0.0871559 0.996195 -4367.62 -1010.81)"/><path d="M261.745 161.865C261.58 164.285 262.295 176.77 262.295 176.77L263.285 159.225C262.405 156.53 261.745 161.865 261.745 161.865Z" stroke="#000000" stroke-width="0.439999" fill="none" fill-rule="evenodd" transform="matrix(1 1.31603e-07 -1.31604e-07 1 -141.022 -53.0047)"/><path d="M266.2 179.74C267.245 183.26 267.355 188.54 267.355 188.54 267.355 188.54 267.355 182.875 267.245 178.145Z" stroke="#000000" stroke-width="0.439999" fill="none" fill-rule="evenodd" transform="matrix(1 1.31603e-07 -1.31604e-07 1 -141.022 -53.0047)"/><path d="M261.25 185.35C261.25 185.35 261.36 193.325 261.25 196.02 261.25 196.02 262.295 188.43 262.075 185.405L261.69 184.58Z" stroke="#000000" stroke-width="0.439999" fill="none" fill-rule="evenodd" transform="matrix(1 1.31603e-07 -1.31604e-07 1 -141.022 -53.0047)"/><path d="M4362.3 1515.19C4361.49 1519.42 4362.18 1529.51 4362.18 1529.51 4362.3 1528.75 4362.61 1520.21 4363.24 1516.84Z" stroke="#000000" stroke-width="0.439776" fill="none" fill-rule="evenodd" transform="matrix(0.997205 -0.0872442 0.0871559 0.996195 -4367.62 -1010.81)"/><path d="M4365.93 1550.39C4365.93 1550.39 4366.79 1548.08 4366.9 1544.26" stroke="#000000" stroke-width="0.659666" fill="none" fill-rule="evenodd" transform="matrix(0.997205 -0.0872442 0.0871559 0.996195 -4367.62 -1010.81)"/><path d="M257.73 196.047C257.846 196.514 259.557 203.204 259.246 206.82 259.246 206.82 259.402 200.559 258.624 197.331Z" stroke="#000000" stroke-width="0.439999" fill="none" fill-rule="evenodd" transform="matrix(1 1.31603e-07 -1.31604e-07 1 -141.022 -53.0047)"/><path d="M259.518 210.242C259.518 210.242 260.024 213.976 259.713 215.532 259.713 215.532 260.335 211.876 260.024 209.775Z" stroke="#000000" stroke-width="0.439999" fill="none" fill-rule="evenodd" transform="matrix(1 1.31603e-07 -1.31604e-07 1 -141.022 -53.0047)"/><path d="M267.608 211.02C267.763 212.42 267.452 214.676 267.452 214.676L267.257 211.604Z" stroke="#000000" stroke-width="0.439999" fill="none" fill-rule="evenodd" transform="matrix(1 1.31603e-07 -1.31604e-07 1 -141.022 -53.0047)"/><path d="M265.585 204.565C265.624 206.665 265.43 210.515 265.274 210.67 265.274 210.67 266.441 205.926 266.208 204.953Z" stroke="#000000" stroke-width="0.439999" fill="none" fill-rule="evenodd" transform="matrix(1 1.31603e-07 -1.31604e-07 1 -141.022 -53.0047)"/><path d="M267.374 192.586C267.88 195.114 267.025 201.647 267.025 201.881 267.025 201.686 268.58 195.503 267.958 192.508Z" stroke="#000000" stroke-width="0.439999" fill="none" fill-rule="evenodd" transform="matrix(1 1.31603e-07 -1.31604e-07 1 -141.022 -53.0047)"/><path d="M4370.53 1503.75C4370.53 1503.75 4370.96 1502.62 4371.06 1498.8" stroke="#000000" stroke-width="0.659666" fill="none" fill-rule="evenodd" transform="matrix(0.997205 -0.0872442 0.0871559 0.996195 -4367.62 -1010.81)"/><path d="M4382.83 1505.46C4382.69 1505.31 4383.07 1505.14 4383.38 1502.2" stroke="#000000" stroke-width="0.659666" fill="none" fill-rule="evenodd" transform="matrix(0.997205 -0.0872442 0.0871559 0.996195 -4367.62 -1010.81)"/><path d="M4358.86 1502.38C4358.73 1502.23 4358.58 1502.04 4358.89 1499.1" stroke="#000000" stroke-width="0.659666" fill="none" fill-rule="evenodd" transform="matrix(0.997205 -0.0872442 0.0871559 0.996195 -4367.62 -1010.81)"/><path d="M4348.92 1504.78 4349.36 1502.76" stroke="#000000" stroke-width="0.659666" fill="none" fill-rule="evenodd" transform="matrix(0.997205 -0.0872442 0.0871559 0.996195 -4367.62 -1010.81)"/><path d="M4358.67 1482.44C4358.67 1482.44 4361.28 1479.94 4361.38 1476.12" stroke="#000000" stroke-width="0.659666" fill="none" fill-rule="evenodd" transform="matrix(0.997205 -0.0872442 0.0871559 0.996195 -4367.62 -1010.81)"/><path d="M4355.57 1474.54C4355.66 1474.41 4360.56 1469.31 4360.35 1467.1" stroke="#000000" stroke-width="0.659666" fill="none" fill-rule="evenodd" transform="matrix(0.997205 -0.0872442 0.0871559 0.996195 -4367.62 -1010.81)"/><path d="M4361.25 1475.97C4362.27 1474.65 4365.61 1470.96 4366.11 1470.38" stroke="#000000" stroke-width="0.659666" fill="none" fill-rule="evenodd" transform="matrix(0.997205 -0.0872442 0.0871559 0.996195 -4367.62 -1010.81)"/><path d="M4376.91 1479.48C4375.16 1474.72 4375.51 1473.65 4375.57 1472.95" stroke="#000000" stroke-width="0.659666" fill="none" fill-rule="evenodd" transform="matrix(0.997205 -0.0872442 0.0871559 0.996195 -4367.62 -1010.81)"/><path d="M4370.1 1464.3C4371.12 1462.99 4373.2 1456.7 4373.7 1456.12" stroke="#000000" stroke-width="0.659666" fill="none" fill-rule="evenodd" transform="matrix(0.997205 -0.0872442 0.0871559 0.996195 -4367.62 -1010.81)"/><path d="M4373.48 1446.92C4373.8 1446.16 4374.28 1444.46 4375.24 1442.65" stroke="#000000" stroke-width="0.659666" fill="none" fill-rule="evenodd" transform="matrix(0.997205 -0.0872442 0.0871559 0.996195 -4367.62 -1010.81)"/><path d="M4368.54 1436.15C4369.26 1435.69 4371.09 1434.1 4372.04 1432.27" stroke="#000000" stroke-width="0.659666" fill="none" fill-rule="evenodd" transform="matrix(0.997205 -0.0872442 0.0871559 0.996195 -4367.62 -1010.81)"/><path d="M4373.25 1454.78C4373.96 1454.33 4374.17 1452.36 4375.13 1450.53" stroke="#000000" stroke-width="0.659666" fill="none" fill-rule="evenodd" transform="matrix(0.997205 -0.0872442 0.0871559 0.996195 -4367.62 -1010.81)"/><path d="M4363.2 1454.94C4363.91 1454.49 4365.3 1452.85 4366.26 1451.02" stroke="#000000" stroke-width="0.659666" fill="none" fill-rule="evenodd" transform="matrix(0.997205 -0.0872442 0.0871559 0.996195 -4367.62 -1010.81)"/><path d="M4366.31 1444.05C4366.74 1443.42 4368.09 1441.64 4369.13 1439.87" stroke="#000000" stroke-width="0.659666" fill="none" fill-rule="evenodd" transform="matrix(0.997205 -0.0872442 0.0871559 0.996195 -4367.62 -1010.81)"/><path d="M4373.92 1438.81C4374.35 1438.19 4373.89 1438.26 4374.93 1436.49" stroke="#000000" stroke-width="0.659666" fill="none" fill-rule="evenodd" transform="matrix(0.997205 -0.0872442 0.0871559 0.996195 -4367.62 -1010.81)"/><path d="M4359.82 1463.88C4359.67 1463.65 4362.49 1460.89 4362.82 1458.9" stroke="#000000" stroke-width="0.659666" fill="none" fill-rule="evenodd" transform="matrix(0.997205 -0.0872442 0.0871559 0.996195 -4367.62 -1010.81)"/><path d="M280.15 134.211C280.15 134.211 278.341 130.789 278.225 128.688" stroke="#000000" stroke-width="0.659999" fill="none" fill-rule="evenodd" transform="matrix(1 1.31603e-07 -1.31604e-07 1 -141.022 -53.0047)"/><path d="M4384.21 1466.38C4384.21 1466.38 4383.34 1462.86 4383.4 1460.76" stroke="#000000" stroke-width="0.659666" fill="none" fill-rule="evenodd" transform="matrix(0.997205 -0.0872442 0.0871559 0.996195 -4367.62 -1010.81)"/><path d="M4388.01 1459.67C4387.72 1459.64 4386.9 1457.21 4387.47 1455.15" stroke="#000000" stroke-width="0.659666" fill="none" fill-rule="evenodd" transform="matrix(0.997205 -0.0872442 0.0871559 0.996195 -4367.62 -1010.81)"/><path d="M4382.63 1456.86C4382.63 1456.86 4382.63 1455.32 4382.7 1453.22" stroke="#000000" stroke-width="0.659666" fill="none" fill-rule="evenodd" transform="matrix(0.997205 -0.0872442 0.0871559 0.996195 -4367.62 -1010.81)"/><path d="M4381.46 1439.32C4382.13 1437.74 4383.93 1435.62 4384.52 1435.1" stroke="#000000" stroke-width="0.659666" fill="none" fill-rule="evenodd" transform="matrix(0.997205 -0.0872442 0.0871559 0.996195 -4367.62 -1010.81)"/><path d="M4386.29 1441.16C4388.04 1437.87 4388.85 1434.15 4388.55 1435.39" stroke="#000000" stroke-width="0.659666" fill="none" fill-rule="evenodd" transform="matrix(0.997205 -0.0872442 0.0871559 0.996195 -4367.62 -1010.81)"/><path d="M4386.66 1451.22C4388.4 1447.93 4388.97 1444.82 4388.67 1446.06" stroke="#000000" stroke-width="0.659666" fill="none" fill-rule="evenodd" transform="matrix(0.997205 -0.0872442 0.0871559 0.996195 -4367.62 -1010.81)"/><path d="M4379.78 1446.71C4379.71 1445.03 4379.5 1443.82 4379.98 1441.53" stroke="#000000" stroke-width="0.659666" fill="none" fill-rule="evenodd" transform="matrix(0.997205 -0.0872442 0.0871559 0.996195 -4367.62 -1010.81)"/><path d="M290.757 192.472C290.798 192.464 289.176 190.765 289.355 185.212" stroke="#000000" stroke-width="0.659999" fill="none" fill-rule="evenodd" transform="matrix(1 1.31603e-07 -1.31604e-07 1 -141.022 -53.0047)"/><path d="M279.547 108.66C279.547 108.66 280.208 107.746 280.169 103.526" stroke="#000000" stroke-width="0.659999" fill="none" fill-rule="evenodd" transform="matrix(1 1.31603e-07 -1.31604e-07 1 -141.022 -53.0047)"/><path d="M274.157 92.4685C272.569 94.2457 276.24 107.927 279.79 88.1345" stroke="#000000" stroke-width="0.659999" fill="none" fill-rule="evenodd" transform="matrix(1 1.31603e-07 -1.31604e-07 1 -141.022 -53.0047)"/><path d="M4376.66 1496.95C4376.28 1499.34 4375.91 1511.84 4375.91 1511.84L4378.42 1494.45C4377.78 1491.69 4376.66 1496.95 4376.66 1496.95Z" stroke="#000000" stroke-width="0.439776" fill="none" fill-rule="evenodd" transform="matrix(0.997205 -0.0872442 0.0871559 0.996195 -4367.62 -1010.81)"/><path d="M4365.25 1491.85C4364.87 1494.24 4364.5 1506.75 4364.5 1506.75L4367.02 1489.36C4366.37 1486.59 4365.25 1491.85 4365.25 1491.85Z" stroke="#000000" stroke-width="0.439776" fill="none" fill-rule="evenodd" transform="matrix(0.997205 -0.0872442 0.0871559 0.996195 -4367.62 -1010.81)"/><path d="M4368.96 1467.69C4368.58 1470.08 4368.21 1482.59 4368.21 1482.59L4370.72 1465.2C4370.08 1462.43 4368.96 1467.69 4368.96 1467.69Z" stroke="#000000" stroke-width="0.439776" fill="none" fill-rule="evenodd" transform="matrix(0.997205 -0.0872442 0.0871559 0.996195 -4367.62 -1010.81)"/><path d="M4383.31 1469.96C4382.93 1472.36 4382.97 1484.93 4382.97 1484.93L4384.65 1467.39C4384.01 1464.63 4383.31 1469.96 4383.31 1469.96Z" stroke="#000000" stroke-width="0.439776" fill="none" fill-rule="evenodd" transform="matrix(0.997205 -0.0872442 0.0871559 0.996195 -4367.62 -1010.81)"/><path d="M4376.83 1470.9 4378.01 1461.23C4377.26 1461.44 4377.25 1461.78 4377.28 1461.11 4376.8 1463.17 4376.67 1467.96 4376.83 1470.9Z" stroke="#000000" stroke-width="0.439776" fill="none" fill-rule="evenodd" transform="matrix(0.997205 -0.0872442 0.0871559 0.996195 -4367.62 -1010.81)"/><path d="M4383.34 1488.36C4383.63 1490.93 4384.58 1500.39 4384.57 1500.62 4384.58 1500.42 4384.52 1491.22 4384.17 1488.19Z" stroke="#000000" stroke-width="0.439776" fill="none" fill-rule="evenodd" transform="matrix(0.997205 -0.0872442 0.0871559 0.996195 -4367.62 -1010.81)"/><path d="M4375.9 1477.99C4376.18 1480.56 4376.99 1490.56 4376.97 1490.78 4377.21 1490.57 4377.32 1481.89 4376.35 1478.89Z" stroke="#000000" stroke-width="0.439776" fill="none" fill-rule="evenodd" transform="matrix(0.997205 -0.0872442 0.0871559 0.996195 -4367.62 -1010.81)"/><path d="M4382.56 1506.28C4382.84 1508.85 4384.15 1520.65 4384.13 1520.88 4384.37 1520.68 4383.98 1510.17 4383.01 1507.18Z" stroke="#000000" stroke-width="0.439776" fill="none" fill-rule="evenodd" transform="matrix(0.997205 -0.0872442 0.0871559 0.996195 -4367.62 -1010.81)"/><path d="M4358.78 1502.87C4358.05 1505.34 4353.68 1518.53 4353.66 1518.76 4353.45 1518.51 4356.7 1506.45 4358.18 1503.68Z" stroke="#000000" stroke-width="0.439776" fill="none" fill-rule="evenodd" transform="matrix(0.997205 -0.0872442 0.0871559 0.996195 -4367.62 -1010.81)"/><path d="M4350.17 1509.13C4349.44 1511.6 4343.08 1522.96 4343.06 1523.19 4342.85 1522.94 4348.26 1511.29 4349.75 1508.52Z" stroke="#000000" stroke-width="0.439776" fill="none" fill-rule="evenodd" transform="matrix(0.997205 -0.0872442 0.0871559 0.996195 -4367.62 -1010.81)"/><path d="M4351.58 1522.9C4350.86 1525.37 4347.58 1530.49 4347.55 1530.72 4347.34 1530.47 4349.71 1525.34 4351.19 1522.57Z" stroke="#000000" stroke-width="0.439776" fill="none" fill-rule="evenodd" transform="matrix(0.997205 -0.0872442 0.0871559 0.996195 -4367.62 -1010.81)"/><path d="M4378.81 1518.13C4379.09 1520.7 4381.98 1529.65 4381.96 1529.89 4382.2 1529.68 4380.62 1522.16 4379.63 1519.18Z" stroke="#000000" stroke-width="0.439776" fill="none" fill-rule="evenodd" transform="matrix(0.997205 -0.0872442 0.0871559 0.996195 -4367.62 -1010.81)"/><path d="M4388.48 1515.74C4388.76 1518.31 4390.23 1528.79 4390.22 1529.03 4390.47 1528.82 4390.16 1519.93 4389.18 1516.94Z" stroke="#000000" stroke-width="0.439776" fill="none" fill-rule="evenodd" transform="matrix(0.997205 -0.0872442 0.0871559 0.996195 -4367.62 -1010.81)"/><path d="M4353.51 1481.36C4352.98 1483.01 4346.72 1493.1 4346.68 1493.41 4346.48 1493.15 4350.32 1485.67 4351.8 1482.9Z" stroke="#000000" stroke-width="0.439776" fill="none" fill-rule="evenodd" transform="matrix(0.997205 -0.0872442 0.0871559 0.996195 -4367.62 -1010.81)"/><path d="M4366.09 1461.74C4365.56 1463.39 4363.72 1469.68 4363.68 1469.99 4363.47 1469.73 4363.95 1464.72 4365.42 1461.94Z" stroke="#000000" stroke-width="0.439776" fill="none" fill-rule="evenodd" transform="matrix(0.997205 -0.0872442 0.0871559 0.996195 -4367.62 -1010.81)"/><path d="M4368.62 1452.91C4368.09 1454.56 4365.68 1459.14 4365.64 1459.45 4365.44 1459.19 4366.39 1455.6 4367.88 1452.83Z" stroke="#000000" stroke-width="0.439776" fill="none" fill-rule="evenodd" transform="matrix(0.997205 -0.0872442 0.0871559 0.996195 -4367.62 -1010.81)"/><path d="M4379.63 1447.26C4379.11 1448.91 4377.55 1458.21 4377.51 1458.5 4377.3 1458.26 4377.32 1451.6 4378.8 1448.82Z" stroke="#000000" stroke-width="0.439776" fill="none" fill-rule="evenodd" transform="matrix(0.997205 -0.0872442 0.0871559 0.996195 -4367.62 -1010.81)"/><path d="M4384.52 1443.1C4383.99 1444.75 4383.56 1451.22 4383.53 1451.51 4383.4 1451.26 4383.11 1446.13 4384.13 1443.43Z" stroke="#000000" stroke-width="0.439776" fill="none" fill-rule="evenodd" transform="matrix(0.997205 -0.0872442 0.0871559 0.996195 -4367.62 -1010.81)"/><path d="M4370.56 1442.12C4370.42 1443.8 4368.13 1450.32 4368.3 1450.64 4368.48 1450.41 4371.54 1444.64 4371 1441.8Z" stroke="#000000" stroke-width="0.439776" fill="none" fill-rule="evenodd" transform="matrix(0.997205 -0.0872442 0.0871559 0.996195 -4367.62 -1010.81)"/><path d="M4387.14 1460.03C4386.55 1462.87 4394 1478.84 4396.65 1478.52 4395.55 1478.84 4386.38 1463.46 4387.69 1459.83Z" stroke="#000000" stroke-width="0.439776" fill="none" fill-rule="evenodd" transform="matrix(0.997205 -0.0872442 0.0871559 0.996195 -4367.62 -1010.81)"/><path d="M4392.55 1487.67C4392.48 1488.64 4394.13 1492.23 4395.58 1495.18 4396.65 1497.36 4397.62 1499.19 4397.69 1499.33 4397.86 1499.1 4393.49 1489.48 4392.96 1486.64Z" stroke="#000000" stroke-width="0.439776" fill="none" fill-rule="evenodd" transform="matrix(0.997205 -0.0872442 0.0871559 0.996195 -4367.62 -1010.81)"/><path d="M4390.7 1496.12C4390.56 1497.81 4391.84 1506.86 4392.03 1507.17 4392.2 1506.93 4391.7 1499.75 4391.17 1496.91Z" stroke="#000000" stroke-width="0.439776" fill="none" fill-rule="evenodd" transform="matrix(0.997205 -0.0872442 0.0871559 0.996195 -4367.62 -1010.81)"/><path d="M4386.59 1502.04C4386.45 1503.73 4387.64 1511.33 4387.83 1511.65 4388 1511.42 4387.48 1504.23 4386.95 1501.39Z" stroke="#000000" stroke-width="0.439776" fill="none" fill-rule="evenodd" transform="matrix(0.997205 -0.0872442 0.0871559 0.996195 -4367.62 -1010.81)"/><path d="M4393.62 1508.97C4394.7 1512.89 4395.23 1513.07 4395.32 1513.37 4395.49 1513.13 4394.61 1511.44 4394.08 1508.6Z" stroke="#000000" stroke-width="0.439776" fill="none" fill-rule="evenodd" transform="matrix(0.997205 -0.0872442 0.0871559 0.996195 -4367.62 -1010.81)"/><path d="M4357.67 1491.75C4356.95 1494.22 4352.58 1507.41 4352.55 1507.64 4352.34 1507.4 4355.6 1495.34 4357.07 1492.56Z" stroke="#000000" stroke-width="0.439776" fill="none" fill-rule="evenodd" transform="matrix(0.997205 -0.0872442 0.0871559 0.996195 -4367.62 -1010.81)"/><path d="M4356.03 1485.6C4355.3 1488.07 4348.5 1500.5 4348.47 1500.73 4348.26 1500.48 4353.02 1489.96 4354.5 1487.18Z" stroke="#000000" stroke-width="0.439776" fill="none" fill-rule="evenodd" transform="matrix(0.997205 -0.0872442 0.0871559 0.996195 -4367.62 -1010.81)"/><path d="M4361.2 1470.33C4360.47 1472.8 4356.47 1477.05 4356.46 1477.28 4356.25 1477.04 4359.44 1472.36 4360.93 1469.58Z" stroke="#000000" stroke-width="0.439776" fill="none" fill-rule="evenodd" transform="matrix(0.997205 -0.0872442 0.0871559 0.996195 -4367.62 -1010.81)"/><path d="M4360.03 1463.93C4359.88 1467.53 4351.24 1473.82 4350.93 1473.47 4350.99 1473.55 4358.03 1468.14 4358.72 1464.41Z" stroke="#000000" stroke-width="0.439776" fill="none" fill-rule="evenodd" transform="matrix(0.997205 -0.0872442 0.0871559 0.996195 -4367.62 -1010.81)"/><path d="M4391.98 1478.11C4391.9 1479.08 4393.01 1479.81 4394.46 1482.75 4395.54 1484.93 4396.51 1486.76 4396.58 1486.9 4396.76 1486.67 4393.55 1481.61 4393.01 1478.77Z" stroke="#000000" stroke-width="0.439776" fill="none" fill-rule="evenodd" transform="matrix(0.997205 -0.0872442 0.0871559 0.996195 -4367.62 -1010.81)"/><path d="M4344.74 1527.96C4344.01 1530.43 4339.88 1536.57 4339.85 1536.8 4339.64 1536.56 4342.01 1531.42 4343.49 1528.66Z" stroke="#000000" stroke-width="0.439776" fill="none" fill-rule="evenodd" transform="matrix(0.997205 -0.0872442 0.0871559 0.996195 -4367.62 -1010.81)"/><path d="M4390.83 1530.44C4391.12 1533.01 4393.06 1540.46 4393.05 1540.68 4393.29 1540.48 4392.58 1532.97 4391.6 1529.99Z" stroke="#000000" stroke-width="0.439776" fill="none" fill-rule="evenodd" transform="matrix(0.997205 -0.0872442 0.0871559 0.996195 -4367.62 -1010.81)"/></g></svg>