<svg width="246" height="246" xmlns="http://www.w3.org/2000/svg" xmlns:xlink="http://www.w3.org/1999/xlink" overflow="hidden"><defs><clipPath id="clip0"><path d="M0 0 246 0 246 246 0 246Z" fill-rule="evenodd" clip-rule="evenodd"/></clipPath></defs><g clip-path="url(#clip0)"><rect x="0" y="0" width="246" height="246" fill="#FFFFFF"/><path d="M195.552 174.726C199.76 176.381 198.833 181.176 195.535 180.251 196.297 179.434 196.014 178.649 195.614 178.03 195.226 177.409 194.71 176.954 193.945 176.795 193.87 175.385 194.507 174.901 195.552 174.726L195.552 174.726Z" stroke="#FFFFFF" stroke-width="1.33514" stroke-miterlimit="8" fill="#FFFFFF" fill-rule="evenodd"/><path d="M181.473 181.754C181.65 181.87 181.929 181.917 182.161 181.992 182.53 182.114 182.874 182.239 183.206 182.353 183.928 182.575 184.451 182.827 184.921 183.024 189.438 184.938 190.05 183.087 190.05 183.087 190.31 182.791 190.55 182.543 190.743 182.431 191.197 182.165 191.482 182.164 191.723 182.191 192.551 182.261 192.274 183.857 192.274 183.857 191.676 186.147 193.935 186.64 193.935 186.64 198.797 187.869 198.514 184.227 198.514 184.227 198.379 182.68 196.955 180.567 195.096 179.337 193.603 178.348 191.799 178.423 191.799 178.423 190.965 178.424 188.913 179.354 188.913 179.354 186.735 180.604 182.211 179.702 182.211 179.702 184.3 179.745 185.861 177.692 185.861 177.692 189.046 178.283 190.386 175.356 190.386 175.356 195.383 178.538 196.618 175.632 196.618 175.632 196.464 171.694 190.781 171.834 190.781 171.834 188.136 171.839 186.394 173.17 186.394 173.17 181.268 176.952 177.677 176.218 177.677 176.218 173.28 176.222 161.181 152.462 161.181 152.462 161.181 152.462 150.679 147.917 154.591 156.276 156.284 158.592 160.107 164.709 164.149 169.915 169.156 176.345 173.963 181.709 170.873 181.801 170.873 181.801 164.422 180.663 164.585 184.422 164.585 184.422 165.252 191.78 169.152 188.558 169.152 188.558 169.789 187.931 169.787 185.598 169.787 185.598 173.062 187.347 175.786 185.383 175.786 185.383 176.086 186.094 180.028 185.928 180.028 185.928 180.945 189.74 186.94 189.489 186.94 189.489 186.387 190.252 186.888 192.303 186.888 192.303 192.865 198.375 193.607 193.644 193.607 193.644 194.349 185.377 181.473 181.754Z" stroke="#FFFFFF" stroke-width="1.33514" stroke-miterlimit="8" fill="#FFFFFF" fill-rule="evenodd"/><path d="M166.194 188.663C166.427 189.964 167.369 190.512 168.071 190.915 169.074 191.482 170.052 191.623 171.234 191.65 172.63 191.671 173.733 190.801 173.6 189.146 171.478 190.629 169.719 187.819 169.699 185.952 168.154 185.599 166.613 187.46 166.194 188.663L166.194 188.663Z" stroke="#FFFFFF" stroke-width="1.33514" stroke-miterlimit="8" fill="#FFFFFF" fill-rule="evenodd"/><path d="M192.151 194.975C191.451 198.952 182.345 197.701 182.622 193.916 185.731 195.132 187.022 193.412 187.24 191.953 189.59 191.58 191.516 193.709 192.151 194.975L192.151 194.975Z" stroke="#FFFFFF" stroke-width="1.33514" stroke-miterlimit="8" fill="#FFFFFF" fill-rule="evenodd"/><path d="M196.729 184.23C201.021 187.806 197.498 193.566 193.945 191.223 195.301 190.378 195.209 188.922 194.84 187.835 194.611 187.129 194.151 186.503 193.653 186.118 194.333 184.356 195.332 184.066 196.729 184.23L196.729 184.23Z" stroke="#FFFFFF" stroke-width="1.33514" stroke-miterlimit="8" fill="#FFFFFF" fill-rule="evenodd"/><path d="M146.678 150.147C154.012 157.564 153.408 163.735 153.408 163.735 153.408 163.735 158.203 163.113 156.172 156.375 156.172 156.375 156.678 159.854 161.241 160.526 161.586 159.972 161.474 157.054 160.568 154.467 160.568 154.467 164.579 160.817 169.937 158.73 169.937 158.73 162.623 152.763 158.622 146.245 145.763 138.728 146.678 150.147 146.678 150.147Z" stroke="#FFFFFF" stroke-width="1.33514" stroke-miterlimit="8" fill="#FFFFFF" fill-rule="evenodd"/><path d="M51.851 174.967C47.6345 176.621 48.5785 181.419 51.8703 180.5 51.1068 179.674 51.3837 178.888 51.7825 178.27 52.18 177.64 52.6888 177.191 53.4622 177.04 53.5293 175.63 52.9034 175.149 51.851 174.967L51.851 174.967Z" stroke="#FFFFFF" stroke-width="1.33514" stroke-miterlimit="8" fill="#FFFFFF" fill-rule="evenodd"/><path d="M65.9316 181.996C65.7508 182.107 65.4809 182.154 65.2377 182.235 64.8783 182.35 64.5329 182.487 64.1961 182.588 63.4776 182.817 62.9513 183.066 62.4915 183.261 57.9649 185.18 57.3622 183.329 57.3622 183.329 57.0975 183.03 56.8502 182.79 56.6616 182.676 56.2089 182.406 55.923 182.407 55.6866 182.428 54.8589 182.5 55.1293 184.095 55.1293 184.095 55.7222 186.377 53.467 186.883 53.467 186.883 48.6051 188.106 48.894 184.462 48.894 184.462 49.0326 182.915 50.4446 180.803 52.3036 179.581 53.801 178.581 55.6083 178.673 55.6083 178.673 56.4421 178.672 58.4895 179.599 58.4895 179.599 60.6721 180.849 65.1919 179.942 65.1919 179.942 63.0983 179.982 61.5494 177.939 61.5494 177.939 58.36 178.528 57.0192 175.598 57.0192 175.598 52.0185 178.773 50.7874 175.869 50.7874 175.869 50.9442 171.939 56.6276 172.073 56.6276 172.073 59.2733 172.08 61.0105 173.415 61.0105 173.415 66.1429 177.192 69.7252 176.462 69.7252 176.462 74.1215 176.458 86.2234 152.712 86.2234 152.712 86.2234 152.712 96.7278 148.162 92.8118 156.516 91.1196 158.83 87.2941 164.95 83.2578 170.16 78.2552 176.585 73.434 181.946 76.5406 182.044 76.5406 182.044 82.9828 180.909 82.8223 184.66 82.8223 184.66 82.1434 192.016 78.2515 188.798 78.2515 188.798 77.6132 188.175 77.6223 185.829 77.6223 185.829 74.345 187.592 71.6232 185.628 71.6232 185.628 71.3276 186.333 67.3809 186.166 67.3809 186.166 66.4637 189.984 60.4605 189.735 60.4605 189.735 61.0273 190.495 60.5153 192.54 60.5153 192.54 54.5403 198.609 53.794 193.889 53.794 193.889 53.0458 185.611 65.9316 181.996Z" stroke="#FFFFFF" stroke-width="1.33514" stroke-miterlimit="8" fill="#FFFFFF" fill-rule="evenodd"/><path d="M81.2156 188.897C80.9842 190.202 80.0433 190.749 79.34 191.156 78.3409 191.719 77.3527 191.865 76.1748 191.885 74.7821 191.9 73.6695 191.033 73.8106 189.378 75.9299 190.859 77.6991 188.062 77.7141 186.191 79.2554 185.83 80.8007 187.695 81.2156 188.897L81.2156 188.897Z" stroke="#FFFFFF" stroke-width="1.33514" stroke-miterlimit="8" fill="#FFFFFF" fill-rule="evenodd"/><path d="M55.2555 195.215C55.9499 199.202 65.062 197.94 64.7915 194.167 61.6805 195.38 60.3849 193.648 60.1752 192.202 57.8185 191.825 55.8952 193.945 55.2555 195.215L55.2555 195.215Z" stroke="#FFFFFF" stroke-width="1.33514" stroke-miterlimit="8" fill="#FFFFFF" fill-rule="evenodd"/><path d="M50.6689 184.475C46.3827 188.052 49.9005 193.803 53.4495 191.469 52.1004 190.623 52.1884 189.175 52.5565 188.071 52.7932 187.372 53.2391 186.75 53.7415 186.361 53.0628 184.599 52.0614 184.317 50.6689 184.475L50.6689 184.475Z" stroke="#FFFFFF" stroke-width="1.33514" stroke-miterlimit="8" fill="#FFFFFF" fill-rule="evenodd"/><path d="M98.9118 152.957C91.5773 160.372 94.0011 163.969 94.0011 163.969 94.0011 163.969 89.2049 163.353 91.2358 156.605 91.2358 156.605 90.7305 160.089 86.1661 160.762 85.8198 160.209 85.9332 157.283 86.8395 154.704 86.8395 154.704 81.7588 160.505 76.4056 158.426 77.724 158.513 84.0164 152.534 86.9667 145.944 99.833 138.426 98.9118 152.957 98.9118 152.957Z" stroke="#FFFFFF" stroke-width="1.33514" stroke-miterlimit="8" fill="#FFFFFF" fill-rule="evenodd"/><path d="M114.355 154.726C114.355 154.726 108.211 173.154 98.398 174.036 98.398 174.036 90.4204 173.556 91.2192 181.735 91.2192 181.735 88.6583 183.649 87.8636 178.243 87.8636 178.243 82.8358 184.516 91.6959 186.502 91.6959 186.502 112.92 176.73 116.584 155.686Z" stroke="#FFFFFF" stroke-width="1.33514" stroke-miterlimit="8" fill="#FFFFFF" fill-rule="evenodd"/><path d="M114.456 154.788C106.962 175.632 94.4125 180.098 94.2197 179.937 94.7479 180.39 110.569 173.281 115.204 155.163Z" stroke="#FFFFFF" stroke-width="1.33514" stroke-miterlimit="8" fill="#FFFFFF" fill-rule="evenodd"/><path d="M113.134 163.511C112.888 163.842 104.507 179.99 93.0614 185.634 93.0614 185.634 82.6479 189.723 82.4129 192.35 82.4129 192.35 80.2208 200.934 90.1498 198.113 90.2781 197.947 81.9352 195.332 88.1543 191.241 88.1543 191.241 89.397 198.227 99.89 187.143 99.89 187.143 112.099 174.16 114.734 164.502Z" stroke="#FFFFFF" stroke-width="1.33514" stroke-miterlimit="8" fill="#FFFFFF" fill-rule="evenodd"/><path d="M113.701 163.866C108.87 176.061 96.941 185.437 96.941 185.437 96.941 185.437 109.981 176.368 114.007 164.089Z" stroke="#FFFFFF" stroke-width="1.33514" stroke-miterlimit="8" fill="#FFFFFF" fill-rule="evenodd"/><path d="M132.041 154.726C132.041 154.726 138.182 173.163 148.004 174.029 148.004 174.029 155.982 173.557 155.184 181.733 155.184 181.733 157.734 183.641 158.536 178.238 158.536 178.238 163.553 184.513 154.707 186.501 154.707 186.501 133.477 176.729 129.813 155.683Z" stroke="#FFFFFF" stroke-width="1.33514" stroke-miterlimit="8" fill="#FFFFFF" fill-rule="evenodd"/><path d="M131.939 154.794C139.434 175.636 151.979 180.109 152.168 179.949 151.647 180.4 135.833 173.284 131.184 155.158Z" stroke="#FFFFFF" stroke-width="1.33514" stroke-miterlimit="8" fill="#FFFFFF" fill-rule="evenodd"/><path d="M133.251 163.513C133.493 163.836 141.878 179.994 153.321 185.635 153.321 185.635 163.735 189.723 163.965 192.345 163.965 192.345 166.169 200.925 156.235 198.104 156.114 197.948 164.452 195.326 158.22 191.241 158.22 191.241 156.985 198.229 146.495 187.148 146.495 187.148 134.289 174.158 131.658 164.509Z" stroke="#FFFFFF" stroke-width="1.33514" stroke-miterlimit="8" fill="#FFFFFF" fill-rule="evenodd"/><path d="M132.698 163.87C137.53 176.065 149.455 185.437 149.455 185.437 149.455 185.437 136.413 176.377 132.384 164.1Z" stroke="#FFFFFF" stroke-width="1.33514" stroke-miterlimit="8" fill="#FFFFFF" fill-rule="evenodd"/><path d="M167.432 207.183C173.468 199.097 164.786 199.547 164.786 199.547 143.283 200.274 133.123 170.5 133.123 170.5L129.127 172.349C129.127 172.349 141.539 197.915 148.699 202.799 148.699 202.799 154.232 208.303 164.099 205.999 164.099 205.999 168.392 204.266 167.432 207.183Z" stroke="#FFFFFF" stroke-width="1.33514" stroke-miterlimit="8" fill="#FFFFFF" fill-rule="evenodd"/><path d="M131.499 172.915C135.603 181.281 141.544 191.843 145.98 195.836 151.269 200.587 156.775 201.962 156.775 201.962 156.724 201.931 152.436 200.306 148.163 196.823 143.199 192.782 134.882 179.987 132.067 172.461Z" stroke="#FFFFFF" stroke-width="1.33514" stroke-miterlimit="8" fill="#FFFFFF" fill-rule="evenodd"/><path d="M129.891 176.723C129.891 176.723 144.243 228.687 163.556 209.868 163.556 209.868 170.339 215.488 159.012 216.36 159.012 216.36 166.832 222.794 170.109 213.271 170.109 213.271 172.026 206.032 161.493 206.037 161.356 206.109 150.43 205.97 146.083 200.41 146.083 200.41 140.008 191.848 135.673 184.252 133.999 181.327 131.983 177.754 131.707 175.969Z" stroke="#FFFFFF" stroke-width="1.33514" stroke-miterlimit="8" fill="#FFFFFF" fill-rule="evenodd"/><path d="M130.636 176.8C131.436 181.729 139.826 197.136 139.826 197.136 146.058 208.578 155.27 209.688 155.27 209.688 155.354 209.693 147.854 208.54 140.825 197.251 140.825 197.251 131.805 180.769 130.973 176.842" stroke="#FFFFFF" stroke-width="1.33514" stroke-miterlimit="8" fill="#FFFFFF" fill-rule="evenodd"/><path d="M77.3714 207.183C71.3375 199.093 80.0278 199.547 80.0278 199.547 101.515 200.274 112.07 168.652 112.07 168.652L115.799 172.182C115.799 172.182 103.275 197.918 96.1008 202.807 96.1008 202.807 90.5762 208.301 80.6996 205.999 80.6996 205.999 76.4135 204.267 77.3714 207.183Z" stroke="#FFFFFF" stroke-width="1.33514" stroke-miterlimit="8" fill="#FFFFFF" fill-rule="evenodd"/><path d="M113.031 172.007C108.926 180.378 102.995 191.717 98.5428 195.713 93.2636 200.472 88.0313 201.953 88.0313 201.953 88.0884 201.924 92.3787 200.299 96.6498 196.819 101.621 192.765 109.76 178.745 112.582 171.225Z" stroke="#FFFFFF" stroke-width="1.33514" stroke-miterlimit="8" fill="#FFFFFF" fill-rule="evenodd"/><path d="M114.909 176.725C114.909 176.725 100.558 228.688 81.2524 209.868 81.2524 209.868 74.453 215.498 85.7885 216.363 85.7885 216.363 77.963 222.797 74.6981 213.262 74.6981 213.262 72.7791 206.038 83.3119 206.033 83.4494 206.104 94.3758 205.97 98.7153 200.412 98.7153 200.412 104.782 191.847 109.133 184.253 110.808 181.333 113.218 177.42 113.491 175.634Z" stroke="#FFFFFF" stroke-width="1.33514" stroke-miterlimit="8" fill="#FFFFFF" fill-rule="evenodd"/><path d="M114.177 176.8C113.381 181.726 104.983 197.138 104.983 197.138 98.7625 208.573 89.5423 209.69 89.5423 209.69 89.4597 209.697 96.9604 208.541 103.981 197.261 103.981 197.261 113 180.772 113.836 176.842" stroke="#FFFFFF" stroke-width="1.33514" stroke-miterlimit="8" fill="#FFFFFF" fill-rule="evenodd"/><path d="M132.677 184.478C132.969 191.761 134.482 200.889 137.788 206.123 139.875 209.416 143.547 210.667 143.547 210.667 155.462 215.564 147.134 226.874 144.275 225.387 144.275 225.387 148.713 222.725 142.369 219.673 142.369 219.673 127.168 209.35 127.336 196.432L127.371 168.909 130.087 167.671C130.087 167.671 131.993 176.932 132.677 184.478Z" stroke="#FFFFFF" stroke-width="1.33514" stroke-miterlimit="8" fill="#FFFFFF" fill-rule="evenodd"/><path d="M128.349 169.608C127.951 179.356 129.685 189.643 131.614 197.117 133.413 204.065 134.102 204.993 134.768 204.84 134.768 204.84 133.944 203.59 132.261 196.881 130.199 188.706 128.564 177.779 129.735 169.915Z" stroke="#FFFFFF" stroke-width="1.33514" stroke-miterlimit="8" fill="#FFFFFF" fill-rule="evenodd"/><path d="M112.336 184.484C112.044 191.771 110.531 200.902 107.224 206.131 105.14 209.42 101.472 210.669 101.472 210.669 89.5459 215.581 97.8737 226.875 100.734 225.387 100.734 225.387 96.2966 222.74 102.641 219.673 102.641 219.673 117.835 209.345 117.684 196.443L117.646 168.914 114.929 167.676C114.929 167.676 113.01 176.938 112.336 184.484Z" stroke="#FFFFFF" stroke-width="1.33514" stroke-miterlimit="8" fill="#FFFFFF" fill-rule="evenodd"/><path d="M116.672 169.618C117.072 179.367 115.338 189.649 113.407 197.126 111.607 204.069 110.755 205.084 110.099 204.939 110.099 204.939 111.078 203.603 112.755 196.898 114.816 188.718 116.457 177.79 115.28 169.918Z" stroke="#FFFFFF" stroke-width="1.33514" stroke-miterlimit="8" fill="#FFFFFF" fill-rule="evenodd"/><path d="M115.099 218.645C121.129 248.34 126.62 232.79 129.495 219.623 122.274 195.508 116.476 214.763 115.099 218.645Z" stroke="#FFFFFF" stroke-width="1.33514" stroke-miterlimit="8" fill="#FFFFFF" fill-rule="evenodd"/><path d="M121.302 208.091C122.152 217.813 122.153 229.811 122.153 229.811 122.153 229.811 122.495 219.961 123.063 208.068L121.985 206.103Z" stroke="#FFFFFF" stroke-width="1.33514" stroke-miterlimit="8" fill="#FFFFFF" fill-rule="evenodd"/><path d="M127.673 163.93 127.06 190.695C127.137 223.993 135.54 217.759 135.54 217.759 127.22 229.164 122.25 206.816 122.25 206.816L122.054 205.94 121.871 206.706C121.871 206.706 116.905 229.067 108.578 217.654 108.578 217.654 116.988 223.893 117.054 190.594L116.452 163.829Z" stroke="#FFFFFF" stroke-width="1.33514" stroke-miterlimit="8" fill="#FFFFFF" fill-rule="evenodd"/><path d="M122.141 199.159C122.403 185.138 122.073 176.727 117.745 164.036L127.471 163.387C121.941 175.084 122.943 186.4 122.141 199.159Z" stroke="#FFFFFF" stroke-width="1.33514" stroke-miterlimit="8" fill="#FFFFFF" fill-rule="evenodd"/><path d="M118.477 163.685C121.827 182.914 125.292 171.029 126.624 162.151 121.006 155.144 118.477 163.685 118.477 163.685Z" stroke="#FFFFFF" stroke-width="1.33514" stroke-miterlimit="8" fill="#FFFFFF" fill-rule="evenodd"/><path d="M122.137 159.901C122.576 165.053 122.675 169.317 122.675 169.317 122.675 169.317 122.903 166.202 123.186 159.904Z" stroke="#FFFFFF" stroke-width="1.33514" stroke-miterlimit="8" fill="#FFFFFF" fill-rule="evenodd"/><path d="M125.788 161.855C131.998 183.535 134.349 168.724 134.306 158.027 127.724 151.163 125.788 161.855 125.788 161.855Z" stroke="#FFFFFF" stroke-width="1.33514" stroke-miterlimit="8" fill="#FFFFFF" fill-rule="evenodd"/><path d="M129.92 157.732C131.111 163.722 131.138 168.933 131.138 168.933 131.138 168.933 131.592 165.001 130.958 157.475Z" stroke="#FFFFFF" stroke-width="1.33514" stroke-miterlimit="8" fill="#FFFFFF" fill-rule="evenodd"/><path d="M119.604 161.73C112.793 182.216 111.017 168.313 111.063 158.215 118.288 151.727 119.604 161.73 119.604 161.73Z" stroke="#FFFFFF" stroke-width="1.33514" stroke-miterlimit="8" fill="#FFFFFF" fill-rule="evenodd"/><path d="M116.156 157.317C114.558 162.885 113.56 167.555 113.56 167.555 113.56 167.555 113.888 164.086 114.765 157.082Z" stroke="#FFFFFF" stroke-width="1.33514" stroke-miterlimit="8" fill="#FFFFFF" fill-rule="evenodd"/><path d="M26.4164 111.03C26.4164 111.03 29.1477 169.76 25.8192 172.027 25.8192 172.027 39.5839 165.109 39.7071 143.911 39.7071 143.911 40.2274 101.644 39.129 86.2305 24.3923 82.1752 26.4025 111.008 26.4164 111.03Z" stroke="#FFFFFF" stroke-width="1.33514" stroke-miterlimit="8" fill="#FFFFFF" fill-rule="evenodd"/><path d="M31.1674 98.7347C35.2051 112.201 33.0623 148.313 33.0623 148.313 33.0623 148.313 36.3021 110.439 32.382 97.0928Z" stroke="#FFFFFF" stroke-width="1.33514" stroke-miterlimit="8" fill="#FFFFFF" fill-rule="evenodd"/><path d="M39.675 107.037C39.675 107.037 39.7584 116.16 39.8251 127.546 39.886 137.23 40.0594 148.475 38.8055 157.976 36.9137 172.307 30.7089 179.015 29.349 180.087 29.349 180.087 52.4273 175.437 52.5497 151.096 52.5497 151.096 52.8016 140.766 52.9647 127.92 53.092 117.934 53.1706 106.44 53.0216 97.109 52.9611 92.6029 52.8384 88.6142 52.6397 85.5248 46.8916 87.9203 42.4137 81.682 40.5889 86.5672 38.8835 91.1802 39.674 107.026 39.674 107.026Z" stroke="#FFFFFF" stroke-width="1.33514" stroke-miterlimit="8" fill="#FFFFFF" fill-rule="evenodd"/><path d="M44.5896 92.9297C48.6227 108.385 46.4825 149.84 46.4825 149.84 46.4825 149.84 49.7216 106.372 45.8072 91.0497Z" stroke="#FFFFFF" stroke-width="1.33514" stroke-miterlimit="8" fill="#FFFFFF" fill-rule="evenodd"/><path d="M52.9781 96.0531C52.9781 96.0531 53.2527 119.348 52.7835 136.458 52.5982 142.783 52.9679 149.19 52.5836 154.33 52.0117 162.094 50.5632 167.327 49.5958 167.983 49.5958 167.983 64.3762 161.369 64.4875 140.171 64.4875 140.171 65.0854 103.969 63.9988 88.554 52.8418 92.5893 52.9781 96.0531 52.9781 96.0531Z" stroke="#FFFFFF" stroke-width="1.33514" stroke-miterlimit="8" fill="#FFFFFF" fill-rule="evenodd"/><path d="M55.9705 94.3027C60.0082 107.769 57.8542 144.572 57.8542 144.572 57.8542 144.572 61.0856 106.056 57.1658 92.7102Z" stroke="#FFFFFF" stroke-width="1.33514" stroke-miterlimit="8" fill="#FFFFFF" fill-rule="evenodd"/><path d="M64.4279 96.7171C64.4279 96.7171 64.5856 107.916 64.6018 118.997 64.6116 133.816 64.7307 151.386 62.8305 152.683 62.8305 152.683 75.1687 147.438 75.2922 126.239 75.2922 126.239 75.6842 101.303 74.5966 85.8764 63.4406 89.9234 64.4279 96.7171 64.4279 96.7171Z" stroke="#FFFFFF" stroke-width="1.33514" stroke-miterlimit="8" fill="#FFFFFF" fill-rule="evenodd"/><path d="M67.4737 90.808C71.5117 104.274 70.9136 137.073 70.9136 137.073 70.9136 137.073 72.1103 102.401 68.1901 89.055Z" stroke="#FFFFFF" stroke-width="1.33514" stroke-miterlimit="8" fill="#FFFFFF" fill-rule="evenodd"/><path d="M74.8592 93.6376C74.8592 93.6376 75.1764 104.073 75.1921 112.558 75.2094 123.925 76.3982 136.831 74.4959 137.83 74.4959 137.83 85.7757 134.38 85.8904 118.122 85.8904 118.122 86.5848 98.9561 85.491 87.1366 74.3349 90.2315 74.8592 93.6376 74.8592 93.6376Z" stroke="#FFFFFF" stroke-width="1.33514" stroke-miterlimit="8" fill="#FFFFFF" fill-rule="evenodd"/><path d="M78.9097 94.3068C82.9468 104.631 81.4931 126.422 81.4931 126.422 81.4931 126.422 84.0169 104.061 80.1065 93.8211Z" stroke="#FFFFFF" stroke-width="1.33514" stroke-miterlimit="8" fill="#FFFFFF" fill-rule="evenodd"/><path d="M85.9174 89.5507C85.9174 89.5507 85.9818 94.7824 85.9949 100.923 86.0116 109.147 87.697 118.606 85.9491 119.33 85.9491 119.33 95.6934 116.716 95.8075 104.945 95.8075 104.945 96.2463 94.7058 95.2477 86.1513 85.007 88.4043 85.9174 89.5507 85.9174 89.5507Z" stroke="#FFFFFF" stroke-width="1.33514" stroke-miterlimit="8" fill="#FFFFFF" fill-rule="evenodd"/><path d="M89.4037 87.7218C93.1079 95.1942 91.7826 110.963 91.7826 110.963 91.7826 110.963 94.0957 94.7746 90.4935 87.3763Z" stroke="#FFFFFF" stroke-width="1.33514" stroke-miterlimit="8" fill="#FFFFFF" fill-rule="evenodd"/><path d="M99.472 89.9214 106.28 67.0904C95.774 75.1634 90.8845 74.1629 90.8845 74.1629 86.535 74.2935 82.7464 68.8517 82.7464 68.8517 79.5389 65.0139 75.8734 65.3346 75.8734 65.3346 69.1209 65.3778 67.5742 62.1327 67.5742 62.1327 63.3861 56.8925 70.9773 50.503 70.9773 50.503 76.9804 44.6213 77.8879 41.1019 77.8879 41.1019 63.7807 31.8492 49.4901 26.898 34.3396 40.4481L27.7495 65.4977 30.3203 79.3544C30.3203 79.3544 36.5751 106.994 41.0975 85.0059 41.0975 85.0059 45.7861 110.676 52.1583 90.7635 52.1583 90.7635 54.6155 106.32 59.4818 93.0273 59.4818 93.0273 61.4824 109.767 69.146 90.0392 69.146 90.0392 68.4147 109.874 78.1295 91.3959 78.1295 91.3959 78.0775 106.601 86.6748 90.6006 85.8925 91.1927 87.6132 108.409 92.6292 90.9724 92.6292 90.9724 95.2787 107.5 99.472 89.9214Z" stroke="#FFFFFF" stroke-width="1.33514" stroke-miterlimit="8" fill="#FFFFFF" fill-rule="evenodd"/><path d="M30.7819 74.9954C31.7593 81.9446 33.1987 89.8178 32.9379 94.3282 32.1531 107.693 24.1486 111.535 24.1486 111.535 24.1486 111.535 26.1021 106.08 25.2708 99.1651 25.0241 97.163 24.0318 93.8574 23.7721 91.5708 23.2307 86.607 23.8201 79.9967 22.8925 76.3402L25.0769 74.8875 28.7517 75.3516Z" stroke="#FFFFFF" stroke-width="1.33514" stroke-miterlimit="8" fill="#FFFFFF" fill-rule="evenodd"/><path d="M26.1136 75.0222C26.7605 85.1429 27.9243 95.7183 27.9243 95.7183 27.9243 95.7183 27.4413 85.0238 27.509 75.1739Z" stroke="#FFFFFF" stroke-width="1.33514" stroke-miterlimit="8" fill="#FFFFFF" fill-rule="evenodd"/><path d="M33.3861 43.0666C34.3635 50.016 33.3484 59.1155 33.7422 63.6161 35.1809 80.3334 20.6713 79.5555 20.3229 78.7052 20.3229 78.7052 26.1951 70.9185 25.3509 63.9933 25.5503 56.7387 25.0428 46.0344 24.4195 43.5416L26.6039 42.0887 30.2788 42.5528Z" stroke="#FFFFFF" stroke-width="1.33514" stroke-miterlimit="8" fill="#FFFFFF" fill-rule="evenodd"/><path d="M27.6526 42.2226C28.2998 52.3433 29.4054 65.6615 29.4054 65.6615 29.4054 65.6615 28.9921 52.2233 29.0479 42.3743Z" stroke="#FFFFFF" stroke-width="1.33514" stroke-miterlimit="8" fill="#FFFFFF" fill-rule="evenodd"/><path d="M68.4317 22.6552C65.5419 21.4916 64.4788 19.692 61.9515 19.2703 43.0913 16.1591 31.7 31.5467 31.7 31.5467 31.4129 32.2146 30.6972 33.1581 30.305 33.7161 29.6043 34.6939 29.1717 35.196 28.6456 35.992 23.231 44.1077 17.7538 41.5634 17.7538 41.5634 17.7538 41.5634 23.2614 56.9843 53.4288 31.4908 54.0173 30.9989 54.6156 30.4823 55.2246 29.9528 55.2246 29.9528 56.8652 26.643 68.4317 22.6552Z" stroke="#FFFFFF" stroke-width="1.33514" stroke-miterlimit="8" fill="#FFFFFF" fill-rule="evenodd"/><path d="M67.2842 22.7433C67.2803 22.0175 49.9529 19.1293 36.0039 32.3839 36.0039 32.3839 48.2302 17.5541 66.9239 21.894 68.8401 22.8214 67.5828 22.2054 68.0696 22.4604Z" stroke="#FFFFFF" stroke-width="1.33514" stroke-miterlimit="8" fill="#FFFFFF" fill-rule="evenodd"/><path d="M79.5397 26.6232C78.3179 24.7779 74.7079 23.5583 73.6714 23.4228 60.2761 20.2619 50.8945 35.3309 42.2319 38.0528 42.0857 37.7442 40.2853 40.3181 44.308 40.8114 46.9948 41.1477 51.8122 41.4642 63.2917 35.9366 68.6172 33.3399 83.3795 33.0603 79.5397 26.6232Z" stroke="#FFFFFF" stroke-width="1.33514" stroke-miterlimit="8" fill="#FFFFFF" fill-rule="evenodd"/><path d="M74.6072 23.9001C75.8012 24.2004 76.1549 24.1575 76.1869 24.25 76.2504 24.4349 74.8284 24.5236 74.8284 24.5236 74.8284 24.5236 64.2143 25.095 54.7834 33.6097 65.0086 23.8234 75.0218 24.2805 74.6072 23.9001Z" stroke="#FFFFFF" stroke-width="1.33514" stroke-miterlimit="8" fill="#FFFFFF" fill-rule="evenodd"/><path d="M53.1217 53.5631C51.8906 63.5981 67.8172 49.9324 69.1316 49.02 77.0873 43.1222 82.1506 39.8463 80.3001 29.0451 78.9833 15.6263 55.3357 42.3708 53.1217 53.5631Z" stroke="#FFFFFF" stroke-width="1.33514" stroke-miterlimit="8" fill="#FFFFFF" fill-rule="evenodd"/><path d="M77.5035 25.1353C76.9206 31.1379 57.3518 51.9309 57.3518 51.9309 57.3518 51.9309 76.5703 32.716 78.4338 25.5539Z" stroke="#FFFFFF" stroke-width="1.33514" stroke-miterlimit="8" fill="#FFFFFF" fill-rule="evenodd"/><path d="M97.4659 80.8845C89.8863 91.6297 89.5267 80.4365 89.2681 80.3399 89.2681 80.3399 83.6341 98.0689 79.7871 76.1582 79.7871 76.1582 73.0953 101.133 67.746 75.4023 67.9357 75.8023 61.4814 94.3648 61.2832 73.1705 59.7538 79.3869 60.0478 82.6107 56.9929 83.1042 55.4378 83.1688 53.6808 80.3825 52.0875 71.5706 51.9083 71.8363 42.4754 89.588 41.0194 64.909 41.0194 64.909 35.3342 84.642 33.7292 68.4749" stroke="#FFFFFF" stroke-width="1.33514" stroke-miterlimit="8" fill="#FFFFFF" fill-rule="evenodd"/><path d="M55.0055 57.2449C59.8823 80.4343 63.6294 61.9778 63.1544 61.0432 65.2725 76.8083 70.733 68.1292 71.0462 66.126 73.7866 80.2891 79.2637 72.0728 79.8759 68.1746 83.4817 85.9639 86.816 74.0903 86.4833 73.9647 86.4833 73.9647 88.1546 82.1746 91.2449 75.8217 91.2449 75.8217 92.1368 84.5163 97.9022 75.9177 97.9022 75.9177 99.6733 82.6786 104.477 76.0211" stroke="#FFFFFF" stroke-width="1.33514" stroke-miterlimit="8" fill="#FFFFFF" fill-rule="evenodd"/><path d="M45.6129 40.8889C45.6129 40.8889 45.664 68.1668 53.6839 51.5624" stroke="#FFFFFF" stroke-width="1.33514" stroke-miterlimit="8" fill="#FFFFFF" fill-rule="evenodd"/><path d="M33.742 56.7947C33.742 56.7947 43.1066 55.5589 44.0953 40.7122" stroke="#FFFFFF" stroke-width="1.33514" stroke-miterlimit="8" fill="#FFFFFF" fill-rule="evenodd"/><path d="M37.4328 73.6506C37.6407 78.4769 37.4371 84.7321 37.4371 84.7321 37.6805 83.9728 38.751 80.2726 38.2925 72.4445Z" stroke="#FFFFFF" stroke-width="1.33514" stroke-miterlimit="8" fill="#FFFFFF" fill-rule="evenodd"/><path d="M49.5293 75.4373C49.5293 75.4373 48.6712 86.0587 47.8378 91.5119 48.1278 91.5579 49.6717 83.6024 51.28 72.9749 49.7591 75.4767 49.5293 75.4373 49.5293 75.4373Z" stroke="#FFFFFF" stroke-width="1.33514" stroke-miterlimit="8" fill="#FFFFFF" fill-rule="evenodd"/><path d="M56.1908 83.0682C56.3099 87.1525 55.6612 91.3159 55.6612 91.3159 55.6612 91.3159 56.4393 91.355 57.2544 83.1061Z" stroke="#FFFFFF" stroke-width="1.33514" stroke-miterlimit="8" fill="#FFFFFF" fill-rule="evenodd"/><path d="M63.2347 83.3566C62.2046 92.1481 62.6992 94.9378 62.6992 94.9378 62.7806 94.645 61.9965 95.7611 64.5518 82.6106 63.601 83.7294 63.2347 83.3566 63.2347 83.3566Z" stroke="#FFFFFF" stroke-width="1.33514" stroke-miterlimit="8" fill="#FFFFFF" fill-rule="evenodd"/><path d="M72.6124 86.8929C72.1538 95.1344 71.4619 96.3496 71.3806 96.5114 71.3806 96.5114 72.7303 95.5959 73.4772 86.972Z" stroke="#FFFFFF" stroke-width="1.33514" stroke-miterlimit="8" fill="#FFFFFF" fill-rule="evenodd"/><path d="M82.0364 84.5565C81.3749 92.3872 80.312 95.218 80.312 95.218 80.4285 95.0531 82.2429 91.5494 82.8157 85.9762Z" stroke="#FFFFFF" stroke-width="1.33514" stroke-miterlimit="8" fill="#FFFFFF" fill-rule="evenodd"/><path d="M89.9037 84.4514C89.6165 92.2019 88.4995 94.5492 88.4995 94.5492 88.6602 94.3448 90.4261 90.5597 90.5488 85.5616Z" stroke="#FFFFFF" stroke-width="1.33514" stroke-miterlimit="8" fill="#FFFFFF" fill-rule="evenodd"/><path d="M97.1717 80.899C97.6456 84.2738 96.5543 90.3209 95.1501 94.1576 96.0514 94.2454 98.5339 83.8034 98.06 80.4286Z" stroke="#FFFFFF" stroke-width="1.33514" stroke-miterlimit="8" fill="#FFFFFF" fill-rule="evenodd"/><path d="M41.0515 85.0468C41.297 84.5849 41.5493 81.3371 42.4973 74.4692" stroke="#FFFFFF" stroke-width="1.33514" stroke-miterlimit="8" fill="#FFFFFF" fill-rule="evenodd"/><path d="M52.0336 91.1212C52.2791 90.6593 53.12 86.5147 54.0682 79.647" stroke="#FFFFFF" stroke-width="1.33514" stroke-miterlimit="8" fill="#FFFFFF" fill-rule="evenodd"/><path d="M59.4316 93.1404C59.6772 92.6785 61.0814 88.4372 62.0285 81.5575" stroke="#FFFFFF" stroke-width="1.33514" stroke-miterlimit="8" fill="#FFFFFF" fill-rule="evenodd"/><path d="M68.475 92.3135C68.6133 91.8491 69.0653 91.024 70.4177 84.1446" stroke="#FFFFFF" stroke-width="1.33514" stroke-miterlimit="8" fill="#FFFFFF" fill-rule="evenodd"/><path d="M77.881 92.0857C78.019 91.6213 79.5147 88.0147 80.868 81.1471" stroke="#FFFFFF" stroke-width="1.33514" stroke-miterlimit="8" fill="#FFFFFF" fill-rule="evenodd"/><path d="M86.2848 91.7074C86.4238 91.2548 87.8361 87.7864 89.1885 80.9071" stroke="#FFFFFF" stroke-width="1.33514" stroke-miterlimit="8" fill="#FFFFFF" fill-rule="evenodd"/><path d="M92.525 91.9354C92.664 91.4828 92.3298 91.7501 93.6822 84.8706" stroke="#FFFFFF" stroke-width="1.33514" stroke-miterlimit="8" fill="#FFFFFF" fill-rule="evenodd"/><path d="M48.8643 57.0799C47.2555 64.1603 46.3573 71.8689 46.3573 71.8689 46.3573 71.8689 48.7824 63.9076 50.1791 56.5839Z" stroke="#FFFFFF" stroke-width="1.33514" stroke-miterlimit="8" fill="#FFFFFF" fill-rule="evenodd"/><path d="M36.1095 56.0768C36.4429 62.2015 35.9501 68.2797 35.9501 68.2797 35.9501 68.2797 37.1361 60.3198 37.1392 55.451Z" stroke="#FFFFFF" stroke-width="1.33514" stroke-miterlimit="8" fill="#FFFFFF" fill-rule="evenodd"/><path d="M58.3268 67.4416C57.0468 74.6004 56.5631 79.5587 56.5631 79.5587 56.5631 79.5587 57.5823 73.2323 58.6556 68.0676Z" stroke="#FFFFFF" stroke-width="1.33514" stroke-miterlimit="8" fill="#FFFFFF" fill-rule="evenodd"/><path d="M66.1934 69.7769C65.4086 75.1068 63.7623 77.8099 63.7623 77.8099 63.7623 77.8099 65.3673 72.7298 65.1286 68.7748Z" stroke="#FFFFFF" stroke-width="1.33514" stroke-miterlimit="8" fill="#FFFFFF" fill-rule="evenodd"/><path d="M73.8048 73.1465C74.3026 78.019 73.3097 83.5575 73.3097 83.5575 73.3097 83.5575 74.9118 79.2631 74.7872 74.0246Z" stroke="#FFFFFF" stroke-width="1.33514" stroke-miterlimit="8" fill="#FFFFFF" fill-rule="evenodd"/><path d="M85.4894 77.445C85.3808 83.0134 84.5749 85.1074 84.6223 85.1032 84.5975 85.0935 86.3018 82.0995 85.9469 76.2743Z" stroke="#FFFFFF" stroke-width="1.33514" stroke-miterlimit="8" fill="#FFFFFF" fill-rule="evenodd"/><path d="M93.196 79.4492C91.8022 82.4517 91.7893 84.3454 91.8248 84.3423 92.6566 82.1389 93.0437 79.891 93.196 79.4492Z" stroke="#FFFFFF" stroke-width="1.33514" stroke-miterlimit="8" fill="#FFFFFF" fill-rule="evenodd"/><path d="M40.9137 65.3571C41.1592 64.8952 43.7031 47.9365 44.651 41.0688" stroke="#FFFFFF" stroke-width="1.33514" stroke-miterlimit="8" fill="#FFFFFF" fill-rule="evenodd"/><path d="M51.9576 71.8668C52.4448 71.4434 55.1406 64.8036 55.0082 57.4351" stroke="#FFFFFF" stroke-width="1.33514" stroke-miterlimit="8" fill="#FFFFFF" fill-rule="evenodd"/><path d="M61.1806 73.5004C61.2988 72.9426 62.226 69.9212 63.1401 62.9374" stroke="#FFFFFF" stroke-width="1.33514" stroke-miterlimit="8" fill="#FFFFFF" fill-rule="evenodd"/><path d="M67.6521 75.827C67.8284 74.9784 68.0512 73.5781 67.9553 70.3012" stroke="#FFFFFF" stroke-width="1.33514" stroke-miterlimit="8" fill="#FFFFFF" fill-rule="evenodd"/><path d="M79.7343 76.4958C79.9728 75.2727 79.9827 72.1174 79.7846 69.4447" stroke="#FFFFFF" stroke-width="1.33514" stroke-miterlimit="8" fill="#FFFFFF" fill-rule="evenodd"/><path d="M89.1579 81.6474C89.2297 80.4269 89.2354 80.355 89.3918 78.0559" stroke="#FFFFFF" stroke-width="1.33514" stroke-miterlimit="8" fill="#FFFFFF" fill-rule="evenodd"/><path d="M37.5491 42.7015C36.6024 50.9499 35.5275 53.2341 35.4546 53.4906 35.4546 53.4906 37.6723 50.2373 38.4575 42.3244Z" stroke="#FFFFFF" stroke-width="1.33514" stroke-miterlimit="8" fill="#FFFFFF" fill-rule="evenodd"/><path d="M52.3309 40.182C50.1183 46.0773 49.3358 53.752 49.3358 53.752 49.3358 53.752 51.8679 42.6509 53.3526 40.0094Z" stroke="#FFFFFF" stroke-width="1.33514" stroke-miterlimit="8" fill="#FFFFFF" fill-rule="evenodd"/><path d="M58.768 56.1416C59.6376 62.2671 59.7595 65.5656 59.7595 65.5656 59.7595 65.5656 59.9904 59.082 59.6392 55.613Z" stroke="#FFFFFF" stroke-width="1.33514" stroke-miterlimit="8" fill="#FFFFFF" fill-rule="evenodd"/><path d="M67.0777 61.7713C67.665 64.1243 67.4449 68.6908 67.4449 68.6908 67.4449 68.6908 68.6469 66.3597 67.6553 62.2445 67.6553 62.2445 67.8369 62.0024 67.0777 61.7713Z" stroke="#FFFFFF" stroke-width="1.33514" stroke-miterlimit="8" fill="#FFFFFF" fill-rule="evenodd"/><path d="M75.0422 65.3598C75.6996 69.0637 75.208 72.0231 75.208 72.0231 75.208 72.0231 76.5208 68.7777 76.4874 65.4Z" stroke="#FFFFFF" stroke-width="1.33514" stroke-miterlimit="8" fill="#FFFFFF" fill-rule="evenodd"/><path d="M83.1663 69.5536C83.8241 73.2573 83.8084 76.2107 83.8084 76.2107 83.8084 76.2107 84.3578 74.3177 84.3255 70.9518Z" stroke="#FFFFFF" stroke-width="1.33514" stroke-miterlimit="8" fill="#FFFFFF" fill-rule="evenodd"/><path d="M87.9803 73.501C88.876 75.5653 88.9196 76.609 89.0149 77.0172 89.2683 76.7808 89.1967 75.1444 88.7066 73.9017Z" stroke="#FFFFFF" stroke-width="1.33514" stroke-miterlimit="8" fill="#FFFFFF" fill-rule="evenodd"/><path d="M94.7765 73.6802C95.3427 74.0234 94.4658 78.302 94.4623 78.3975 94.4216 78.3416 95.0672 76.321 95.5141 73.5323Z" stroke="#FFFFFF" stroke-width="1.33514" stroke-miterlimit="8" fill="#FFFFFF" fill-rule="evenodd"/><path d="M220.867 111.73C220.867 111.73 218.141 170.461 221.46 172.718 221.46 172.718 207.69 165.816 207.573 144.603 207.573 144.603 207.058 102.344 208.152 86.9285 222.894 82.8772 220.876 111.705 220.867 111.73Z" stroke="#FFFFFF" stroke-width="1.33514" stroke-miterlimit="8" fill="#FFFFFF" fill-rule="evenodd"/><path d="M216.122 99.4433C212.092 112.901 214.227 149.019 214.227 149.019 214.227 149.019 210.986 111.153 214.907 97.8117Z" stroke="#FFFFFF" stroke-width="1.33514" stroke-miterlimit="8" fill="#FFFFFF" fill-rule="evenodd"/><path d="M207.612 107.735C207.612 107.735 207.528 116.861 207.463 128.234 207.406 137.928 207.222 149.181 208.482 158.677 210.378 172.997 216.578 179.716 217.935 180.787 217.935 180.787 194.854 176.141 194.737 151.797 194.737 151.797 194.489 141.463 194.319 128.622 194.195 118.634 194.119 107.142 194.256 97.81 194.327 93.3044 194.454 89.3056 194.637 86.2305 200.387 88.6199 204.88 82.3704 206.691 87.2709 208.405 91.8822 207.612 107.735 207.612 107.735Z" stroke="#FFFFFF" stroke-width="1.33514" stroke-miterlimit="8" fill="#FFFFFF" fill-rule="evenodd"/><path d="M202.696 93.6305C198.662 109.089 200.799 150.539 200.799 150.539 200.799 150.539 197.568 107.066 201.483 91.749Z" stroke="#FFFFFF" stroke-width="1.33514" stroke-miterlimit="8" fill="#FFFFFF" fill-rule="evenodd"/><path d="M194.306 96.7578C194.306 96.7578 194.021 120.054 194.505 137.164 194.676 143.482 194.32 149.893 194.697 155.026 195.27 162.796 196.728 168.025 197.692 168.691 197.692 168.691 182.911 162.08 182.794 140.867 182.794 140.867 182.189 104.674 183.284 89.259 194.444 93.2939 194.306 96.7578 194.306 96.7578Z" stroke="#FFFFFF" stroke-width="1.33514" stroke-miterlimit="8" fill="#FFFFFF" fill-rule="evenodd"/><path d="M191.316 94.9952C187.286 108.453 189.435 145.272 189.435 145.272 189.435 145.272 186.208 106.75 190.117 93.4098Z" stroke="#FFFFFF" stroke-width="1.33514" stroke-miterlimit="8" fill="#FFFFFF" fill-rule="evenodd"/><path d="M182.852 97.4142C182.852 97.4142 182.701 108.616 182.68 119.688 182.666 134.509 182.548 152.089 184.448 153.375 184.448 153.375 172.11 148.133 171.994 126.932 171.994 126.932 171.588 101.994 172.682 86.5791 183.843 90.6259 182.852 97.4142 182.852 97.4142Z" stroke="#FFFFFF" stroke-width="1.33514" stroke-miterlimit="8" fill="#FFFFFF" fill-rule="evenodd"/><path d="M179.822 91.5129C175.792 104.971 176.386 137.772 176.386 137.772 176.386 137.772 175.188 103.107 179.097 89.7669Z" stroke="#FFFFFF" stroke-width="1.33514" stroke-miterlimit="8" fill="#FFFFFF" fill-rule="evenodd"/><path d="M172.43 94.3377C172.43 94.3377 172.104 104.77 172.096 113.258 172.078 124.627 170.896 137.538 172.793 138.527 172.793 138.527 161.517 135.073 161.393 118.812 161.393 118.812 160.707 99.6606 161.794 87.8407 172.955 90.9352 172.43 94.3377 172.43 94.3377Z" stroke="#FFFFFF" stroke-width="1.33514" stroke-miterlimit="8" fill="#FFFFFF" fill-rule="evenodd"/><path d="M168.379 95.0135C164.348 105.329 165.791 127.129 165.791 127.129 165.791 127.129 163.274 104.757 167.181 94.535Z" stroke="#FFFFFF" stroke-width="1.33514" stroke-miterlimit="8" fill="#FFFFFF" fill-rule="evenodd"/><path d="M161.373 90.2575C161.373 90.2575 161.306 95.4889 161.296 101.632 161.276 109.859 159.602 119.314 161.344 120.03 161.344 120.03 151.595 117.419 151.484 105.657 151.484 105.657 151.04 95.411 152.044 86.86 162.285 89.1065 161.373 90.2575 161.373 90.2575Z" stroke="#FFFFFF" stroke-width="1.33514" stroke-miterlimit="8" fill="#FFFFFF" fill-rule="evenodd"/><path d="M157.887 88.4196C154.18 95.886 155.512 111.66 155.512 111.66 155.512 111.66 153.202 95.4715 156.797 88.0746Z" stroke="#FFFFFF" stroke-width="1.33514" stroke-miterlimit="8" fill="#FFFFFF" fill-rule="evenodd"/><path d="M147.811 90.6201 141 67.7902C151.501 75.8704 156.406 74.8699 156.406 74.8699 160.754 74.9894 164.543 69.5515 164.543 69.5515 167.734 65.7132 171.409 66.0344 171.409 66.0344 178.168 66.0739 179.708 62.8325 179.708 62.8325 183.897 57.5976 176.307 51.2029 176.307 51.2029 170.312 45.3235 169.397 41.8087 169.397 41.8087 183.504 32.5398 197.799 27.5991 212.938 41.1538L219.537 66.1923 216.96 80.047C216.96 80.047 210.705 107.698 206.183 85.7036 206.183 85.7036 201.494 111.373 195.129 91.4676 195.129 91.4676 192.665 107.015 187.808 93.7271 187.808 93.7271 185.793 110.461 178.145 90.7276 178.145 90.7276 178.868 110.579 169.148 92.0862 169.148 92.0862 169.204 107.294 160.607 91.2979 161.397 91.8833 159.663 109.105 154.658 91.6637 154.658 91.6637 151.994 108.204 147.811 90.6201Z" stroke="#FFFFFF" stroke-width="1.33514" stroke-miterlimit="8" fill="#FFFFFF" fill-rule="evenodd"/><path d="M216.499 75.6969C215.523 82.6505 214.078 90.514 214.341 95.026 215.118 108.397 223.127 112.231 223.127 112.231 223.127 112.231 221.173 106.784 222.021 99.8654 222.263 97.8682 223.249 94.5562 223.502 92.2724 224.044 87.3089 223.466 80.6938 224.397 77.0412L222.197 75.5911 218.532 76.0546Z" stroke="#FFFFFF" stroke-width="1.33514" stroke-miterlimit="8" fill="#FFFFFF" fill-rule="evenodd"/><path d="M221.16 75.7288C220.509 85.8559 219.348 96.4205 219.348 96.4205 219.348 96.4205 219.82 85.7376 219.767 75.8745Z" stroke="#FFFFFF" stroke-width="1.33514" stroke-miterlimit="8" fill="#FFFFFF" fill-rule="evenodd"/><path d="M213.895 43.7595C212.919 50.7132 213.929 59.8022 213.548 64.3111 212.103 81.0189 226.608 80.2497 226.962 79.3974 226.962 79.3974 221.097 71.6021 221.934 64.6846 221.728 57.4296 222.234 46.7319 222.861 44.2369L220.673 42.7857 216.996 43.2502Z" stroke="#FFFFFF" stroke-width="1.33514" stroke-miterlimit="8" fill="#FFFFFF" fill-rule="evenodd"/><path d="M219.637 42.9234C218.986 53.0506 217.886 66.3594 217.886 66.3594 217.886 66.3594 218.296 52.9324 218.243 43.0691Z" stroke="#FFFFFF" stroke-width="1.33514" stroke-miterlimit="8" fill="#FFFFFF" fill-rule="evenodd"/><path d="M178.853 23.3501C181.741 22.1808 182.8 20.386 185.337 19.9737 204.189 16.8601 215.579 32.2425 215.579 32.2425 215.864 32.9081 216.578 33.8573 216.985 34.4169 217.678 35.3919 218.115 35.8892 218.637 36.6887 224.054 44.809 229.527 42.259 229.527 42.259 229.527 42.259 224.024 57.6789 193.853 32.1913 193.262 31.6954 192.668 31.176 192.062 30.6458 192.062 30.6458 190.426 27.3369 178.853 23.3501Z" stroke="#FFFFFF" stroke-width="1.33514" stroke-miterlimit="8" fill="#FFFFFF" fill-rule="evenodd"/><path d="M180.004 23.4393C180 22.7135 197.334 19.8282 211.279 33.0825 211.279 33.0825 199.055 18.2492 180.358 22.587 178.449 23.5158 179.706 22.894 179.216 23.1512Z" stroke="#FFFFFF" stroke-width="1.33514" stroke-miterlimit="8" fill="#FFFFFF" fill-rule="evenodd"/><path d="M167.748 27.3213C168.969 25.4765 172.58 24.2559 173.616 24.1178 187.019 20.9573 196.392 36.0281 205.053 38.7461 205.193 38.4363 207.004 41.0156 202.984 41.5102 200.284 41.8415 195.475 42.1671 183.993 36.6366 178.667 34.0436 163.915 33.763 167.748 27.3213Z" stroke="#FFFFFF" stroke-width="1.33514" stroke-miterlimit="8" fill="#FFFFFF" fill-rule="evenodd"/><path d="M172.68 24.5921C171.491 24.8867 171.131 24.8586 171.102 24.9445 171.035 25.1288 172.461 25.2184 172.461 25.2184 172.461 25.2184 183.067 25.7784 192.51 34.2962 182.277 24.5143 172.261 24.974 172.68 24.5921Z" stroke="#FFFFFF" stroke-width="1.33514" stroke-miterlimit="8" fill="#FFFFFF" fill-rule="evenodd"/><path d="M194.161 54.2575C195.396 64.291 179.474 50.6263 178.154 49.7063 170.203 43.8074 165.127 40.5377 166.983 29.7458 168.31 16.3217 191.943 43.0602 194.161 54.2575Z" stroke="#FFFFFF" stroke-width="1.33514" stroke-miterlimit="8" fill="#FFFFFF" fill-rule="evenodd"/><path d="M169.774 25.835C170.358 31.8309 189.932 52.6274 189.932 52.6274 189.932 52.6274 170.7 33.4198 168.845 26.2496Z" stroke="#FFFFFF" stroke-width="1.33514" stroke-miterlimit="8" fill="#FFFFFF" fill-rule="evenodd"/><path d="M146.955 76.3402C158.126 96.0271 157.718 81.1479 158.007 81.0511 158.007 81.0511 163.657 98.7808 167.496 76.8762 167.496 76.8762 174.184 101.847 179.535 76.1086 179.344 76.5181 185.794 95.0824 186 73.8765 187.533 80.0987 187.231 83.3153 190.29 83.8214 191.844 83.8758 193.602 81.0914 195.191 72.2868 195.38 72.5439 204.81 90.3001 206.26 65.6167 206.26 65.6167 211.942 85.3433 213.556 69.1921" stroke="#FFFFFF" stroke-width="1.33514" stroke-miterlimit="8" fill="#FFFFFF" fill-rule="evenodd"/><path d="M192.279 57.9475C187.408 81.1326 183.661 62.6773 184.128 61.7556 182.004 77.5109 176.55 68.8343 176.231 66.8268 173.503 80.9924 168.018 72.771 167.402 68.873 163.799 86.6621 160.474 74.7998 160.807 74.6636 160.807 74.6636 159.131 82.8805 156.049 76.5202 156.049 76.5202 154.062 83.6336 148.304 75.0312 148.304 75.0312 143.726 81.3953 142.113 71.4068" stroke="#FFFFFF" stroke-width="1.33514" stroke-miterlimit="8" fill="#FFFFFF" fill-rule="evenodd"/><path d="M201.669 41.5907C201.669 41.5907 201.625 68.8648 193.595 52.2601" stroke="#FFFFFF" stroke-width="1.33514" stroke-miterlimit="8" fill="#FFFFFF" fill-rule="evenodd"/><path d="M213.535 57.4908C213.535 57.4908 204.168 56.2511 203.179 41.4108" stroke="#FFFFFF" stroke-width="1.33514" stroke-miterlimit="8" fill="#FFFFFF" fill-rule="evenodd"/><path d="M209.851 74.3491C209.641 79.1762 209.855 85.4306 209.855 85.4306 209.599 84.6794 208.536 80.9752 208.982 73.1395Z" stroke="#FFFFFF" stroke-width="1.33514" stroke-miterlimit="8" fill="#FFFFFF" fill-rule="evenodd"/><path d="M197.758 76.1454C197.758 76.1454 198.627 86.7585 199.45 92.2215 199.156 92.2592 197.615 84.3117 196.006 73.6918 197.535 76.1887 197.758 76.1454 197.758 76.1454Z" stroke="#FFFFFF" stroke-width="1.33514" stroke-miterlimit="8" fill="#FFFFFF" fill-rule="evenodd"/><path d="M191.096 83.7635C190.976 87.8448 191.627 92.0136 191.627 92.0136 191.627 92.0136 190.844 92.0465 190.027 83.8094Z" stroke="#FFFFFF" stroke-width="1.33514" stroke-miterlimit="8" fill="#FFFFFF" fill-rule="evenodd"/><path d="M184.055 84.0582C185.086 92.8478 184.592 95.6408 184.592 95.6408 184.506 95.3388 185.285 96.4729 182.738 83.3045 183.683 84.4359 184.055 84.0582 184.055 84.0582Z" stroke="#FFFFFF" stroke-width="1.33514" stroke-miterlimit="8" fill="#FFFFFF" fill-rule="evenodd"/><path d="M174.677 87.5928C175.124 95.8385 175.826 97.0507 175.911 97.2099 175.911 97.2099 174.556 96.2929 173.815 87.6802Z" stroke="#FFFFFF" stroke-width="1.33514" stroke-miterlimit="8" fill="#FFFFFF" fill-rule="evenodd"/><path d="M165.25 85.2633C165.911 93.0973 166.98 95.92 166.98 95.92 166.858 95.7521 165.039 92.2569 164.468 86.6768Z" stroke="#FFFFFF" stroke-width="1.33514" stroke-miterlimit="8" fill="#FFFFFF" fill-rule="evenodd"/><path d="M157.375 85.1545C157.66 92.9025 158.783 95.2562 158.783 95.2562 158.622 95.0443 156.849 91.2593 156.721 86.2593Z" stroke="#FFFFFF" stroke-width="1.33514" stroke-miterlimit="8" fill="#FFFFFF" fill-rule="evenodd"/><path d="M150.105 81.6004C150.45 85.2721 150.624 89.8398 151.749 93.5742 151.135 93.7826 149.476 83.9409 149.274 80.2686Z" stroke="#FFFFFF" stroke-width="1.33514" stroke-miterlimit="8" fill="#FFFFFF" fill-rule="evenodd"/><path d="M206.236 85.7474C205.994 85.2926 205.745 82.0409 204.799 75.1721" stroke="#FFFFFF" stroke-width="1.33514" stroke-miterlimit="8" fill="#FFFFFF" fill-rule="evenodd"/><path d="M195.244 91.816C195.002 91.3611 194.15 87.21 193.204 80.3412" stroke="#FFFFFF" stroke-width="1.33514" stroke-miterlimit="8" fill="#FFFFFF" fill-rule="evenodd"/><path d="M187.855 93.8435C187.612 93.3885 186.203 89.1313 185.257 82.2627" stroke="#FFFFFF" stroke-width="1.33514" stroke-miterlimit="8" fill="#FFFFFF" fill-rule="evenodd"/><path d="M178.808 93.0043C178.674 92.5518 178.219 91.7108 176.867 84.8418" stroke="#FFFFFF" stroke-width="1.33514" stroke-miterlimit="8" fill="#FFFFFF" fill-rule="evenodd"/><path d="M169.4 92.7918C169.265 92.3394 167.769 88.7208 166.417 81.8518" stroke="#FFFFFF" stroke-width="1.33514" stroke-miterlimit="8" fill="#FFFFFF" fill-rule="evenodd"/><path d="M161.001 92.4076C160.866 91.9551 159.442 88.4849 158.102 81.6149" stroke="#FFFFFF" stroke-width="1.33514" stroke-miterlimit="8" fill="#FFFFFF" fill-rule="evenodd"/><path d="M154.766 92.6438C154.631 92.1914 154.963 92.4479 153.611 85.579" stroke="#FFFFFF" stroke-width="1.33514" stroke-miterlimit="8" fill="#FFFFFF" fill-rule="evenodd"/><path d="M198.415 57.7793C200.024 64.8638 200.923 72.558 200.923 72.558 200.923 72.558 198.5 64.6044 197.096 57.2758Z" stroke="#FFFFFF" stroke-width="1.33514" stroke-miterlimit="8" fill="#FFFFFF" fill-rule="evenodd"/><path d="M211.172 56.77C210.838 62.8937 211.334 68.9687 211.334 68.9687 211.334 68.9687 210.138 61.0148 210.141 56.1461Z" stroke="#FFFFFF" stroke-width="1.33514" stroke-miterlimit="8" fill="#FFFFFF" fill-rule="evenodd"/><path d="M188.955 68.1423C190.225 75.3041 190.718 80.2602 190.718 80.2602 190.718 80.2602 189.699 73.9334 188.628 68.766Z" stroke="#FFFFFF" stroke-width="1.33514" stroke-miterlimit="8" fill="#FFFFFF" fill-rule="evenodd"/><path d="M181.091 70.4729C181.868 75.8089 183.522 78.5092 183.522 78.5092 183.522 78.5092 181.909 73.4246 182.16 69.4748Z" stroke="#FFFFFF" stroke-width="1.33514" stroke-miterlimit="8" fill="#FFFFFF" fill-rule="evenodd"/><path d="M173.475 73.8537C172.984 78.7293 173.968 84.2615 173.968 84.2615 173.968 84.2615 172.366 79.9737 172.49 74.7253Z" stroke="#FFFFFF" stroke-width="1.33514" stroke-miterlimit="8" fill="#FFFFFF" fill-rule="evenodd"/><path d="M161.79 78.1376C161.896 83.7109 162.71 85.7942 162.651 85.7994 162.685 85.7845 160.97 82.7921 161.343 76.9744Z" stroke="#FFFFFF" stroke-width="1.33514" stroke-miterlimit="8" fill="#FFFFFF" fill-rule="evenodd"/><path d="M154.349 79.5742C154.968 82.5674 155.458 85.036 155.458 85.036 155.458 85.036 154.338 82.5867 153.476 79.5435 154.654 79.6548 154.073 79.8246 154.349 79.5742Z" stroke="#FFFFFF" stroke-width="1.33514" stroke-miterlimit="8" fill="#FFFFFF" fill-rule="evenodd"/><path d="M206.36 66.0584C206.118 65.6035 203.573 48.6377 202.627 41.7691" stroke="#FFFFFF" stroke-width="1.33514" stroke-miterlimit="8" fill="#FFFFFF" fill-rule="evenodd"/><path d="M195.323 72.5599C194.833 72.1385 192.143 65.4939 192.273 58.1263" stroke="#FFFFFF" stroke-width="1.33514" stroke-miterlimit="8" fill="#FFFFFF" fill-rule="evenodd"/><path d="M186.1 74.2004C185.98 73.6396 185.048 70.6143 184.139 63.6352" stroke="#FFFFFF" stroke-width="1.33514" stroke-miterlimit="8" fill="#FFFFFF" fill-rule="evenodd"/><path d="M179.631 76.5284C179.45 75.6873 179.231 74.2779 179.338 71.0071" stroke="#FFFFFF" stroke-width="1.33514" stroke-miterlimit="8" fill="#FFFFFF" fill-rule="evenodd"/><path d="M167.546 77.1929C167.308 75.9639 167.295 72.8225 167.49 70.151" stroke="#FFFFFF" stroke-width="1.33514" stroke-miterlimit="8" fill="#FFFFFF" fill-rule="evenodd"/><path d="M158.119 82.351C158.047 81.1194 158.042 81.0603 157.889 78.7645" stroke="#FFFFFF" stroke-width="1.33514" stroke-miterlimit="8" fill="#FFFFFF" fill-rule="evenodd"/><path d="M209.729 43.4089C210.677 51.6583 211.747 53.9453 211.829 54.2 211.829 54.2 209.602 50.9429 208.827 43.0355Z" stroke="#FFFFFF" stroke-width="1.33514" stroke-miterlimit="8" fill="#FFFFFF" fill-rule="evenodd"/><path d="M194.946 40.8812C197.154 46.7707 197.945 54.4506 197.945 54.4506 197.945 54.4506 195.413 43.3521 193.93 40.7083Z" stroke="#FFFFFF" stroke-width="1.33514" stroke-miterlimit="8" fill="#FFFFFF" fill-rule="evenodd"/><path d="M188.514 56.8478C187.644 62.9708 187.527 66.2663 187.527 66.2663 187.527 66.2663 187.294 59.7875 187.646 56.3167Z" stroke="#FFFFFF" stroke-width="1.33514" stroke-miterlimit="8" fill="#FFFFFF" fill-rule="evenodd"/><path d="M180.212 62.4669C179.632 64.8269 179.852 69.3903 179.852 69.3903 179.852 69.3903 178.635 67.0566 179.633 62.9341 179.633 62.9341 179.458 62.6995 180.212 62.4669Z" stroke="#FFFFFF" stroke-width="1.33514" stroke-miterlimit="8" fill="#FFFFFF" fill-rule="evenodd"/><path d="M172.244 66.0567C171.592 69.768 172.077 72.7253 172.077 72.7253 172.077 72.7253 170.767 69.4713 170.806 66.0991Z" stroke="#FFFFFF" stroke-width="1.33514" stroke-miterlimit="8" fill="#FFFFFF" fill-rule="evenodd"/><path d="M164.114 70.244C163.462 73.9555 163.482 76.9058 163.482 76.9058 163.482 76.9058 162.923 75.0144 162.962 71.6425Z" stroke="#FFFFFF" stroke-width="1.33514" stroke-miterlimit="8" fill="#FFFFFF" fill-rule="evenodd"/><path d="M159.301 74.2007C158.396 76.2557 158.357 77.3066 158.274 77.7185 158.015 77.4794 158.086 75.8424 158.585 74.5966Z" stroke="#FFFFFF" stroke-width="1.33514" stroke-miterlimit="8" fill="#FFFFFF" fill-rule="evenodd"/><path d="M152.885 74.4169C152.32 74.7639 153.466 78.4726 153.462 78.5564 153.505 78.505 152.636 77.0216 152.189 74.2278Z" stroke="#FFFFFF" stroke-width="1.33514" stroke-miterlimit="8" fill="#FFFFFF" fill-rule="evenodd"/><path d="M136.948 134.841C142.192 141.393 139.779 145.687 139.779 145.687 141.917 146.429 142.673 144.446 142.673 144.446 145.605 146.225 146.144 154.427 146.144 154.427 150.902 151.749 148.335 147.188 148.335 147.188 153.034 150.241 155.073 148.075 155.321 144.923 157.333 148.437 163.728 153.031 167.331 150.216 163.854 151.199 158.345 139.302 158.345 139.302 163.268 140.823 162.966 138.469 162.966 138.469 156.537 140.293 151.93 122.913 151.93 122.913 153.778 124.965 154.494 123.748 154.803 123.744 153.366 124.204 148.971 113.875 148.971 113.875 150.409 111.523 147.386 107.205 147.386 107.205 150.265 103.477 149.124 101.732 149.124 101.732 152.454 97.7152 148.67 89.5949 148.67 89.5949 149.5 87.2369 146.118 81.6763 146.118 81.6763 147.4 81.7547 148.245 81.2046 148.291 81.3195 145.964 80.8686 141.65 70.7829 143.104 70.7867 146.041 72.7556 146.798 70.6539 147.234 70.592 142.7 71.0719 142.577 54.9539 142.577 54.9539 144.736 56.0743 146.074 55.0287 145.975 55.1208 142.436 54.9781 140.097 36.685 140.159 36.5844 132.589 18.8322 113.537 34.7711 113.537 34.7711 113.537 34.7711 113.463 41.4196 108.926 43.626 108.926 43.626 110.149 44.8044 111.751 43.7834 111.751 43.7834 113.039 48.5629 107.158 52.1603 107.158 52.1603 108.899 54.0792 110.184 52.836 110.184 52.836 107.315 61.4432 102.032 62.8933 101.801 62.6994 103.417 64.8314 106.642 63.6922 106.642 63.6922 104.371 70.0092 99.1556 71.1439 99.1556 71.1439 99.8013 74.3014 103.122 72.63 103.122 72.63 100.889 79.646 96.7376 80.414 98.0225 81.7537 99.6162 82.4 101.024 81.872 101.024 81.872 97.2526 87.7965 98.0781 90.1525 98.0781 90.1525 94.2963 98.2682 97.6276 102.298 97.6276 102.298 96.4931 104.04 99.3676 107.752 99.3676 107.752 96.3394 112.088 97.7723 114.438 97.7723 114.438 92.8579 124.867 91.4239 124.409 91.7216 124.407 92.5522 126.001 94.398 123.946 94.398 123.946 90.2168 140.846 83.7902 139.028 83.7902 139.028 83.4833 141.376 88.403 139.862 88.403 139.862 82.9023 151.758 79.4205 150.778 83.0259 153.581 88.8829 149.843 90.8874 146.334 91.1526 149.501 93.1752 151.645 97.8777 148.603 97.8777 148.603 96.4377 152.3 101.201 154.99 101.201 154.99 100.767 146.077 103.71 144.308 103.71 144.308 104.563 146.292 106.702 145.546 106.702 145.546 104.3 141.245 109.542 134.703 109.542 134.703 112.198 143.268 109.045 145.365 109.045 145.365 110.747 146.704 111.72 145.845 111.72 145.845 112.036 159.256 107.978 161.087 107.978 161.087 112.62 164.299 115.936 158.617 116.525 158.673 119.357 168.709 123.53 158.941 123.797 158.989 126.31 167.423 129.942 159.094 129.942 159.094 133.788 165.328 137.378 160.872 137.583 160.759 134.059 162.162 134.806 147.134 134.806 147.134 137.212 147.674 138.118 145.63 138.118 145.63 132.029 141.818 136.948 134.841Z" stroke="#FFFFFF" stroke-width="1.33514" stroke-miterlimit="8" fill="#FFFFFF" fill-rule="evenodd"/><path d="M98.3338 33.299 107.143 26.9458 111.343 32.4584Z" stroke="#FFFFFF" stroke-width="1.33514" stroke-miterlimit="8" fill="#FFFFFF" fill-rule="evenodd"/><path d="M136.493 36.0785C141.537 42.9339 144.835 38.0031 144.835 38.0031 140.889 39.0625 141.126 34.6853 141.126 34.6853 140.94 26.2978 134.653 26.2169 134.653 26.2169 138.152 26.3037 139.049 23.6183 139.049 23.6183 137.415 24.416 136.167 22.8111 136.167 22.8111 145.183 22.9033 143.045 14.5437 143.045 14.5437 140.796 20.2993 137.563 17.523 137.563 17.523 135.695 16.1985 129.844 17.1389 129.844 17.1389 134.028 17.0229 134.089 12.5538 134.089 12.5538 132.566 15.8413 127.703 13.5053 123.066 12.1255 117.127 10.4311 109.175 9.97221 106.965 18.4859L106.532 24.0231 116.675 33.5985C116.675 33.5985 118.902 42.1647 120.503 42.0722 120.503 42.0722 123.464 41.8726 124.237 34.3655 124.237 34.3655 125.991 36.1641 125.164 37.0578 125.164 37.0578 128.634 34.7782 128.482 33.4466 128.482 33.4466 130.317 39.0352 128.665 40.5726 128.665 40.5726 132.218 39.2379 131.692 36.2248 131.692 36.2248 135.906 41.4864 136.113 43.5871 136.113 43.5871 137.141 40.2118 136.493 36.0785Z" stroke="#FFFFFF" stroke-width="1.33514" stroke-miterlimit="8" fill="#FFFFFF" fill-rule="evenodd"/><path d="M119.197 19.26C119.197 19.26 117.225 15.5164 112.769 16.7395 110.579 17.4549 109.043 18.2796 110.516 20.2696 111.852 21.7834 114.454 20.1988 116.214 19.4854 117.729 18.9599 119.197 19.26 119.197 19.26Z" stroke="#FFFFFF" stroke-width="1.33514" stroke-miterlimit="8" fill="#FFFFFF" fill-rule="evenodd"/><path d="M113.06 16.7973C110.858 17.5137 109.312 18.0894 110.785 20.0794 112.133 21.5922 114.313 19.961 116.074 19.2476 117.438 17.2714 115.018 16.3046 113.06 16.7973Z" stroke="#FFFFFF" stroke-width="1.33514" stroke-miterlimit="8" fill="#FFFFFF" fill-rule="evenodd"/><path d="M114.494 18.498C114.494 19.0503 114.046 19.498 113.494 19.498 112.942 19.498 112.494 19.0503 112.494 18.498 112.494 17.9457 112.942 17.498 113.494 17.498 114.046 17.498 114.494 17.9457 114.494 18.498Z" stroke="#FFFFFF" stroke-width="1.33514" stroke-miterlimit="8" fill="#FFFFFF" fill-rule="evenodd"/><path d="M110.011 31.6701 105.295 27.0596C102.518 24.6123 100.584 26.8766 100.6 26.7919 99.2378 28.2442 97.99 27.3298 97.99 27.3298 96.8322 25.6693 95.4758 25.9665 95.4758 25.9665 93.603 25.9399 91.9106 27.7069 91.7814 27.7301 91.7814 27.7301 89.8461 17.8649 106.129 17.5355 106.129 17.5355 108.227 16.8639 108.229 21.3751 108.229 21.3751 107.721 23.8834 112.591 26.9688 112.591 26.9688 122.854 35.5935 112.861 34.4204 112.861 34.4204 111.149 34.3203 109.729 34.7064 107.366 35.3535 105.32 36.342 104.045 36.3344 104.045 36.3344 96.8103 37.134 94.6423 32.6458 94.6423 32.6458 97.7823 33.9422 101.7 32.552 101.7 32.552 104.725 31.5851 110.011 31.6701Z" stroke="#FFFFFF" stroke-width="1.33514" stroke-miterlimit="8" fill="#FFFFFF" fill-rule="evenodd"/><path d="M104.646 26.6048C102.99 27.4162 102.766 27.8524 101.84 28.3024 99.3931 29.4806 98.2652 29.6627 98.2652 29.6627 87.0216 32.027 84.5684 26.052 84.5684 26.052 84.5684 26.052 83.1353 33.9145 92.4305 33.7916 92.4305 33.7916 94.4546 33.9122 97.4483 33.4003 100.265 32.9158 103.875 31.9572 107.277 29.029Z" stroke="#FFFFFF" stroke-width="1.33514" stroke-miterlimit="8" fill="#FFFFFF" fill-rule="evenodd"/><path d="M142.46 54.8415C142.46 54.8415 135.829 53.4099 132.423 44.9828 132.423 44.9828 128.722 52.6628 127.664 43.7088 127.664 43.7088 122.9 54.8982 120.366 43.776 119.992 44.273 115.989 52.8602 115.092 41.9162 115.021 41.7915 113.368 42.5076 111.847 43.7833" stroke="#FFFFFF" stroke-width="1.33514" stroke-miterlimit="8" fill="#FFFFFF" fill-rule="evenodd"/><path d="M142.761 59.1008C140.299 68.5531 138.702 57.9204 138.702 57.9204 135.71 66.074 133.513 54.7201 133.513 54.7201 128.948 62.6065 126.567 51.1854 126.567 51.1854 122.129 60.6559 120.581 51.6854 120.581 51.6854 113.376 67.528 112.531 49.9614 113.714 49.1912 113.714 49.1912 109.675 55.1867 107.179 51.9888" stroke="#FFFFFF" stroke-width="1.33514" stroke-miterlimit="8" fill="#FFFFFF" fill-rule="evenodd"/><path d="M103.385 63.7725C106.745 65.407 111.431 60.4141 111.431 60.4141 111.431 60.4141 109.028 76.6583 120.952 59.5932 120.952 59.5932 125.494 72.1584 129.921 59.9749 130.462 60.0229 131.694 72.473 135.327 62.6563 135.327 62.6563 143.716 74.5043 146.925 70.7358" stroke="#FFFFFF" stroke-width="1.33514" stroke-miterlimit="8" fill="#FFFFFF" fill-rule="evenodd"/><path d="M146.191 81.6923C136.134 81.6914 132.344 69.2863 132.344 69.2863 125.366 87.0376 118.935 69.2335 118.979 68.3726 110.928 87.2175 109.075 70.2509 109.07 68.9776 108.861 68.9007 100.247 76.4034 99.1531 70.9762" stroke="#FFFFFF" stroke-width="1.33514" stroke-miterlimit="8" fill="#FFFFFF" fill-rule="evenodd"/><path d="M148.854 89.1136C144.902 95.5539 139.016 82.6183 139.016 82.6183 133.718 101.603 125.565 80.9978 125.6 80.852 117.497 100.737 111.458 81.4225 111.542 80.4748 111.542 80.4748 101.862 93.0821 105.771 79.6109 105.771 79.6109 102.881 81.7088 99.5083 81.98" stroke="#FFFFFF" stroke-width="1.33514" stroke-miterlimit="8" fill="#FFFFFF" fill-rule="evenodd"/><path d="M142.173 87.7703C142.173 87.7703 141.473 102.794 134.638 90.4531" stroke="#FFFFFF" stroke-width="1.33514" stroke-miterlimit="8" fill="#FFFFFF" fill-rule="evenodd"/><path d="M132.065 90.1903C132.065 90.1903 129.609 105.427 121.424 88.1454" stroke="#FFFFFF" stroke-width="1.33514" stroke-miterlimit="8" fill="#FFFFFF" fill-rule="evenodd"/><path d="M149.115 101.626C149.115 101.626 145.533 105.486 140.028 95.8265 140.028 95.8265 138.532 115.907 128.851 96.3638 128.378 96.2623 120.517 113.329 117.311 90.3029 117.217 90.1802 106.745 105.178 109.389 87.187 109.553 87.018 100.127 101.305 105.007 85.3088 105.007 85.3088 98.9498 93.9805 98.035 90.0611" stroke="#FFFFFF" stroke-width="1.33514" stroke-miterlimit="8" fill="#FFFFFF" fill-rule="evenodd"/><path d="M138.253 103.029C138.253 103.029 141.674 116.383 147.353 107.209" stroke="#FFFFFF" stroke-width="1.33514" stroke-miterlimit="8" fill="#FFFFFF" fill-rule="evenodd"/><path d="M142.79 110.239C142.79 110.239 141.731 124.282 134.4 107.354 134.4 107.354 128.202 126.942 122.528 105.536 122.528 105.536 114.887 133.689 111.04 106.065 111.04 106.065 104.532 123.061 101.809 109.099 101.809 109.099 99.9942 118.59 97.5785 114.266" stroke="#FFFFFF" stroke-width="1.33514" stroke-miterlimit="8" fill="#FFFFFF" fill-rule="evenodd"/><path d="M117.459 89.9688C117.459 89.9688 111.624 118.738 109.271 95.6608 109.271 95.6608 102.021 113.436 98.6399 106.661" stroke="#FFFFFF" stroke-width="1.33514" stroke-miterlimit="8" fill="#FFFFFF" fill-rule="evenodd"/><path d="M97.1859 101.622C97.1859 101.622 100.271 105.018 104.5 93.019" stroke="#FFFFFF" stroke-width="1.33514" stroke-miterlimit="8" fill="#FFFFFF" fill-rule="evenodd"/><path d="M148.92 113.952C148.92 113.952 146.579 117.978 142.34 112.969" stroke="#FFFFFF" stroke-width="1.33514" stroke-miterlimit="8" fill="#FFFFFF" fill-rule="evenodd"/><path d="M115.652 118.173C115.652 118.173 124.026 143.484 129.314 116.085 129.314 116.085 141.056 137.114 140.52 115.866 140.52 115.866 150.431 134.223 147.252 115.325 147.252 115.325 150.955 124.821 154.741 123.978" stroke="#FFFFFF" stroke-width="1.33514" stroke-miterlimit="8" fill="#FFFFFF" fill-rule="evenodd"/><path d="M94.1584 124.219C94.4777 123.786 99.4475 119.709 102.769 112.729" stroke="#FFFFFF" stroke-width="1.33514" stroke-miterlimit="8" fill="#FFFFFF" fill-rule="evenodd"/><path d="M114.269 117.782C114.269 117.782 101.432 140.212 104.538 114.562" stroke="#FFFFFF" stroke-width="1.33514" stroke-miterlimit="8" fill="#FFFFFF" fill-rule="evenodd"/><path d="M95.9859 122.501C95.9859 122.501 93.6291 138.598 104.114 124.432" stroke="#FFFFFF" stroke-width="1.33514" stroke-miterlimit="8" fill="#FFFFFF" fill-rule="evenodd"/><path d="M88.068 140.001C88.068 140.001 99.932 135.059 104.003 124.656" stroke="#FFFFFF" stroke-width="1.33514" stroke-miterlimit="8" fill="#FFFFFF" fill-rule="evenodd"/><path d="M90.5797 146.924C90.1511 146.926 93.5934 144.054 94.1659 136.433" stroke="#FFFFFF" stroke-width="1.33514" stroke-miterlimit="8" fill="#FFFFFF" fill-rule="evenodd"/><path d="M127.471 123.198C127.471 123.198 137.901 144.08 138.214 126.15 138.214 126.15 144.849 138.925 146.661 123.685" stroke="#FFFFFF" stroke-width="1.33514" stroke-miterlimit="8" fill="#FFFFFF" fill-rule="evenodd"/><path d="M145.382 129.476C145.382 129.476 155.64 140.91 162.174 139.731" stroke="#FFFFFF" stroke-width="1.33514" stroke-miterlimit="8" fill="#FFFFFF" fill-rule="evenodd"/><path d="M110.253 123.621C110.253 123.621 115.866 149.651 122.391 128.618" stroke="#FFFFFF" stroke-width="1.33514" stroke-miterlimit="8" fill="#FFFFFF" fill-rule="evenodd"/><path d="M108.812 145.15C108.812 145.15 112.12 149.872 117.261 136.995" stroke="#FFFFFF" stroke-width="1.33514" stroke-miterlimit="8" fill="#FFFFFF" fill-rule="evenodd"/><path d="M121.432 131.404C121.432 131.404 128.54 150.137 131.433 129.958" stroke="#FFFFFF" stroke-width="1.33514" stroke-miterlimit="8" fill="#FFFFFF" fill-rule="evenodd"/><path d="M136.773 132.967C136.773 132.967 140.574 145.359 143.561 130.873" stroke="#FFFFFF" stroke-width="1.33514" stroke-miterlimit="8" fill="#FFFFFF" fill-rule="evenodd"/><path d="M155.327 145.366C155.327 145.366 154.798 144.079 153.937 137.096" stroke="#FFFFFF" stroke-width="1.33514" stroke-miterlimit="8" fill="#FFFFFF" fill-rule="evenodd"/><path d="M142.702 144.613C142.702 144.613 144.949 139.251 141.843 136.023" stroke="#FFFFFF" stroke-width="1.33514" stroke-miterlimit="8" fill="#FFFFFF" fill-rule="evenodd"/><path d="M148.475 147.406C148.132 147.567 146.555 142.348 143.422 139.361" stroke="#FFFFFF" stroke-width="1.33514" stroke-miterlimit="8" fill="#FFFFFF" fill-rule="evenodd"/><path d="M145.654 141.986C145.654 141.986 152.384 145.373 148.859 138.171 148.859 138.171 152.92 145.91 154.203 139.465" stroke="#FFFFFF" stroke-width="1.33514" stroke-miterlimit="8" fill="#FFFFFF" fill-rule="evenodd"/><path d="M115.969 158.726C115.969 158.726 118.851 152.986 114.796 142.461" stroke="#FFFFFF" stroke-width="1.33514" stroke-miterlimit="8" fill="#FFFFFF" fill-rule="evenodd"/><path d="M135.058 147.139C135.058 147.139 131.577 147.944 129.334 137.963" stroke="#FFFFFF" stroke-width="1.33514" stroke-miterlimit="8" fill="#FFFFFF" fill-rule="evenodd"/><path d="M130.092 159.43C130.092 159.43 128.056 154.276 131.264 143.544" stroke="#FFFFFF" stroke-width="1.33514" stroke-miterlimit="8" fill="#FFFFFF" fill-rule="evenodd"/><path d="M116.291 139.247C116.291 139.247 121.639 155.562 125.7 138.388" stroke="#FFFFFF" stroke-width="1.33514" stroke-miterlimit="8" fill="#FFFFFF" fill-rule="evenodd"/><path d="M129.502 152.554C122.654 168.116 122.068 151.479 122.068 151.479 122.068 151.479 119.077 161.834 116.938 152.499" stroke="#FFFFFF" stroke-width="1.33514" stroke-miterlimit="8" fill="#FFFFFF" fill-rule="evenodd"/><path d="M122.6 145.575C122.6 145.575 126.176 158.666 130.348 146.969" stroke="#FFFFFF" stroke-width="1.33514" stroke-miterlimit="8" fill="#FFFFFF" fill-rule="evenodd"/><path d="M109.474 134.748C109.474 134.748 109.126 130.767 107.303 126.689" stroke="#FFFFFF" stroke-width="1.33514" stroke-miterlimit="8" fill="#FFFFFF" fill-rule="evenodd"/><path d="M100.15 130.874C100.15 130.874 98.5488 145.798 108.709 130.768" stroke="#FFFFFF" stroke-width="1.33514" stroke-miterlimit="8" fill="#FFFFFF" fill-rule="evenodd"/><path d="M101.324 137.211C101.324 137.211 95.6047 150.151 93.5675 140.485" stroke="#FFFFFF" stroke-width="1.33514" stroke-miterlimit="8" fill="#FFFFFF" fill-rule="evenodd"/><path d="M103.788 144.4C103.788 144.4 101.786 142.075 103.809 136.601" stroke="#FFFFFF" stroke-width="1.33514" stroke-miterlimit="8" fill="#FFFFFF" fill-rule="evenodd"/><path d="M97.687 149.707C98.1762 149.985 98.5782 141.915 101.782 137.54" stroke="#FFFFFF" stroke-width="1.33514" stroke-miterlimit="8" fill="#FFFFFF" fill-rule="evenodd"/><path d="M122.516 109.844C122.41 112.223 122.867 124.5 122.867 124.5L123.5 107.248C122.938 104.598 122.516 109.844 122.516 109.844Z" stroke="#FFFFFF" stroke-width="1.33514" stroke-miterlimit="8" fill="#FFFFFF" fill-rule="evenodd"/><path d="M126.5 127.188C127.405 130.913 127.5 136.5 127.5 136.5 127.5 136.5 127.5 130.505 127.405 125.5Z" stroke="#FFFFFF" stroke-width="1.33514" stroke-miterlimit="8" fill="#FFFFFF" fill-rule="evenodd"/><path d="M121.5 133.24C121.5 133.24 121.629 140.909 121.5 143.5 121.5 143.5 122.722 136.202 122.464 133.293L122.014 132.5Z" stroke="#FFFFFF" stroke-width="1.33514" stroke-miterlimit="8" fill="#FFFFFF" fill-rule="evenodd"/><path d="M115.495 118.58C115.071 122.723 116.582 132.364 116.582 132.364 116.636 131.621 116.213 123.385 116.533 120.096Z" stroke="#FFFFFF" stroke-width="1.33514" stroke-miterlimit="8" fill="#FFFFFF" fill-rule="evenodd"/><path d="M121.946 152.132C121.946 152.132 122.58 149.839 122.364 146.156" stroke="#FFFFFF" stroke-width="1.33514" stroke-miterlimit="8" fill="#FFFFFF" fill-rule="evenodd"/><path d="M118.5 143.5C118.575 143.933 119.676 150.143 119.476 153.5 119.476 153.5 119.576 147.688 119.075 144.691Z" stroke="#FFFFFF" stroke-width="1.33514" stroke-miterlimit="8" fill="#FFFFFF" fill-rule="evenodd"/><path d="M119.5 156.987C119.5 156.987 120.353 160.878 119.828 162.5 119.828 162.5 120.878 158.689 120.353 156.5Z" stroke="#FFFFFF" stroke-width="1.33514" stroke-miterlimit="8" fill="#FFFFFF" fill-rule="evenodd"/><path d="M128.389 157.5C128.785 159.032 127.994 161.5 127.994 161.5L127.5 158.138Z" stroke="#FFFFFF" stroke-width="1.33514" stroke-miterlimit="8" fill="#FFFFFF" fill-rule="evenodd"/><path d="M125.823 151.5C125.863 153.564 125.661 157.347 125.5 157.5 125.5 157.5 126.71 152.838 126.468 151.882Z" stroke="#FFFFFF" stroke-width="1.33514" stroke-miterlimit="8" fill="#FFFFFF" fill-rule="evenodd"/><path d="M127.824 139.575C128.292 142.002 127.5 148.276 127.5 148.5 127.5 148.313 128.94 142.375 128.364 139.5Z" stroke="#FFFFFF" stroke-width="1.33514" stroke-miterlimit="8" fill="#FFFFFF" fill-rule="evenodd"/><path d="M122.456 106.887C122.456 106.887 122.775 105.764 122.548 102.082" stroke="#FFFFFF" stroke-width="1.33514" stroke-miterlimit="8" fill="#FFFFFF" fill-rule="evenodd"/><path d="M134.437 107.493C134.295 107.363 134.647 107.166 134.695 104.317" stroke="#FFFFFF" stroke-width="1.33514" stroke-miterlimit="8" fill="#FFFFFF" fill-rule="evenodd"/><path d="M111.106 106.547C110.963 106.417 110.806 106.252 110.853 103.391" stroke="#FFFFFF" stroke-width="1.33514" stroke-miterlimit="8" fill="#FFFFFF" fill-rule="evenodd"/><path d="M101.73 109.701 101.985 107.714" stroke="#FFFFFF" stroke-width="1.33514" stroke-miterlimit="8" fill="#FFFFFF" fill-rule="evenodd"/><path d="M109.239 87.3898C109.239 87.3898 111.547 84.7597 111.32 81.0776" stroke="#FFFFFF" stroke-width="1.33514" stroke-miterlimit="8" fill="#FFFFFF" fill-rule="evenodd"/><path d="M105.594 80.0543C105.666 79.9171 109.955 74.6019 109.568 72.4932" stroke="#FFFFFF" stroke-width="1.33514" stroke-miterlimit="8" fill="#FFFFFF" fill-rule="evenodd"/><path d="M111.178 80.9465C112.048 79.5968 114.954 75.7597 115.39 75.1621" stroke="#FFFFFF" stroke-width="1.33514" stroke-miterlimit="8" fill="#FFFFFF" fill-rule="evenodd"/><path d="M126.551 83.0061C124.47 78.5697 124.712 77.513 124.712 76.8344" stroke="#FFFFFF" stroke-width="1.33514" stroke-miterlimit="8" fill="#FFFFFF" fill-rule="evenodd"/><path d="M118.722 68.9774C119.593 67.6276 121.062 61.4046 121.498 60.807" stroke="#FFFFFF" stroke-width="1.33514" stroke-miterlimit="8" fill="#FFFFFF" fill-rule="evenodd"/><path d="M120.511 51.9767C120.755 51.2174 121.073 49.5469 121.842 47.7179" stroke="#FFFFFF" stroke-width="1.33514" stroke-miterlimit="8" fill="#FFFFFF" fill-rule="evenodd"/><path d="M114.851 42.032C115.498 41.5349 117.126 39.845 117.894 38.0043" stroke="#FFFFFF" stroke-width="1.33514" stroke-miterlimit="8" fill="#FFFFFF" fill-rule="evenodd"/><path d="M120.948 59.557C121.595 59.06 121.631 57.1523 122.4 55.3116" stroke="#FFFFFF" stroke-width="1.33514" stroke-miterlimit="8" fill="#FFFFFF" fill-rule="evenodd"/><path d="M111.288 60.557C111.936 60.0599 113.135 58.372 113.903 56.5312" stroke="#FFFFFF" stroke-width="1.33514" stroke-miterlimit="8" fill="#FFFFFF" fill-rule="evenodd"/><path d="M113.363 49.8165C113.724 49.1778 114.875 47.3511 115.731 45.5623" stroke="#FFFFFF" stroke-width="1.33514" stroke-miterlimit="8" fill="#FFFFFF" fill-rule="evenodd"/><path d="M120.255 44.1424C120.616 43.5039 120.173 43.614 121.029 41.825" stroke="#FFFFFF" stroke-width="1.33514" stroke-miterlimit="8" fill="#FFFFFF" fill-rule="evenodd"/><path d="M108.788 69.4419C108.627 69.2299 111.102 66.3351 111.254 64.3935" stroke="#FFFFFF" stroke-width="1.33514" stroke-miterlimit="8" fill="#FFFFFF" fill-rule="evenodd"/><path d="M139.5 83.5C139.5 83.5 138.561 80.4015 138.5 78.5" stroke="#FFFFFF" stroke-width="1.33514" stroke-miterlimit="8" fill="#FFFFFF" fill-rule="evenodd"/><path d="M132.484 69.7852C132.484 69.7852 131.349 66.4802 131.232 64.4551" stroke="#FFFFFF" stroke-width="1.33514" stroke-miterlimit="8" fill="#FFFFFF" fill-rule="evenodd"/><path d="M135.574 63.0152C135.288 63.0163 134.303 60.7458 134.673 58.7135" stroke="#FFFFFF" stroke-width="1.33514" stroke-miterlimit="8" fill="#FFFFFF" fill-rule="evenodd"/><path d="M130.157 60.7632C130.157 60.7632 130.028 59.2865 129.923 57.2603" stroke="#FFFFFF" stroke-width="1.33514" stroke-miterlimit="8" fill="#FFFFFF" fill-rule="evenodd"/><path d="M127.558 43.9913C128.064 42.4234 129.624 40.2277 130.148 39.682" stroke="#FFFFFF" stroke-width="1.33514" stroke-miterlimit="8" fill="#FFFFFF" fill-rule="evenodd"/><path d="M132.361 45.3568C133.763 42.0441 134.23 38.3964 134.051 39.6144" stroke="#FFFFFF" stroke-width="1.33514" stroke-miterlimit="8" fill="#FFFFFF" fill-rule="evenodd"/><path d="M133.562 55.0012C134.964 51.6884 135.247 48.6521 135.067 49.8701" stroke="#FFFFFF" stroke-width="1.33514" stroke-miterlimit="8" fill="#FFFFFF" fill-rule="evenodd"/><path d="M126.56 51.245C126.348 49.6328 126.045 48.4928 126.313 46.2435" stroke="#FFFFFF" stroke-width="1.33514" stroke-miterlimit="8" fill="#FFFFFF" fill-rule="evenodd"/><path d="M150.499 139.5C150.557 139.492 148.267 137.854 148.519 132.5" stroke="#FFFFFF" stroke-width="1.33514" stroke-miterlimit="8" fill="#FFFFFF" fill-rule="evenodd"/><path d="M139.5 58.5C139.5 58.5 140.56 57.6098 140.497 53.5" stroke="#FFFFFF" stroke-width="1.33514" stroke-miterlimit="8" fill="#FFFFFF" fill-rule="evenodd"/><path d="M133.88 43.5921C132.295 45.2701 135.958 58.1872 139.5 39.5" stroke="#FFFFFF" stroke-width="1.33514" stroke-miterlimit="8" fill="#FFFFFF" fill-rule="evenodd"/><path d="M127.784 99.8266C127.619 102.162 128.317 114.219 128.317 114.219L129.266 97.2806C128.418 94.6766 127.784 99.8266 127.784 99.8266Z" stroke="#FFFFFF" stroke-width="1.33514" stroke-miterlimit="8" fill="#FFFFFF" fill-rule="evenodd"/><path d="M116.369 95.8851C116.204 98.2206 116.902 110.277 116.902 110.277L117.862 93.3381C117.003 90.7351 116.369 95.8851 116.369 95.8851Z" stroke="#FFFFFF" stroke-width="1.33514" stroke-miterlimit="8" fill="#FFFFFF" fill-rule="evenodd"/><path d="M117.907 72.335C117.742 74.6706 118.44 86.7271 118.44 86.7271L119.389 69.7892C118.541 67.1851 117.907 72.335 117.907 72.335Z" stroke="#FFFFFF" stroke-width="1.33514" stroke-miterlimit="8" fill="#FFFFFF" fill-rule="evenodd"/><path d="M131.911 73.3121C131.746 75.6477 132.852 87.7399 132.852 87.7399L132.984 70.7303C132.137 68.1263 131.911 73.3121 131.911 73.3121Z" stroke="#FFFFFF" stroke-width="1.33514" stroke-miterlimit="8" fill="#FFFFFF" fill-rule="evenodd"/><path d="M125.757 74.7545 126.079 65.3582C125.375 65.6222 125.393 65.954 125.359 65.3022 125.072 67.3272 125.357 71.9446 125.757 74.7545Z" stroke="#FFFFFF" stroke-width="1.33514" stroke-miterlimit="8" fill="#FFFFFF" fill-rule="evenodd"/><path d="M133.495 91.0059C133.983 93.451 135.701 102.466 135.709 102.692 135.704 102.502 134.871 93.659 134.273 90.7713Z" stroke="#FFFFFF" stroke-width="1.33514" stroke-miterlimit="8" fill="#FFFFFF" fill-rule="evenodd"/><path d="M125.456 81.6622C125.944 84.1073 127.566 93.6546 127.561 93.8693 127.78 93.6478 127.155 85.2869 125.969 82.4862Z" stroke="#FFFFFF" stroke-width="1.33514" stroke-miterlimit="8" fill="#FFFFFF" fill-rule="evenodd"/><path d="M134.246 108.308C134.734 110.753 136.993 121.995 136.989 122.221 137.208 122 135.946 111.933 134.759 109.132Z" stroke="#FFFFFF" stroke-width="1.33514" stroke-miterlimit="8" fill="#FFFFFF" fill-rule="evenodd"/><path d="M111.064 107.027C110.574 109.463 107.474 122.518 107.471 122.745 107.249 122.526 109.368 110.652 110.553 107.858Z" stroke="#FFFFFF" stroke-width="1.33514" stroke-miterlimit="8" fill="#FFFFFF" fill-rule="evenodd"/><path d="M103.301 113.778C102.811 116.213 97.6422 127.676 97.6382 127.903 97.4156 127.672 101.65 116.017 102.848 113.222Z" stroke="#FFFFFF" stroke-width="1.33514" stroke-miterlimit="8" fill="#FFFFFF" fill-rule="evenodd"/><path d="M105.82 126.902C105.33 129.337 102.604 134.539 102.6 134.766 102.377 134.535 104.228 129.41 105.414 126.616Z" stroke="#FFFFFF" stroke-width="1.33514" stroke-miterlimit="8" fill="#FFFFFF" fill-rule="evenodd"/><path d="M131.637 120.024C132.125 122.469 135.657 130.838 135.653 131.064 135.872 130.843 133.714 123.747 132.517 120.959Z" stroke="#FFFFFF" stroke-width="1.33514" stroke-miterlimit="8" fill="#FFFFFF" fill-rule="evenodd"/><path d="M140.742 116.906C141.23 119.351 143.532 129.315 143.54 129.541 143.759 129.319 142.715 120.793 141.518 118.005Z" stroke="#FFFFFF" stroke-width="1.33514" stroke-miterlimit="8" fill="#FFFFFF" fill-rule="evenodd"/><path d="M104.181 86.7854C103.811 88.4129 98.6297 98.6507 98.62 98.9491 98.4092 98.7176 101.469 91.2008 102.667 88.4058Z" stroke="#FFFFFF" stroke-width="1.33514" stroke-miterlimit="8" fill="#FFFFFF" fill-rule="evenodd"/><path d="M114.64 66.8593C114.27 68.4866 113.025 74.69 113.016 74.9884 112.793 74.758 112.832 69.898 114.018 67.1042Z" stroke="#FFFFFF" stroke-width="1.33514" stroke-miterlimit="8" fill="#FFFFFF" fill-rule="evenodd"/><path d="M116.333 58.1519C115.963 59.7793 114.03 64.3882 114.021 64.6867 113.798 64.4562 114.419 60.9261 115.616 58.1312Z" stroke="#FFFFFF" stroke-width="1.33514" stroke-miterlimit="8" fill="#FFFFFF" fill-rule="evenodd"/><path d="M126.465 51.7896C126.095 53.4171 125.376 62.4908 125.365 62.7774 125.143 62.5587 124.606 56.154 125.792 53.3602Z" stroke="#FFFFFF" stroke-width="1.33514" stroke-miterlimit="8" fill="#FFFFFF" fill-rule="evenodd"/><path d="M130.821 47.3729C130.451 49.0002 130.582 55.2618 130.571 55.5484 130.431 55.3106 129.716 50.4096 130.47 47.7248Z" stroke="#FFFFFF" stroke-width="1.33514" stroke-miterlimit="8" fill="#FFFFFF" fill-rule="evenodd"/><path d="M117.292 47.6043C117.304 49.234 115.641 55.7002 115.834 55.9927 115.992 55.7528 118.45 49.9432 117.691 47.2599Z" stroke="#FFFFFF" stroke-width="1.33514" stroke-miterlimit="8" fill="#FFFFFF" fill-rule="evenodd"/><path d="M134.765 63.4319C134.437 66.2223 142.958 80.951 145.474 80.4214 144.448 80.8206 134.321 66.8037 135.28 63.1964Z" stroke="#FFFFFF" stroke-width="1.33514" stroke-miterlimit="8" fill="#FFFFFF" fill-rule="evenodd"/><path d="M142.307 89.5681C142.317 90.5076 144.204 93.8183 145.847 96.5312 147.06 98.544 148.148 100.222 148.23 100.346 148.376 100.107 143.357 91.2259 142.61 88.5417Z" stroke="#FFFFFF" stroke-width="1.33514" stroke-miterlimit="8" fill="#FFFFFF" fill-rule="evenodd"/><path d="M141.232 97.8523C141.243 99.482 143.235 108.081 143.438 108.36 143.584 108.121 142.495 101.253 141.747 98.569Z" stroke="#FFFFFF" stroke-width="1.33514" stroke-miterlimit="8" fill="#FFFFFF" fill-rule="evenodd"/><path d="M137.768 103.893C137.78 105.523 139.567 112.735 139.771 113.026 139.917 112.787 138.816 105.92 138.068 103.236Z" stroke="#FFFFFF" stroke-width="1.33514" stroke-miterlimit="8" fill="#FFFFFF" fill-rule="evenodd"/><path d="M145.127 109.963C146.498 113.64 147.022 113.773 147.129 114.049 147.275 113.81 146.281 112.254 145.534 109.57Z" stroke="#FFFFFF" stroke-width="1.33514" stroke-miterlimit="8" fill="#FFFFFF" fill-rule="evenodd"/><path d="M109.064 96.4294C108.574 98.8648 105.475 111.92 105.471 112.147 105.249 111.928 107.368 100.053 108.553 97.2596Z" stroke="#FFFFFF" stroke-width="1.33514" stroke-miterlimit="8" fill="#FFFFFF" fill-rule="evenodd"/><path d="M106.962 90.6492C106.472 93.0846 100.967 105.612 100.963 105.839 100.741 105.62 104.432 95.0961 105.629 92.3013Z" stroke="#FFFFFF" stroke-width="1.33514" stroke-miterlimit="8" fill="#FFFFFF" fill-rule="evenodd"/><path d="M110.655 75.5287C110.165 77.9641 106.668 82.3886 106.676 82.6142 106.454 82.3956 109.135 77.6258 110.332 74.8309Z" stroke="#FFFFFF" stroke-width="1.33514" stroke-miterlimit="8" fill="#FFFFFF" fill-rule="evenodd"/><path d="M108.993 69.4723C109.154 72.9458 101.359 79.7223 101.034 79.4175 101.099 79.4831 107.42 73.6927 107.768 70.0437Z" stroke="#FFFFFF" stroke-width="1.33514" stroke-miterlimit="8" fill="#FFFFFF" fill-rule="evenodd"/><path d="M140.946 80.4139C140.956 81.3532 142.082 81.9689 143.725 84.6701 144.949 86.6818 146.037 88.3602 146.12 88.4839 146.266 88.245 142.754 83.6481 141.994 80.9648Z" stroke="#FFFFFF" stroke-width="1.33514" stroke-miterlimit="8" fill="#FFFFFF" fill-rule="evenodd"/><path d="M99.6593 132.345C99.1693 134.781 95.7009 141.036 95.6968 141.262 95.4753 141.044 97.3254 135.906 98.5121 133.124Z" stroke="#FFFFFF" stroke-width="1.33514" stroke-miterlimit="8" fill="#FFFFFF" fill-rule="evenodd"/><path d="M144.25 130.848C144.738 133.294 147.234 140.3 147.241 140.514 147.459 140.293 146.142 133.135 144.945 130.347Z" stroke="#FFFFFF" stroke-width="1.33514" stroke-miterlimit="8" fill="#FFFFFF" fill-rule="evenodd"/></g></svg>